<svg id="Capa_1" enable-background="new 0 0 507.95 507.95" height="512" viewBox="0 0 507.95 507.95" width="512" xmlns="http://www.w3.org/2000/svg"><g><path d="m455.375 499.325h-402.801c-24.894 0-45.074-20.181-45.074-45.075v-400.55c0-24.894 20.18-45.075 45.074-45.075h402.801c24.894 0 45.074 20.181 45.074 45.075v400.55c.001 24.894-20.18 45.075-45.074 45.075z" fill="#efe2dd"/><path d="m455.375 8.625h-30c24.894 0 45.075 20.18 45.075 45.074v400.551c0 24.894-20.181 45.074-45.075 45.074h30c24.894 0 45.074-20.18 45.074-45.074v-400.551c.001-24.893-20.18-45.074-45.074-45.074z" fill="#e1d3ce"/><path d="m178.118 222.337c6.659 0 12.307-4.701 13.737-11.205 5.656-25.723 28.569-44.973 55.991-44.973s50.335 19.25 55.991 44.973c1.43 6.503 7.078 11.205 13.737 11.205h81.248c8.287 0 14.785-7.149 13.967-15.395-8.312-83.774-78.982-149.206-164.943-149.206s-156.631 65.432-164.943 149.206c-.818 8.246 5.681 15.395 13.967 15.395z" fill="#ffeee8"/><path d="m217.846 166.16c-27.422 0-50.335 19.25-55.991 44.973-1.43 6.503-7.078 11.205-13.737 11.205h30c6.659 0 12.307-4.701 13.737-11.205 4.585-20.854 20.514-37.45 40.991-42.988-4.781-1.293-9.809-1.985-15-1.985z" fill="#e1d3ce"/><path d="m412.789 206.942c-8.312-83.774-78.982-149.206-164.943-149.206-5.057 0-10.059.235-15 .678 79.058 7.092 142.12 69.682 149.943 148.528.818 8.246-5.681 15.395-13.967 15.395h30c8.286 0 14.785-7.149 13.967-15.395z" fill="#e1d3ce"/><circle cx="247.846" cy="213.673" fill="#fe646f" r="18.186"/><path d="m500.45 223.836c-4.142 0-7.5 3.358-7.5 7.5v222.914c0 20.718-16.856 37.574-37.574 37.574h-402.802c-20.719 0-37.574-16.855-37.574-37.574v-260.002c0-4.142-3.358-7.5-7.5-7.5s-7.5 3.358-7.5 7.5v260.002c0 28.99 23.584 52.574 52.574 52.574h402.801c28.99 0 52.574-23.584 52.574-52.574v-222.914c.001-4.142-3.357-7.5-7.499-7.5z"/><path d="m455.375 1.125h-402.801c-28.99 0-52.574 23.585-52.574 52.574v110.549c0 4.142 3.358 7.5 7.5 7.5s7.5-3.358 7.5-7.5v-110.549c0-20.718 16.855-37.574 37.574-37.574h402.801c20.718 0 37.574 16.856 37.574 37.574v147.637c0 4.142 3.358 7.5 7.5 7.5s7.5-3.358 7.5-7.5v-147.637c.001-28.989-23.584-52.574-52.574-52.574z"/><path d="m414.79 222.755c4.069-4.493 6.061-10.526 5.463-16.553-4.222-42.551-24.026-81.909-55.766-110.822-31.956-29.111-73.38-45.143-116.641-45.143s-84.685 16.032-116.641 45.143c-31.739 28.914-51.544 68.271-55.766 110.823-.598 6.026 1.394 12.06 5.463 16.553 4.077 4.501 9.897 7.083 15.968 7.083h81.248c10.188 0 18.848-7.029 21.062-17.094 4.979-22.646 25.446-39.083 48.666-39.083s43.687 16.437 48.667 39.083c2.213 10.064 10.874 17.094 21.062 17.094h81.248c6.07-.002 11.889-2.583 15.967-7.084zm-11.119-10.07c-1.257 1.388-2.979 2.152-4.85 2.152h-81.248c-3.087 0-5.724-2.186-6.412-5.315-5.938-27.003-28.794-47.21-55.816-50.407v-19.078c0-4.142-3.358-7.5-7.5-7.5s-7.5 3.358-7.5 7.5v19.078c-27.023 3.197-49.878 23.403-55.815 50.407-.688 3.129-3.325 5.315-6.412 5.315h-81.248c-1.871 0-3.593-.764-4.85-2.152-1.25-1.38-1.837-3.157-1.654-5.002.512-5.16 1.283-10.267 2.289-15.309l13.822 3.298c.585.14 1.17.206 1.747.206 3.392 0 6.467-2.317 7.289-5.761.961-4.029-1.526-8.075-5.555-9.036l-13.668-3.261c5.148-17.108 13.17-33.215 23.739-47.66l14.187 11.466c1.388 1.122 3.054 1.667 4.71 1.667 2.187 0 4.355-.953 5.837-2.786 2.604-3.222 2.103-7.944-1.119-10.547l-14.194-11.472c3.721-4.19 7.671-8.207 11.856-12.02 9.88-9.001 20.755-16.627 32.347-22.786l7.799 16.332c1.287 2.695 3.974 4.27 6.773 4.27 1.083 0 2.184-.236 3.227-.734 3.738-1.785 5.321-6.262 3.536-10l-7.77-16.271c16.764-6.951 34.712-10.999 53.127-11.865v19.961c0 4.142 3.358 7.5 7.5 7.5s7.5-3.358 7.5-7.5v-19.961c18.415.866 36.364 4.914 53.128 11.866l-7.77 16.271c-1.785 3.738-.202 8.215 3.536 10 1.043.498 2.143.734 3.227.734 2.8 0 5.486-1.575 6.773-4.27l7.799-16.332c11.592 6.158 22.466 13.785 32.347 22.786 4.185 3.813 8.136 7.83 11.856 12.02l-14.194 11.472c-3.222 2.604-3.722 7.326-1.119 10.547 1.482 1.834 3.65 2.786 5.837 2.786 1.656 0 3.322-.546 4.71-1.667l14.187-11.466c10.568 14.445 18.59 30.552 23.739 47.66l-13.668 3.261c-4.029.961-6.516 5.007-5.555 9.036.822 3.444 3.897 5.761 7.289 5.761.576 0 1.162-.066 1.747-.206l13.823-3.298c1.006 5.042 1.777 10.148 2.289 15.308.183 1.846-.405 3.622-1.655 5.002z"/><path d="m273.532 213.674c0-14.164-11.523-25.687-25.687-25.687-14.163 0-25.686 11.523-25.686 25.687 0 14.163 11.523 25.686 25.686 25.686 14.164 0 25.687-11.523 25.687-25.686zm-36.372 0c0-5.893 4.794-10.687 10.686-10.687 5.893 0 10.687 4.794 10.687 10.687 0 5.892-4.794 10.686-10.687 10.686-5.892 0-10.686-4.794-10.686-10.686z"/><path d="m410.255 327.474c0-4.142-3.358-7.5-7.5-7.5h-297.561c-4.142 0-7.5 3.358-7.5 7.5s3.358 7.5 7.5 7.5h297.561c4.142 0 7.5-3.358 7.5-7.5z"/><path d="m373.184 377.516c0-4.142-3.358-7.5-7.5-7.5h-223.418c-4.142 0-7.5 3.358-7.5 7.5s3.358 7.5 7.5 7.5h223.418c4.142 0 7.5-3.358 7.5-7.5z"/><path d="m182.334 415.482c-4.142 0-7.5 3.358-7.5 7.5s3.358 7.5 7.5 7.5h143.282c4.142 0 7.5-3.358 7.5-7.5s-3.358-7.5-7.5-7.5z"/></g></svg>