<svg width="450" height="275" viewBox="0 0 450 275" fill="none" xmlns="http://www.w3.org/2000/svg">
<rect x="1.5" y="1.5" width="447" height="272" rx="48.5" stroke="#2F80ED" stroke-width="3"/>
<path d="M130.551 83.0313C130.551 78.8783 127.184 75.5117 123.031 75.5117C122.524 75.5117 122.03 75.5626 121.551 75.6582C120.268 73.4314 117.866 71.9314 115.111 71.9314C112.99 71.9314 111.078 72.8221 109.724 74.2482C108.37 72.8221 106.458 71.9314 104.337 71.9314C100.234 71.9314 96.9078 75.2574 96.9078 79.3602C96.9078 80.0455 97.0024 80.7083 97.1761 81.3383C94.6541 82.526 92.9078 85.0894 92.9078 88.0618C92.9078 92.1648 96.2337 95.4907 100.337 95.4907C102.117 95.4907 103.751 94.8637 105.03 93.8192C106.31 94.8636 107.944 95.4907 109.724 95.4907C111.505 95.4907 113.138 94.8637 114.418 93.8192C115.697 94.8636 117.331 95.4907 119.112 95.4907C122.621 95.4907 125.56 93.0569 126.337 89.7857C128.832 88.5622 130.551 85.9978 130.551 83.0313V83.0313Z" fill="#99EBFA"/>
<path d="M107.172 51.5859H114.828V72.5039H107.172V51.5859Z" fill="#CCF5FC"/>
<path d="M144.633 87.6295H139.604L134.712 83.8861C132.378 82.0996 129.52 81.1317 126.58 81.1317C122.988 81.1317 119.547 82.5756 117.031 85.1385L114.585 87.6294C114.585 87.6294 107.471 87.6294 103.185 87.6295C100.931 87.6295 99.1043 89.4569 99.1043 91.711C99.1043 93.965 100.932 95.7923 103.186 95.7923L121.14 95.7926H111.406H102.499C98.6995 95.7926 95.0558 94.2831 92.3697 91.5961L84.3544 83.5785C82.7615 81.9851 80.1802 81.9789 78.5795 83.5646C76.9684 85.1606 76.9624 87.7624 78.566 89.366L87.5235 98.3235C91.5632 102.363 97.042 104.633 102.755 104.633H144.633V87.6295Z" fill="#F0C9BC"/>
<path d="M105.805 37.3672H77.3672V45.0234H105.805V50.2187C105.805 50.9738 106.417 51.5859 107.172 51.5859H114.828C115.583 51.5859 116.195 50.9738 116.195 50.2187V41.4687C116.195 39.2035 114.359 37.3672 112.094 37.3672H105.805Z" fill="#E2E9EE"/>
<path d="M116.195 50.2187C116.195 50.9738 115.583 51.5859 114.828 51.5859H107.172C106.417 51.5859 105.805 50.9738 105.805 50.2187V45.0234H116.195V50.2187Z" fill="#E2E9EE"/>
<path d="M87.576 75.4206C90.0174 75.4206 91.9965 73.4414 91.9965 71C91.9965 68.5586 90.0174 66.5795 87.576 66.5795C85.1346 66.5795 83.1555 68.5586 83.1555 71C83.1555 73.4414 85.1346 75.4206 87.576 75.4206Z" fill="#99EBFA"/>
<path d="M127.862 65.7779C130.303 65.7779 132.283 63.7987 132.283 61.3573C132.283 58.916 130.303 56.9368 127.862 56.9368C125.421 56.9368 123.441 58.916 123.441 61.3573C123.441 63.7987 125.421 65.7779 127.862 65.7779Z" fill="#99EBFA"/>
<path d="M144.633 103.266H102.755C97.3664 103.266 92.3003 101.167 88.4902 97.3569L79.5326 88.3994C79.016 87.8829 78.7325 87.1961 78.7343 86.4656C78.736 85.7353 79.0226 85.0499 79.5416 84.5358C80.6042 83.4827 82.3297 83.4871 83.3872 84.545L91.4025 92.5626C94.3661 95.5272 98.3069 97.1598 102.499 97.1598H121.14C121.895 97.1598 122.507 96.5475 122.507 95.7926C122.507 95.0376 121.895 94.4254 121.14 94.4254L103.185 94.4251C101.689 94.4251 100.471 93.2075 100.471 91.711C100.471 90.2143 101.688 88.9967 103.184 88.9966H114.585C114.952 88.9966 115.304 88.849 115.561 88.5872L118.006 86.0962C120.251 83.81 123.376 82.4987 126.58 82.4987C129.204 82.4987 131.797 83.377 133.881 84.9717L138.773 88.7151C139.011 88.8976 139.303 88.9966 139.604 88.9966H144.633C145.388 88.9966 146 88.3845 146 87.6294C146 86.8743 145.388 86.2622 144.633 86.2622H140.067L135.543 82.8002C134.344 81.8831 133.007 81.1618 131.595 80.6511C130.54 76.8395 127.052 74.1445 123.031 74.1445C122.761 74.1445 122.489 74.157 122.219 74.1817C120.787 72.2212 118.597 70.9331 116.195 70.6322V52.5832C117.011 52.1094 117.563 51.2281 117.563 50.2188V41.4688C117.563 38.4533 115.109 36 112.094 36H77.3672C76.6122 36 76 36.6121 76 37.3672C76 38.1223 76.6122 38.7344 77.3672 38.7344H112.094C113.601 38.7344 114.828 39.961 114.828 41.4688V43.6562H97.3517C96.5967 43.6562 95.9845 44.2683 95.9845 45.0234C95.9845 45.7785 96.5967 46.3906 97.3517 46.3906H104.438V50.2188C104.438 51.2281 104.989 52.1094 105.805 52.5832V70.6849C105.325 70.605 104.834 70.5641 104.337 70.5641C99.4864 70.5641 95.5404 74.51 95.5404 79.3602C95.5404 79.785 95.5714 80.2095 95.6328 80.6301C93.1165 82.2288 91.5404 85.0398 91.5404 88.0618C91.5404 88.3348 91.5542 88.6045 91.5787 88.8712L85.3212 82.6121C83.2026 80.4927 79.7467 80.4842 77.6173 82.5935C76.5779 83.6232 76.0036 84.9962 76 86.4593C75.9966 87.9226 76.5645 89.2983 77.5991 90.333L86.5568 99.2905C90.8834 103.617 96.6361 106 102.755 106H144.633C145.388 106 146 105.388 146 104.633C146 103.878 145.388 103.266 144.633 103.266V103.266ZM114.828 50.2188H107.172V46.3906H114.828V50.2188ZM108.539 52.9531H113.461V70.7189C112.097 70.9755 110.823 71.5488 109.724 72.4063C109.348 72.1133 108.952 71.8537 108.539 71.6281V52.9531ZM97.7584 82.5753C98.3602 82.2919 98.6708 81.6163 98.4941 80.975C98.3486 80.4474 98.2748 79.9041 98.2748 79.3602C98.2748 76.0178 100.994 73.2985 104.337 73.2985C106.014 73.2985 107.575 73.9701 108.732 75.1893C108.991 75.4613 109.349 75.6154 109.724 75.6154C110.099 75.6154 110.458 75.4614 110.716 75.1893C111.873 73.9701 113.434 73.2985 115.111 73.2985C117.272 73.2985 119.285 74.4642 120.366 76.3406C120.659 76.8488 121.243 77.1138 121.819 76.9988C122.218 76.9192 122.625 76.8789 123.031 76.8789C125.246 76.8789 127.227 78.0591 128.312 79.8695C127.738 79.8007 127.16 79.7645 126.58 79.7645C122.647 79.7645 118.811 81.3741 116.055 84.1806L114.012 86.2623H103.185C100.181 86.2623 97.7369 88.7067 97.7369 91.7111C97.7369 92.4128 97.8717 93.0832 98.1144 93.6997C95.8685 92.8113 94.2749 90.6198 94.2749 88.0618C94.2748 85.7253 95.6423 83.5717 97.7584 82.5753V82.5753Z" fill="black"/>
<path d="M85.047 43.6562H77.3672C76.6123 43.6562 76.0001 44.2683 76.0001 45.0234C76.0001 45.7785 76.6123 46.3906 77.3672 46.3906H85.047C85.802 46.3906 86.4142 45.7785 86.4142 45.0234C86.4142 44.2683 85.802 43.6562 85.047 43.6562Z" fill="black"/>
<path d="M81.7882 71C81.7882 74.1915 84.3846 76.7877 87.5761 76.7877C90.7675 76.7877 93.3638 74.1913 93.3638 71C93.3638 67.8087 90.7675 65.2123 87.5761 65.2123C84.3846 65.2123 81.7882 67.8086 81.7882 71V71ZM90.6294 71C90.6294 72.6837 89.2596 74.0534 87.5761 74.0534C85.8924 74.0534 84.5226 72.6836 84.5226 71C84.5226 69.3165 85.8924 67.9467 87.5761 67.9467C89.2596 67.9467 90.6294 69.3163 90.6294 71V71Z" fill="black"/>
<path d="M127.862 67.1452C131.053 67.1452 133.65 64.5488 133.65 61.3575C133.65 58.1662 131.053 55.5698 127.862 55.5698C124.671 55.5698 122.074 58.1661 122.074 61.3574C122.074 64.5488 124.671 67.1452 127.862 67.1452V67.1452ZM127.862 58.304C129.546 58.304 130.915 59.6738 130.915 61.3574C130.915 63.0411 129.546 64.4107 127.862 64.4107C126.178 64.4107 124.809 63.0409 124.809 61.3574C124.809 59.6738 126.178 58.304 127.862 58.304V58.304Z" fill="black"/>
<path d="M92.1657 45.99C92.4198 45.7357 92.5663 45.383 92.5663 45.0234C92.5663 44.6639 92.42 44.3111 92.1657 44.0568C91.9114 43.8025 91.5586 43.6562 91.1991 43.6562C90.8395 43.6562 90.4868 43.8025 90.2325 44.0568C89.9783 44.3111 89.8319 44.6639 89.8319 45.0234C89.8319 45.383 89.9782 45.7357 90.2325 45.99C90.4868 46.2443 90.8395 46.3906 91.1991 46.3906C91.5586 46.3906 91.9114 46.2443 92.1657 45.99V45.99Z" fill="black"/>
</svg>
