<svg width="450" height="275" viewBox="0 0 450 275" fill="none" xmlns="http://www.w3.org/2000/svg">
<rect x="1" y="1" width="448" height="273" rx="49" fill="url(#paint0_linear)" fill-opacity="0.85" stroke="#E0E0E0" stroke-width="2"/>
<path d="M130.551 83.0313C130.551 78.8783 127.184 75.5117 123.031 75.5117C122.524 75.5117 122.03 75.5626 121.551 75.6582C120.268 73.4314 117.866 71.9314 115.111 71.9314C112.99 71.9314 111.078 72.8221 109.724 74.2482C108.37 72.8221 106.458 71.9314 104.337 71.9314C100.234 71.9314 96.9078 75.2574 96.9078 79.3602C96.9078 80.0455 97.0024 80.7083 97.1761 81.3383C94.6541 82.526 92.9078 85.0894 92.9078 88.0618C92.9078 92.1648 96.2337 95.4907 100.337 95.4907C102.117 95.4907 103.751 94.8637 105.03 93.8192C106.31 94.8636 107.944 95.4907 109.724 95.4907C111.505 95.4907 113.138 94.8637 114.418 93.8192C115.697 94.8636 117.331 95.4907 119.112 95.4907C122.621 95.4907 125.56 93.0569 126.337 89.7857C128.832 88.5622 130.551 85.9978 130.551 83.0313Z" fill="#99EBFA"/>
<path d="M107.172 51.5859H114.828V72.5039H107.172V51.5859Z" fill="#CCF5FC"/>
<path d="M144.633 87.6295H139.604L134.712 83.8861C132.378 82.0996 129.52 81.1317 126.58 81.1317C122.988 81.1317 119.547 82.5756 117.031 85.1385L114.585 87.6294C114.585 87.6294 107.471 87.6294 103.185 87.6295C100.931 87.6295 99.1043 89.4569 99.1043 91.711C99.1043 93.965 100.932 95.7923 103.186 95.7923L121.14 95.7926H111.406H102.499C98.6995 95.7926 95.0558 94.2831 92.3697 91.5961L84.3544 83.5785C82.7615 81.9851 80.1802 81.9789 78.5795 83.5646C76.9684 85.1606 76.9624 87.7624 78.566 89.366L87.5235 98.3235C91.5632 102.363 97.042 104.633 102.755 104.633H144.633V87.6295Z" fill="#F0C9BC"/>
<path d="M105.805 37.3672H77.3672V45.0234H105.805V50.2187C105.805 50.9738 106.417 51.5859 107.172 51.5859H114.828C115.583 51.5859 116.195 50.9738 116.195 50.2187V41.4687C116.195 39.2035 114.359 37.3672 112.094 37.3672H105.805Z" fill="#E2E9EE"/>
<path d="M116.195 50.2187C116.195 50.9738 115.583 51.5859 114.828 51.5859H107.172C106.417 51.5859 105.805 50.9738 105.805 50.2187V45.0234H116.195V50.2187Z" fill="#E2E9EE"/>
<path d="M87.576 75.4206C90.0174 75.4206 91.9965 73.4414 91.9965 71C91.9965 68.5586 90.0174 66.5795 87.576 66.5795C85.1346 66.5795 83.1555 68.5586 83.1555 71C83.1555 73.4414 85.1346 75.4206 87.576 75.4206Z" fill="#99EBFA"/>
<path d="M127.862 65.7779C130.303 65.7779 132.283 63.7987 132.283 61.3573C132.283 58.916 130.303 56.9368 127.862 56.9368C125.421 56.9368 123.441 58.916 123.441 61.3573C123.441 63.7987 125.421 65.7779 127.862 65.7779Z" fill="#99EBFA"/>
<path d="M144.633 103.266H102.755C97.3664 103.266 92.3003 101.167 88.4902 97.3569L79.5326 88.3994C79.016 87.8829 78.7325 87.1961 78.7343 86.4656C78.736 85.7353 79.0226 85.0499 79.5416 84.5358C80.6042 83.4827 82.3297 83.4871 83.3872 84.545L91.4025 92.5626C94.3661 95.5272 98.3069 97.1598 102.499 97.1598H121.14C121.895 97.1598 122.507 96.5475 122.507 95.7926C122.507 95.0376 121.895 94.4254 121.14 94.4254L103.185 94.4251C101.689 94.4251 100.471 93.2075 100.471 91.711C100.471 90.2143 101.688 88.9967 103.184 88.9966H114.585C114.952 88.9966 115.304 88.849 115.561 88.5872L118.006 86.0962C120.251 83.81 123.376 82.4987 126.58 82.4987C129.204 82.4987 131.797 83.377 133.881 84.9717L138.773 88.7151C139.011 88.8976 139.303 88.9966 139.604 88.9966H144.633C145.388 88.9966 146 88.3845 146 87.6294C146 86.8743 145.388 86.2622 144.633 86.2622H140.067L135.543 82.8002C134.344 81.8831 133.007 81.1618 131.595 80.6511C130.54 76.8395 127.052 74.1445 123.031 74.1445C122.761 74.1445 122.489 74.157 122.219 74.1817C120.787 72.2212 118.597 70.9331 116.195 70.6322V52.5832C117.011 52.1094 117.563 51.2281 117.563 50.2188V41.4688C117.563 38.4533 115.109 36 112.094 36H77.3672C76.6122 36 76 36.6121 76 37.3672C76 38.1223 76.6122 38.7344 77.3672 38.7344H112.094C113.601 38.7344 114.828 39.961 114.828 41.4688V43.6562H97.3517C96.5967 43.6562 95.9845 44.2683 95.9845 45.0234C95.9845 45.7785 96.5967 46.3906 97.3517 46.3906H104.438V50.2188C104.438 51.2281 104.989 52.1094 105.805 52.5832V70.6849C105.325 70.605 104.834 70.5641 104.337 70.5641C99.4864 70.5641 95.5404 74.51 95.5404 79.3602C95.5404 79.785 95.5714 80.2095 95.6328 80.6301C93.1165 82.2288 91.5404 85.0398 91.5404 88.0618C91.5404 88.3348 91.5542 88.6045 91.5787 88.8712L85.3212 82.6121C83.2026 80.4927 79.7467 80.4842 77.6173 82.5935C76.5779 83.6232 76.0036 84.9962 76 86.4593C75.9966 87.9226 76.5645 89.2983 77.5991 90.333L86.5568 99.2905C90.8834 103.617 96.6361 106 102.755 106H144.633C145.388 106 146 105.388 146 104.633C146 103.878 145.388 103.266 144.633 103.266ZM114.828 50.2188H107.172V46.3906H114.828V50.2188ZM108.539 52.9531H113.461V70.7189C112.097 70.9755 110.823 71.5488 109.724 72.4063C109.348 72.1133 108.952 71.8537 108.539 71.6281V52.9531ZM97.7584 82.5753C98.3602 82.2919 98.6708 81.6163 98.4941 80.975C98.3486 80.4474 98.2748 79.9041 98.2748 79.3602C98.2748 76.0178 100.994 73.2985 104.337 73.2985C106.014 73.2985 107.575 73.9701 108.732 75.1893C108.991 75.4613 109.349 75.6154 109.724 75.6154C110.099 75.6154 110.458 75.4614 110.716 75.1893C111.873 73.9701 113.434 73.2985 115.111 73.2985C117.272 73.2985 119.285 74.4642 120.366 76.3406C120.659 76.8488 121.243 77.1138 121.819 76.9988C122.218 76.9192 122.625 76.8789 123.031 76.8789C125.246 76.8789 127.227 78.0591 128.312 79.8695C127.738 79.8007 127.16 79.7645 126.58 79.7645C122.647 79.7645 118.811 81.3741 116.055 84.1806L114.012 86.2623H103.185C100.181 86.2623 97.7369 88.7067 97.7369 91.7111C97.7369 92.4128 97.8717 93.0832 98.1144 93.6997C95.8685 92.8113 94.2749 90.6198 94.2749 88.0618C94.2748 85.7253 95.6423 83.5717 97.7584 82.5753Z" fill="black"/>
<path d="M85.047 43.6562H77.3672C76.6123 43.6562 76.0001 44.2683 76.0001 45.0234C76.0001 45.7785 76.6123 46.3906 77.3672 46.3906H85.047C85.802 46.3906 86.4142 45.7785 86.4142 45.0234C86.4142 44.2683 85.802 43.6562 85.047 43.6562Z" fill="black"/>
<path d="M81.7882 71C81.7882 74.1915 84.3846 76.7877 87.5761 76.7877C90.7675 76.7877 93.3638 74.1913 93.3638 71C93.3638 67.8087 90.7675 65.2123 87.5761 65.2123C84.3846 65.2123 81.7882 67.8086 81.7882 71ZM90.6294 71C90.6294 72.6837 89.2596 74.0534 87.5761 74.0534C85.8924 74.0534 84.5226 72.6836 84.5226 71C84.5226 69.3165 85.8924 67.9467 87.5761 67.9467C89.2596 67.9467 90.6294 69.3163 90.6294 71Z" fill="black"/>
<path d="M127.862 67.1452C131.053 67.1452 133.65 64.5488 133.65 61.3575C133.65 58.1662 131.053 55.5698 127.862 55.5698C124.671 55.5698 122.074 58.1661 122.074 61.3574C122.074 64.5488 124.671 67.1452 127.862 67.1452ZM127.862 58.304C129.546 58.304 130.915 59.6738 130.915 61.3574C130.915 63.0411 129.546 64.4107 127.862 64.4107C126.178 64.4107 124.809 63.0409 124.809 61.3574C124.809 59.6738 126.178 58.304 127.862 58.304Z" fill="black"/>
<path d="M92.1657 45.99C92.4198 45.7357 92.5663 45.383 92.5663 45.0234C92.5663 44.6639 92.42 44.3111 92.1657 44.0568C91.9114 43.8025 91.5586 43.6562 91.1991 43.6562C90.8395 43.6562 90.4868 43.8025 90.2325 44.0568C89.9783 44.3111 89.8319 44.6639 89.8319 45.0234C89.8319 45.383 89.9782 45.7357 90.2325 45.99C90.4868 46.2443 90.8395 46.3906 91.1991 46.3906C91.5586 46.3906 91.9114 46.2443 92.1657 45.99Z" fill="black"/>
<path d="M174.314 81V59.54H178.284V68.3145H187.981V59.54H191.951V81H187.981V71.4492H178.284V81H174.314ZM200.462 81.3076C198.968 81.3076 197.757 80.8975 196.829 80.0771C195.911 79.2471 195.452 78.0557 195.452 76.5029C195.452 74.833 195.999 73.5977 197.093 72.7969C198.187 71.9863 199.837 71.4736 202.044 71.2588C202.347 71.2197 202.674 71.1807 203.025 71.1416C203.377 71.1025 203.772 71.0635 204.212 71.0244C204.651 70.9854 204.998 70.9512 205.252 70.9219V70.0723C205.252 69.0957 205.027 68.3877 204.578 67.9482C204.129 67.499 203.445 67.2744 202.527 67.2744C201.219 67.2744 199.603 67.6406 197.679 68.373C197.669 68.3438 197.508 67.8994 197.195 67.04C196.883 66.1807 196.722 65.7412 196.712 65.7217C198.606 64.9111 200.657 64.5059 202.864 64.5059C205.032 64.5059 206.609 64.9795 207.596 65.9268C208.582 66.8643 209.075 68.3877 209.075 70.4971V81H206.233C206.224 80.9609 206.116 80.6338 205.911 80.0186C205.706 79.4033 205.604 79.0762 205.604 79.0371C204.803 79.8184 204.017 80.3945 203.245 80.7656C202.483 81.127 201.556 81.3076 200.462 81.3076ZM201.502 78.583C202.391 78.583 203.162 78.373 203.816 77.9531C204.48 77.5234 204.954 77.0059 205.237 76.4004V73.2949C205.208 73.2949 204.949 73.3145 204.461 73.3535C203.982 73.3926 203.724 73.4121 203.685 73.4121C202.132 73.5488 200.994 73.8418 200.271 74.291C199.549 74.7402 199.188 75.4629 199.188 76.459C199.188 77.1426 199.388 77.6699 199.788 78.041C200.188 78.4023 200.76 78.583 201.502 78.583ZM212.942 81V64.9014H216.033L216.458 66.9375C218.099 65.3164 219.92 64.5059 221.922 64.5059C223.797 64.5059 225.198 65.0479 226.126 66.1318C227.063 67.2061 227.532 68.7686 227.532 70.8193V81H223.68V71.2881C223.67 69.9893 223.46 69.0176 223.05 68.373C222.64 67.7285 221.902 67.4062 220.838 67.4062C220.008 67.4062 219.246 67.6211 218.553 68.0508C217.869 68.4707 217.371 69.0029 217.059 69.6475C216.873 70.4092 216.78 71.5811 216.78 73.1631V81H212.942ZM237.303 81.3076C235.203 81.3076 233.553 80.5361 232.352 78.9932C231.15 77.4502 230.55 75.3896 230.55 72.8115C230.55 70.3115 231.146 68.3047 232.337 66.791C233.538 65.2676 235.188 64.5059 237.288 64.5059C239.573 64.5059 241.189 65.3164 242.137 66.9375C242.039 65.9805 241.99 65.0576 241.99 64.1689V58.9688L245.828 58.7197V81H242.503L242.078 78.8027C241.912 79.0664 241.756 79.2959 241.609 79.4912C241.473 79.6768 241.268 79.8965 240.994 80.1504C240.721 80.3945 240.423 80.5947 240.101 80.751C239.788 80.8975 239.388 81.0244 238.899 81.1318C238.421 81.249 237.889 81.3076 237.303 81.3076ZM238.211 78.3926C240.789 78.3926 242.098 76.6396 242.137 73.1338C242.137 71.1514 241.805 69.7061 241.141 68.7979C240.477 67.8896 239.485 67.4355 238.167 67.4355C237.015 67.4355 236.092 67.8994 235.398 68.8271C234.715 69.7451 234.373 71.1025 234.373 72.8994C234.373 74.6865 234.715 76.0488 235.398 76.9863C236.092 77.9238 237.029 78.3926 238.211 78.3926ZM252.889 81L248.011 64.9014H251.922L255.013 76.708C255.081 76.4834 255.638 74.5645 256.683 70.9512C257.728 67.3379 258.318 65.3213 258.455 64.9014H262.396C262.522 65.3115 263.084 67.3086 264.08 70.8926C265.076 74.4766 265.613 76.4004 265.691 76.6641L268.87 64.9014H272.723L267.684 81H263.86C263.733 80.5801 263.138 78.4561 262.073 74.6279C261.019 70.7998 260.447 68.7344 260.359 68.4316C260.164 69.1445 259.539 71.293 258.484 74.877C257.439 78.4609 256.834 80.502 256.668 81H252.889ZM279.036 81.3076C277.542 81.3076 276.331 80.8975 275.403 80.0771C274.485 79.2471 274.026 78.0557 274.026 76.5029C274.026 74.833 274.573 73.5977 275.667 72.7969C276.761 71.9863 278.411 71.4736 280.618 71.2588C280.921 71.2197 281.248 71.1807 281.6 71.1416C281.951 71.1025 282.347 71.0635 282.786 71.0244C283.226 70.9854 283.572 70.9512 283.826 70.9219V70.0723C283.826 69.0957 283.602 68.3877 283.152 67.9482C282.703 67.499 282.02 67.2744 281.102 67.2744C279.793 67.2744 278.177 67.6406 276.253 68.373C276.243 68.3438 276.082 67.8994 275.77 67.04C275.457 66.1807 275.296 65.7412 275.286 65.7217C277.181 64.9111 279.231 64.5059 281.438 64.5059C283.606 64.5059 285.184 64.9795 286.17 65.9268C287.156 66.8643 287.649 68.3877 287.649 70.4971V81H284.808C284.798 80.9609 284.69 80.6338 284.485 80.0186C284.28 79.4033 284.178 79.0762 284.178 79.0371C283.377 79.8184 282.591 80.3945 281.819 80.7656C281.058 81.127 280.13 81.3076 279.036 81.3076ZM280.076 78.583C280.965 78.583 281.736 78.373 282.391 77.9531C283.055 77.5234 283.528 77.0059 283.812 76.4004V73.2949C283.782 73.2949 283.523 73.3145 283.035 73.3535C282.557 73.3926 282.298 73.4121 282.259 73.4121C280.706 73.5488 279.568 73.8418 278.846 74.291C278.123 74.7402 277.762 75.4629 277.762 76.459C277.762 77.1426 277.962 77.6699 278.362 78.041C278.763 78.4023 279.334 78.583 280.076 78.583ZM296.658 81.293C294.285 81.293 292.386 80.8877 290.96 80.0771L291.355 77.1914C292 77.543 292.82 77.8604 293.816 78.1436C294.812 78.417 295.721 78.5537 296.541 78.5537C297.391 78.5537 298.05 78.3975 298.519 78.085C298.997 77.7627 299.241 77.2939 299.251 76.6787C299.251 76.1221 299.026 75.6826 298.577 75.3604C298.138 75.0381 297.293 74.6377 296.043 74.1592C295.613 74.0029 295.335 73.9004 295.208 73.8516C293.724 73.2754 292.654 72.6357 292 71.9326C291.346 71.2197 291.019 70.2578 291.019 69.0469C291.019 67.582 291.546 66.459 292.601 65.6777C293.665 64.8965 295.145 64.5059 297.039 64.5059C299.09 64.5059 300.892 64.8916 302.444 65.6631L301.492 68.3145C299.959 67.6016 298.499 67.2451 297.112 67.2451C296.341 67.2451 295.735 67.377 295.296 67.6406C294.866 67.8945 294.651 68.2852 294.651 68.8125C294.651 69.3105 294.861 69.7012 295.281 69.9844C295.701 70.2578 296.521 70.6191 297.742 71.0684C297.781 71.0781 297.908 71.1221 298.123 71.2002C298.338 71.2783 298.504 71.3418 298.621 71.3906C300.096 71.9277 301.18 72.5723 301.873 73.3242C302.566 74.0664 302.913 75.0381 302.913 76.2393C302.903 77.8506 302.356 79.0957 301.272 79.9746C300.188 80.8535 298.65 81.293 296.658 81.293ZM305.96 81V58.9688L309.798 58.7197V63.3633C309.798 63.5879 309.783 64.2129 309.754 65.2383C309.725 66.2539 309.71 66.7715 309.71 66.791C310.989 65.2676 312.708 64.5059 314.866 64.5059C316.663 64.5059 318.055 65.0234 319.041 66.0586C320.037 67.084 320.535 68.666 320.535 70.8047V81H316.697V71.2295C316.697 69.9111 316.487 68.9443 316.067 68.3291C315.647 67.7139 314.935 67.4062 313.929 67.4062C313.069 67.4062 312.308 67.626 311.644 68.0654C310.979 68.4951 310.481 69.0518 310.149 69.7354C309.915 70.6338 309.798 71.8057 309.798 73.251V81H305.96ZM324.417 81V64.9014H328.255V81H324.417ZM324.417 62.5576V59.2764H328.27V62.5576H324.417ZM332.269 81V64.9014H335.359L335.784 66.9375C337.425 65.3164 339.246 64.5059 341.248 64.5059C343.123 64.5059 344.524 65.0479 345.452 66.1318C346.39 67.2061 346.858 68.7686 346.858 70.8193V81H343.006V71.2881C342.996 69.9893 342.786 69.0176 342.376 68.373C341.966 67.7285 341.229 67.4062 340.164 67.4062C339.334 67.4062 338.572 67.6211 337.879 68.0508C337.195 68.4707 336.697 69.0029 336.385 69.6475C336.199 70.4092 336.106 71.5811 336.106 73.1631V81H332.269ZM353.86 88.207L353.641 85.1016H355.589C357.845 85.1016 359.422 84.7988 360.32 84.1934C361.219 83.5977 361.668 82.499 361.668 80.8975C361.668 80.2432 361.639 79.5352 361.58 78.7734C361.326 79.125 361.082 79.418 360.848 79.6523C360.623 79.877 360.335 80.1016 359.983 80.3262C359.642 80.5508 359.227 80.7217 358.738 80.8389C358.26 80.9463 357.713 81 357.098 81C354.969 81 353.216 80.2334 351.839 78.7002C350.472 77.167 349.788 75.1895 349.788 72.7676C349.788 71.4785 349.979 70.3066 350.359 69.252C350.74 68.1875 351.258 67.3135 351.912 66.6299C352.566 65.9463 353.318 65.4238 354.168 65.0625C355.027 64.6914 355.94 64.5059 356.907 64.5059C359.065 64.5059 360.672 65.292 361.727 66.8643L361.99 64.9014H365.418V79.8574C365.418 80.6582 365.379 81.376 365.301 82.0107C365.223 82.6553 365.086 83.2705 364.891 83.8564C364.695 84.4521 364.437 84.9697 364.114 85.4092C363.802 85.8486 363.406 86.249 362.928 86.6104C362.449 86.9717 361.883 87.2646 361.229 87.4893C360.584 87.7236 359.832 87.8994 358.973 88.0166C358.113 88.1436 357.146 88.207 356.072 88.207H353.86ZM357.713 78.3193C360.359 78.3193 361.697 76.5469 361.727 73.002V72.4453C361.707 70.8535 361.375 69.623 360.73 68.7539C360.086 67.8848 359.144 67.4453 357.903 67.4355C356.497 67.4355 355.433 67.9189 354.71 68.8857C353.987 69.8428 353.626 71.1367 353.626 72.7676C353.626 74.3398 353.987 75.6582 354.71 76.7227C355.442 77.7871 356.443 78.3193 357.713 78.3193Z" fill="#333333"/>
<defs>
<linearGradient id="paint0_linear" x1="225" y1="0" x2="225" y2="275" gradientUnits="userSpaceOnUse">
<stop stop-color="#2F80ED"/>
<stop offset="1" stop-color="#56CCF2" stop-opacity="0.09"/>
</linearGradient>
</defs>
</svg>
