<svg width="450" height="275" viewBox="0 0 450 275" fill="none" xmlns="http://www.w3.org/2000/svg">
<rect width="450" height="275" rx="50" fill="url(#paint0_linear)" fill-opacity="0.85"/>
<path d="M142.755 107.962H87.2452C83.8146 107.962 81.0336 105.168 81.0336 101.723V46.2775C81.0336 42.8316 83.8146 40.0381 87.2452 40.0381H142.755C146.185 40.0381 148.966 42.8316 148.966 46.2775V101.723C148.967 105.168 146.185 107.962 142.755 107.962Z" fill="#EFE2DD"/>
<path d="M142.755 40.0381H138.621C142.051 40.0381 144.832 42.8315 144.832 46.2774V101.723C144.832 105.168 142.051 107.962 138.621 107.962H142.755C146.185 107.962 148.966 105.168 148.966 101.723V46.2774C148.967 42.8316 146.185 40.0381 142.755 40.0381Z" fill="#E1D3CE"/>
<path d="M104.546 69.6207C105.464 69.6207 106.242 68.9699 106.439 68.0696C107.219 64.509 110.376 61.8444 114.155 61.8444C117.934 61.8444 121.092 64.509 121.872 68.0696C122.069 68.9698 122.847 69.6207 123.765 69.6207H134.961C136.103 69.6207 136.999 68.6311 136.886 67.4896C135.741 55.8935 126.002 46.8362 114.155 46.8362C102.309 46.8362 92.5703 55.8935 91.4248 67.4896C91.3121 68.6311 92.2077 69.6207 93.3496 69.6207H104.546Z" fill="#FFEEE8"/>
<path d="M110.021 61.8445C106.242 61.8445 103.085 64.5092 102.305 68.0698C102.108 68.97 101.33 69.6208 100.412 69.6208H104.546C105.464 69.6208 106.242 68.9701 106.439 68.0698C107.071 65.1831 109.266 62.8859 112.088 62.1193C111.429 61.9403 110.737 61.8445 110.021 61.8445Z" fill="#E1D3CE"/>
<path d="M136.886 67.4896C135.741 55.8935 126.002 46.8362 114.155 46.8362C113.459 46.8362 112.769 46.8687 112.088 46.9301C122.983 47.9118 131.674 56.5756 132.752 67.4896C132.865 68.6311 131.969 69.6207 130.827 69.6207H134.961C136.103 69.6207 136.999 68.6311 136.886 67.4896Z" fill="#E1D3CE"/>
<path d="M114.155 70.9387C115.54 70.9387 116.662 69.8117 116.662 68.4214C116.662 67.0311 115.54 65.904 114.155 65.904C112.771 65.904 111.649 67.0311 111.649 68.4214C111.649 69.8117 112.771 70.9387 114.155 70.9387Z" fill="#FE646F"/>
<path d="M148.967 69.8282C148.396 69.8282 147.933 70.293 147.933 70.8663V101.723C147.933 104.59 145.61 106.924 142.755 106.924H87.2452C84.3899 106.924 82.0671 104.591 82.0671 101.723V65.7325C82.0671 65.1592 81.6044 64.6944 81.0336 64.6944C80.4628 64.6944 80 65.1592 80 65.7325V101.723C80 105.735 83.2501 109 87.2452 109H142.755C146.75 109 150 105.735 150 101.723V70.8663C150 70.293 149.537 69.8282 148.967 69.8282Z" fill="black"/>
<path d="M142.755 39H87.2452C83.2501 39 80 42.2647 80 46.2774V61.5799C80 62.1532 80.4628 62.618 81.0336 62.618C81.6044 62.618 82.0671 62.1532 82.0671 61.5799V46.2774C82.0671 43.4096 84.3899 41.0763 87.2452 41.0763H142.755C145.61 41.0763 147.933 43.4096 147.933 46.2774V66.7137C147.933 67.287 148.396 67.7518 148.966 67.7518C149.537 67.7518 150 67.287 150 66.7137V46.2774C150 42.2647 146.75 39 142.755 39Z" fill="black"/>
<path d="M137.162 69.6785C137.723 69.0566 137.997 68.2215 137.915 67.3872C137.333 61.4972 134.604 56.0492 130.23 52.047C125.826 48.0174 120.117 45.7982 114.155 45.7982C108.194 45.7982 102.485 48.0174 98.0812 52.047C93.7073 56.0493 90.978 61.4972 90.3962 67.3874C90.3137 68.2215 90.5883 69.0567 91.149 69.6787C91.7109 70.3017 92.5129 70.6591 93.3495 70.6591H104.546C105.95 70.6591 107.144 69.6861 107.449 68.2929C108.135 65.1582 110.955 62.883 114.155 62.883C117.355 62.883 120.176 65.1582 120.862 68.2929C121.167 69.686 122.361 70.6591 123.765 70.6591H134.961C135.798 70.6588 136.6 70.3016 137.162 69.6785ZM135.63 68.2846C135.456 68.4767 135.219 68.5825 134.961 68.5825H123.764C123.339 68.5825 122.976 68.2799 122.881 67.8468C122.062 64.109 118.913 61.3119 115.189 60.8693V58.2285C115.189 57.6552 114.726 57.1903 114.155 57.1903C113.584 57.1903 113.122 57.6552 113.122 58.2285V60.8693C109.398 61.3119 106.248 64.1088 105.43 67.8468C105.335 68.2799 104.972 68.5825 104.546 68.5825H93.3495C93.0917 68.5825 92.8544 68.4767 92.6812 68.2846C92.5089 68.0936 92.428 67.8476 92.4532 67.5922C92.5238 66.878 92.63 66.171 92.7687 65.4731L94.6735 65.9296C94.7541 65.949 94.8347 65.9581 94.9142 65.9581C95.3817 65.9581 95.8054 65.6374 95.9187 65.1607C96.0512 64.603 95.7084 64.0429 95.1532 63.9099L93.2696 63.4585C93.9791 61.0904 95.0846 58.8608 96.5411 56.8613L98.4962 58.4485C98.6874 58.6038 98.917 58.6792 99.1452 58.6792C99.4466 58.6792 99.7454 58.5473 99.9496 58.2936C100.308 57.8476 100.239 57.1939 99.7954 56.8336L97.8394 55.2456C98.3522 54.6657 98.8965 54.1096 99.4732 53.5818C100.835 52.3359 102.333 51.2803 103.931 50.4277L105.006 52.6884C105.183 53.0615 105.553 53.2795 105.939 53.2795C106.088 53.2795 106.24 53.2468 106.384 53.1779C106.899 52.9308 107.117 52.3111 106.871 51.7937L105.8 49.5414C108.111 48.5792 110.584 48.0189 113.122 47.899V50.6621C113.122 51.2354 113.584 51.7002 114.155 51.7002C114.726 51.7002 115.189 51.2354 115.189 50.6621V47.899C117.727 48.0189 120.2 48.5792 122.51 49.5415L121.44 51.7938C121.194 52.3112 121.412 52.9309 121.927 53.178C122.071 53.247 122.222 53.2796 122.372 53.2796C122.757 53.2796 123.128 53.0616 123.305 52.6886L124.38 50.4279C125.977 51.2803 127.476 52.336 128.837 53.5819C129.414 54.1098 129.959 54.6658 130.471 55.2458L128.515 56.8338C128.071 57.1942 128.002 57.8478 128.361 58.2937C128.565 58.5476 128.864 58.6793 129.165 58.6793C129.394 58.6793 129.623 58.6038 129.815 58.4486L131.77 56.8614C133.226 58.861 134.331 61.0905 135.041 63.4587L133.158 63.9101C132.602 64.0431 132.26 64.6031 132.392 65.1608C132.505 65.6376 132.929 65.9583 133.396 65.9583C133.476 65.9583 133.557 65.9492 133.637 65.9298L135.542 65.4733C135.681 66.1712 135.787 66.878 135.858 67.5922C135.883 67.8477 135.802 68.0936 135.63 68.2846Z" fill="black"/>
<path d="M117.695 68.4215C117.695 66.4609 116.107 64.8659 114.155 64.8659C112.203 64.8659 110.616 66.4609 110.616 68.4215C110.616 70.382 112.203 71.977 114.155 71.977C116.107 71.977 117.695 70.382 117.695 68.4215ZM112.683 68.4215C112.683 67.6058 113.343 66.9422 114.155 66.9422C114.968 66.9422 115.628 67.6058 115.628 68.4215C115.628 69.2371 114.968 69.9007 114.155 69.9007C113.343 69.9007 112.683 69.2371 112.683 68.4215Z" fill="black"/>
<path d="M136.537 84.174C136.537 83.6006 136.074 83.1358 135.503 83.1358H94.4967C93.9259 83.1358 93.4631 83.6006 93.4631 84.174C93.4631 84.7473 93.9259 85.2121 94.4967 85.2121H135.503C136.074 85.2121 136.537 84.7473 136.537 84.174Z" fill="black"/>
<path d="M131.428 91.1009C131.428 90.5275 130.965 90.0627 130.395 90.0627H99.6055C99.0347 90.0627 98.572 90.5275 98.572 91.1009C98.572 91.6742 99.0347 92.139 99.6055 92.139H130.395C130.965 92.139 131.428 91.6742 131.428 91.1009Z" fill="black"/>
<path d="M105.127 96.3562C104.556 96.3562 104.094 96.8211 104.094 97.3944C104.094 97.9677 104.556 98.4326 105.127 98.4326H124.873C125.444 98.4326 125.906 97.9677 125.906 97.3944C125.906 96.8211 125.444 96.3562 124.873 96.3562H105.127Z" fill="black"/>
<path d="M213.977 84L208.146 62.54H212.102L216.262 79.2393L221.154 62.6426H224.948L229.592 79.2979L233.84 62.54H237.795L231.789 84H227.673L223.088 68.2822L218.063 84H213.977ZM246.921 84.3076C244.333 84.3076 242.316 83.5654 240.871 82.0811C239.436 80.5869 238.718 78.5264 238.718 75.8994C238.718 73.3408 239.396 71.3047 240.754 69.791C242.111 68.2773 243.962 67.5156 246.306 67.5059C248.522 67.5059 250.241 68.1992 251.462 69.5859C252.692 70.9727 253.308 72.8135 253.308 75.1084C253.308 75.2744 253.303 75.543 253.293 75.9141C253.293 76.2852 253.293 76.5586 253.293 76.7344H242.585C242.624 78.2383 243.034 79.4053 243.815 80.2354C244.606 81.0557 245.69 81.4658 247.067 81.4658C248.825 81.4658 250.515 81.0068 252.136 80.0889L252.678 82.8135C251.066 83.8096 249.147 84.3076 246.921 84.3076ZM242.658 74.3174H249.689C249.689 73.0088 249.392 72.0029 248.796 71.2998C248.2 70.5967 247.375 70.2451 246.32 70.2451C245.334 70.2451 244.499 70.5869 243.815 71.2705C243.142 71.9541 242.756 72.9697 242.658 74.3174ZM256.53 84V67.9014H260.368V84H256.53ZM256.53 65.5576V62.2764H260.383V65.5576H256.53ZM267.604 91.207L267.385 88.1016H269.333C271.589 88.1016 273.166 87.7988 274.064 87.1934C274.963 86.5977 275.412 85.499 275.412 83.8975C275.412 83.2432 275.383 82.5352 275.324 81.7734C275.07 82.125 274.826 82.418 274.592 82.6523C274.367 82.877 274.079 83.1016 273.728 83.3262C273.386 83.5508 272.971 83.7217 272.482 83.8389C272.004 83.9463 271.457 84 270.842 84C268.713 84 266.96 83.2334 265.583 81.7002C264.216 80.167 263.532 78.1895 263.532 75.7676C263.532 74.4785 263.723 73.3066 264.104 72.252C264.484 71.1875 265.002 70.3135 265.656 69.6299C266.311 68.9463 267.062 68.4238 267.912 68.0625C268.771 67.6914 269.685 67.5059 270.651 67.5059C272.81 67.5059 274.416 68.292 275.471 69.8643L275.734 67.9014H279.162V82.8574C279.162 83.6582 279.123 84.376 279.045 85.0107C278.967 85.6553 278.83 86.2705 278.635 86.8564C278.439 87.4521 278.181 87.9697 277.858 88.4092C277.546 88.8486 277.15 89.249 276.672 89.6104C276.193 89.9717 275.627 90.2646 274.973 90.4893C274.328 90.7236 273.576 90.8994 272.717 91.0166C271.857 91.1436 270.891 91.207 269.816 91.207H267.604ZM271.457 81.3193C274.104 81.3193 275.441 79.5469 275.471 76.002V75.4453C275.451 73.8535 275.119 72.623 274.475 71.7539C273.83 70.8848 272.888 70.4453 271.647 70.4355C270.241 70.4355 269.177 70.9189 268.454 71.8857C267.731 72.8428 267.37 74.1367 267.37 75.7676C267.37 77.3398 267.731 78.6582 268.454 79.7227C269.187 80.7871 270.188 81.3193 271.457 81.3193ZM282.956 84V61.9688L286.794 61.7197V66.3633C286.794 66.5879 286.779 67.2129 286.75 68.2383C286.721 69.2539 286.706 69.7715 286.706 69.791C287.985 68.2676 289.704 67.5059 291.862 67.5059C293.659 67.5059 295.051 68.0234 296.037 69.0586C297.033 70.084 297.531 71.666 297.531 73.8047V84H293.693V74.2295C293.693 72.9111 293.483 71.9443 293.063 71.3291C292.644 70.7139 291.931 70.4062 290.925 70.4062C290.065 70.4062 289.304 70.626 288.64 71.0654C287.976 71.4951 287.478 72.0518 287.146 72.7354C286.911 73.6338 286.794 74.8057 286.794 76.251V84H282.956ZM307.756 84.2197C306.662 84.2197 305.749 84.0928 305.017 83.8389C304.294 83.5752 303.728 83.165 303.317 82.6084C302.907 82.0518 302.614 81.3975 302.438 80.6455C302.272 79.8838 302.189 78.9463 302.189 77.833V70.2305H299.553L299.699 68.1504L302.453 67.9014L303.684 63.5361L306.027 63.5215V67.9014H310.026V70.2305H306.027V77.9062C306.027 79.127 306.203 79.9961 306.555 80.5137C306.906 81.0312 307.556 81.29 308.503 81.29C309.06 81.29 309.655 81.2412 310.29 81.1436L310.393 83.8975C310.373 83.8975 310.251 83.9219 310.026 83.9707C309.812 84.0098 309.602 84.0439 309.396 84.0732C309.201 84.1123 308.947 84.1465 308.635 84.1758C308.322 84.2051 308.029 84.2197 307.756 84.2197Z" fill="#333333"/>
<defs>
<linearGradient id="paint0_linear" x1="225" y1="0" x2="225" y2="275" gradientUnits="userSpaceOnUse">
<stop stop-color="#6FCF97"/>
<stop offset="1" stop-color="#F8FFCF" stop-opacity="0.5"/>
</linearGradient>
</defs>
</svg>
