<svg width="450" height="150" viewBox="0 0 450 150" fill="none" xmlns="http://www.w3.org/2000/svg">
<rect x="1" y="1" width="448" height="148" rx="49" fill="url(#paint0_linear)" fill-opacity="0.85" stroke="#E0E0E0" stroke-width="2"/>
<path d="M171.956 86L179.852 64.5254H184.173L191.951 86H187.879L185.755 79.9355H178.24L176.102 86H171.956ZM179.236 76.9766H184.744C182.986 71.3418 182.083 68.4316 182.034 68.2461L179.236 76.9766ZM199.861 86.3076C197.762 86.3076 196.111 85.5361 194.91 83.9932C193.709 82.4502 193.108 80.3896 193.108 77.8115C193.108 75.3115 193.704 73.3047 194.896 71.791C196.097 70.2676 197.747 69.5059 199.847 69.5059C202.132 69.5059 203.748 70.3164 204.695 71.9375C204.598 70.9805 204.549 70.0576 204.549 69.1689V63.9688L208.387 63.7197V86H205.062L204.637 83.8027C204.471 84.0664 204.314 84.2959 204.168 84.4912C204.031 84.6768 203.826 84.8965 203.553 85.1504C203.279 85.3945 202.981 85.5947 202.659 85.751C202.347 85.8975 201.946 86.0244 201.458 86.1318C200.979 86.249 200.447 86.3076 199.861 86.3076ZM200.77 83.3926C203.348 83.3926 204.656 81.6396 204.695 78.1338C204.695 76.1514 204.363 74.7061 203.699 73.7979C203.035 72.8896 202.044 72.4355 200.726 72.4355C199.573 72.4355 198.65 72.8994 197.957 73.8271C197.273 74.7451 196.932 76.1025 196.932 77.8994C196.932 79.6865 197.273 81.0488 197.957 81.9863C198.65 82.9238 199.588 83.3926 200.77 83.3926ZM218.143 86.3076C216.043 86.3076 214.393 85.5361 213.191 83.9932C211.99 82.4502 211.39 80.3896 211.39 77.8115C211.39 75.3115 211.985 73.3047 213.177 71.791C214.378 70.2676 216.028 69.5059 218.128 69.5059C220.413 69.5059 222.029 70.3164 222.977 71.9375C222.879 70.9805 222.83 70.0576 222.83 69.1689V63.9688L226.668 63.7197V86H223.343L222.918 83.8027C222.752 84.0664 222.596 84.2959 222.449 84.4912C222.312 84.6768 222.107 84.8965 221.834 85.1504C221.561 85.3945 221.263 85.5947 220.94 85.751C220.628 85.8975 220.228 86.0244 219.739 86.1318C219.261 86.249 218.729 86.3076 218.143 86.3076ZM219.051 83.3926C221.629 83.3926 222.938 81.6396 222.977 78.1338C222.977 76.1514 222.645 74.7061 221.98 73.7979C221.316 72.8896 220.325 72.4355 219.007 72.4355C217.854 72.4355 216.932 72.8994 216.238 73.8271C215.555 74.7451 215.213 76.1025 215.213 77.8994C215.213 79.6865 215.555 81.0488 216.238 81.9863C216.932 82.9238 217.869 83.3926 219.051 83.3926ZM238.914 86V64.54H243.133C243.895 65.7314 245.442 68.1338 247.776 71.7471C250.11 75.3604 251.531 77.5576 252.039 78.3389C252.186 78.5635 252.435 78.9443 252.786 79.4814C253.147 80.0088 253.401 80.3848 253.548 80.6094C253.479 77.2598 253.445 75.5215 253.445 75.3945V64.54H257.063V86H252.786L243.104 70.9121L242.4 69.7549C242.479 72.333 242.518 74.1445 242.518 75.1895V86H238.914ZM268.753 86.3076C266.165 86.3076 264.148 85.5654 262.703 84.0811C261.268 82.5869 260.55 80.5264 260.55 77.8994C260.55 75.3408 261.229 73.3047 262.586 71.791C263.943 70.2773 265.794 69.5156 268.138 69.5059C270.354 69.5059 272.073 70.1992 273.294 71.5859C274.524 72.9727 275.14 74.8135 275.14 77.1084C275.14 77.2744 275.135 77.543 275.125 77.9141C275.125 78.2852 275.125 78.5586 275.125 78.7344H264.417C264.456 80.2383 264.866 81.4053 265.647 82.2354C266.438 83.0557 267.522 83.4658 268.899 83.4658C270.657 83.4658 272.347 83.0068 273.968 82.0889L274.51 84.8135C272.898 85.8096 270.979 86.3076 268.753 86.3076ZM264.49 76.3174H271.521C271.521 75.0088 271.224 74.0029 270.628 73.2998C270.032 72.5967 269.207 72.2451 268.152 72.2451C267.166 72.2451 266.331 72.5869 265.647 73.2705C264.974 73.9541 264.588 74.9697 264.49 76.3174ZM281.395 86L276.517 69.9014H280.428L283.519 81.708C283.587 81.4834 284.144 79.5645 285.188 75.9512C286.233 72.3379 286.824 70.3213 286.961 69.9014H290.901C291.028 70.3115 291.59 72.3086 292.586 75.8926C293.582 79.4766 294.119 81.4004 294.197 81.6641L297.376 69.9014H301.229L296.189 86H292.366C292.239 85.5801 291.644 83.4561 290.579 79.6279C289.524 75.7998 288.953 73.7344 288.865 73.4316C288.67 74.1445 288.045 76.293 286.99 79.877C285.945 83.4609 285.34 85.502 285.174 86H281.395ZM315.672 82.8213H318.514C320.965 82.8213 322.83 82.1816 324.109 80.9023C325.389 79.6133 326.028 77.7383 326.028 75.2773C326.028 72.6406 325.369 70.7266 324.051 69.5352C322.732 68.334 320.745 67.7334 318.089 67.7334H315.672V82.8213ZM311.702 86V64.54H317.913C319.788 64.54 321.468 64.7549 322.952 65.1846C324.437 65.6143 325.711 66.2637 326.775 67.1328C327.85 67.9922 328.67 69.1055 329.236 70.4727C329.812 71.8301 330.101 73.4023 330.101 75.1895C330.101 78.6562 329.056 81.3271 326.966 83.2021C324.876 85.0674 321.98 86 318.279 86H311.702ZM337.747 86.3076C336.253 86.3076 335.042 85.8975 334.114 85.0771C333.196 84.2471 332.737 83.0557 332.737 81.5029C332.737 79.833 333.284 78.5977 334.378 77.7969C335.472 76.9863 337.122 76.4736 339.329 76.2588C339.632 76.2197 339.959 76.1807 340.311 76.1416C340.662 76.1025 341.058 76.0635 341.497 76.0244C341.937 75.9854 342.283 75.9512 342.537 75.9219V75.0723C342.537 74.0957 342.312 73.3877 341.863 72.9482C341.414 72.499 340.73 72.2744 339.812 72.2744C338.504 72.2744 336.888 72.6406 334.964 73.373C334.954 73.3438 334.793 72.8994 334.48 72.04C334.168 71.1807 334.007 70.7412 333.997 70.7217C335.892 69.9111 337.942 69.5059 340.149 69.5059C342.317 69.5059 343.895 69.9795 344.881 70.9268C345.867 71.8643 346.36 73.3877 346.36 75.4971V86H343.519C343.509 85.9609 343.401 85.6338 343.196 85.0186C342.991 84.4033 342.889 84.0762 342.889 84.0371C342.088 84.8184 341.302 85.3945 340.53 85.7656C339.769 86.127 338.841 86.3076 337.747 86.3076ZM338.787 83.583C339.676 83.583 340.447 83.373 341.102 82.9531C341.766 82.5234 342.239 82.0059 342.522 81.4004V78.2949C342.493 78.2949 342.234 78.3145 341.746 78.3535C341.268 78.3926 341.009 78.4121 340.97 78.4121C339.417 78.5488 338.279 78.8418 337.557 79.291C336.834 79.7402 336.473 80.4629 336.473 81.459C336.473 82.1426 336.673 82.6699 337.073 83.041C337.474 83.4023 338.045 83.583 338.787 83.583ZM356.658 86.2197C355.564 86.2197 354.651 86.0928 353.919 85.8389C353.196 85.5752 352.63 85.165 352.22 84.6084C351.81 84.0518 351.517 83.3975 351.341 82.6455C351.175 81.8838 351.092 80.9463 351.092 79.833V72.2305H348.455L348.602 70.1504L351.355 69.9014L352.586 65.5361L354.93 65.5215V69.9014H358.929V72.2305H354.93V79.9062C354.93 81.127 355.105 81.9961 355.457 82.5137C355.809 83.0312 356.458 83.29 357.405 83.29C357.962 83.29 358.558 83.2412 359.192 83.1436L359.295 85.8975C359.275 85.8975 359.153 85.9219 358.929 85.9707C358.714 86.0098 358.504 86.0439 358.299 86.0732C358.104 86.1123 357.85 86.1465 357.537 86.1758C357.225 86.2051 356.932 86.2197 356.658 86.2197ZM366.224 86.3076C364.729 86.3076 363.519 85.8975 362.591 85.0771C361.673 84.2471 361.214 83.0557 361.214 81.5029C361.214 79.833 361.761 78.5977 362.854 77.7969C363.948 76.9863 365.599 76.4736 367.806 76.2588C368.108 76.2197 368.436 76.1807 368.787 76.1416C369.139 76.1025 369.534 76.0635 369.974 76.0244C370.413 75.9854 370.76 75.9512 371.014 75.9219V75.0723C371.014 74.0957 370.789 73.3877 370.34 72.9482C369.891 72.499 369.207 72.2744 368.289 72.2744C366.98 72.2744 365.364 72.6406 363.44 73.373C363.431 73.3438 363.27 72.8994 362.957 72.04C362.645 71.1807 362.483 70.7412 362.474 70.7217C364.368 69.9111 366.419 69.5059 368.626 69.5059C370.794 69.5059 372.371 69.9795 373.357 70.9268C374.344 71.8643 374.837 73.3877 374.837 75.4971V86H371.995C371.985 85.9609 371.878 85.6338 371.673 85.0186C371.468 84.4033 371.365 84.0762 371.365 84.0371C370.564 84.8184 369.778 85.3945 369.007 85.7656C368.245 86.127 367.317 86.3076 366.224 86.3076ZM367.264 83.583C368.152 83.583 368.924 83.373 369.578 82.9531C370.242 82.5234 370.716 82.0059 370.999 81.4004V78.2949C370.97 78.2949 370.711 78.3145 370.223 78.3535C369.744 78.3926 369.485 78.4121 369.446 78.4121C367.894 78.5488 366.756 78.8418 366.033 79.291C365.311 79.7402 364.949 80.4629 364.949 81.459C364.949 82.1426 365.149 82.6699 365.55 83.041C365.95 83.4023 366.521 83.583 367.264 83.583Z" fill="#333333"/>
<path d="M94 107.083C111.719 107.083 126.083 92.7191 126.083 75C126.083 57.2809 111.719 42.9167 94 42.9167C76.2809 42.9167 61.9167 57.2809 61.9167 75C61.9167 92.7191 76.2809 107.083 94 107.083Z" fill="#4DD0E1"/>
<path d="M94 110C113.3 110 129 94.2996 129 75C129 73.39 127.693 72.0833 126.083 72.0833C124.473 72.0833 123.167 73.39 123.167 75C123.167 91.0825 110.083 104.167 94 104.167C77.9175 104.167 64.8333 91.0825 64.8333 75C64.8333 58.9175 77.9175 45.8333 94 45.8333C101.83 45.8333 109.178 48.8944 114.694 54.4506C115.828 55.594 117.675 55.6013 118.819 54.4667C119.963 53.3321 119.97 51.4858 118.834 50.3425C112.216 43.6735 103.396 40 94 40C74.7004 40 59 55.7004 59 75C59 94.2996 74.7004 110 94 110Z" fill="#012E52"/>
<path d="M94 89.5833C95.61 89.5833 96.9167 88.2767 96.9167 86.6667V77.9167H105.667C107.277 77.9167 108.583 76.61 108.583 75C108.583 73.39 107.277 72.0833 105.667 72.0833H96.9167V63.3333C96.9167 61.7233 95.61 60.4167 94 60.4167C92.39 60.4167 91.0833 61.7233 91.0833 63.3333V72.0833H82.3333C80.7233 72.0833 79.4167 73.39 79.4167 75C79.4167 76.61 80.7233 77.9167 82.3333 77.9167H91.0833V86.6667C91.0833 88.2767 92.39 89.5833 94 89.5833Z" fill="#012E52"/>
<defs>
<linearGradient id="paint0_linear" x1="225" y1="0" x2="225" y2="150" gradientUnits="userSpaceOnUse">
<stop stop-color="#FE646F"/>
<stop offset="1" stop-color="#F2C94C" stop-opacity="0.07"/>
</linearGradient>
</defs>
</svg>
