<svg width="450" height="150" viewBox="0 0 450 150" fill="none" xmlns="http://www.w3.org/2000/svg">
<rect x="1" y="1" width="448" height="148" rx="49" fill="url(#paint0_linear)" fill-opacity="0.85" stroke="#E0E0E0" stroke-width="2"/>
<path d="M94 107.083C111.719 107.083 126.083 92.7191 126.083 75C126.083 57.2809 111.719 42.9167 94 42.9167C76.2809 42.9167 61.9167 57.2809 61.9167 75C61.9167 92.7191 76.2809 107.083 94 107.083Z" fill="#4DD0E1"/>
<path d="M94 110C113.3 110 129 94.2996 129 75C129 73.39 127.693 72.0833 126.083 72.0833C124.473 72.0833 123.167 73.39 123.167 75C123.167 91.0825 110.083 104.167 94 104.167C77.9175 104.167 64.8333 91.0825 64.8333 75C64.8333 58.9175 77.9175 45.8333 94 45.8333C101.83 45.8333 109.178 48.8944 114.694 54.4506C115.828 55.594 117.675 55.6013 118.819 54.4667C119.963 53.3321 119.97 51.4858 118.834 50.3425C112.216 43.6735 103.396 40 94 40C74.7004 40 59 55.7004 59 75C59 94.2996 74.7004 110 94 110Z" fill="#012E52"/>
<path d="M94 89.5833C95.61 89.5833 96.9167 88.2767 96.9167 86.6667V77.9167H105.667C107.277 77.9167 108.583 76.61 108.583 75C108.583 73.39 107.277 72.0833 105.667 72.0833H96.9167V63.3333C96.9167 61.7233 95.61 60.4167 94 60.4167C92.39 60.4167 91.0833 61.7233 91.0833 63.3333V72.0833H82.3333C80.7233 72.0833 79.4167 73.39 79.4167 75C79.4167 76.61 80.7233 77.9167 82.3333 77.9167H91.0833V86.6667C91.0833 88.2767 92.39 89.5833 94 89.5833Z" fill="#012E52"/>
<defs>
<linearGradient id="paint0_linear" x1="225" y1="0" x2="225" y2="150" gradientUnits="userSpaceOnUse">
<stop stop-color="#FE646F"/>
<stop offset="1" stop-color="#F2C94C" stop-opacity="0.07"/>
</linearGradient>
</defs>
</svg>
