<svg width="450" height="150" viewBox="0 0 450 150" fill="none" xmlns="http://www.w3.org/2000/svg">
<rect x="1" y="1" width="448" height="148" rx="49" fill="url(#paint0_linear)" fill-opacity="0.85" stroke="#E0E0E0" stroke-width="2"/>
<path d="M86 107.083C103.719 107.083 118.083 92.7191 118.083 75C118.083 57.2809 103.719 42.9167 86 42.9167C68.2809 42.9167 53.9167 57.2809 53.9167 75C53.9167 92.7191 68.2809 107.083 86 107.083Z" fill="#4DD0E1"/>
<path d="M86 110C105.3 110 121 94.2996 121 75C121 73.39 119.693 72.0833 118.083 72.0833C116.473 72.0833 115.167 73.39 115.167 75C115.167 91.0825 102.083 104.167 86 104.167C69.9175 104.167 56.8333 91.0825 56.8333 75C56.8333 58.9175 69.9175 45.8333 86 45.8333C93.8298 45.8333 101.178 48.8944 106.694 54.4506C107.828 55.594 109.675 55.6013 110.819 54.4667C111.963 53.3321 111.97 51.4858 110.834 50.3425C104.216 43.6735 95.396 40 86 40C66.7004 40 51 55.7004 51 75C51 94.2996 66.7004 110 86 110Z" fill="#012E52"/>
<path d="M86 89.5833C87.61 89.5833 88.9167 88.2767 88.9167 86.6667V77.9167H97.6667C99.2767 77.9167 100.583 76.61 100.583 75C100.583 73.39 99.2767 72.0833 97.6667 72.0833H88.9167V63.3333C88.9167 61.7233 87.61 60.4167 86 60.4167C84.39 60.4167 83.0833 61.7233 83.0833 63.3333V72.0833H74.3333C72.7233 72.0833 71.4167 73.39 71.4167 75C71.4167 76.61 72.7233 77.9167 74.3333 77.9167H83.0833V86.6667C83.0833 88.2767 84.39 89.5833 86 89.5833Z" fill="#012E52"/>
<path d="M144.956 85L152.852 63.5254H157.173L164.951 85H160.879L158.755 78.9355H151.24L149.102 85H144.956ZM152.236 75.9766H157.744C155.986 70.3418 155.083 67.4316 155.034 67.2461L152.236 75.9766ZM172.861 85.3076C170.762 85.3076 169.111 84.5361 167.91 82.9932C166.709 81.4502 166.108 79.3896 166.108 76.8115C166.108 74.3115 166.704 72.3047 167.896 70.791C169.097 69.2676 170.747 68.5059 172.847 68.5059C175.132 68.5059 176.748 69.3164 177.695 70.9375C177.598 69.9805 177.549 69.0576 177.549 68.1689V62.9688L181.387 62.7197V85H178.062L177.637 82.8027C177.471 83.0664 177.314 83.2959 177.168 83.4912C177.031 83.6768 176.826 83.8965 176.553 84.1504C176.279 84.3945 175.981 84.5947 175.659 84.751C175.347 84.8975 174.946 85.0244 174.458 85.1318C173.979 85.249 173.447 85.3076 172.861 85.3076ZM173.77 82.3926C176.348 82.3926 177.656 80.6396 177.695 77.1338C177.695 75.1514 177.363 73.7061 176.699 72.7979C176.035 71.8896 175.044 71.4355 173.726 71.4355C172.573 71.4355 171.65 71.8994 170.957 72.8271C170.273 73.7451 169.932 75.1025 169.932 76.8994C169.932 78.6865 170.273 80.0488 170.957 80.9863C171.65 81.9238 172.588 82.3926 173.77 82.3926ZM191.143 85.3076C189.043 85.3076 187.393 84.5361 186.191 82.9932C184.99 81.4502 184.39 79.3896 184.39 76.8115C184.39 74.3115 184.985 72.3047 186.177 70.791C187.378 69.2676 189.028 68.5059 191.128 68.5059C193.413 68.5059 195.029 69.3164 195.977 70.9375C195.879 69.9805 195.83 69.0576 195.83 68.1689V62.9688L199.668 62.7197V85H196.343L195.918 82.8027C195.752 83.0664 195.596 83.2959 195.449 83.4912C195.312 83.6768 195.107 83.8965 194.834 84.1504C194.561 84.3945 194.263 84.5947 193.94 84.751C193.628 84.8975 193.228 85.0244 192.739 85.1318C192.261 85.249 191.729 85.3076 191.143 85.3076ZM192.051 82.3926C194.629 82.3926 195.938 80.6396 195.977 77.1338C195.977 75.1514 195.645 73.7061 194.98 72.7979C194.316 71.8896 193.325 71.4355 192.007 71.4355C190.854 71.4355 189.932 71.8994 189.238 72.8271C188.555 73.7451 188.213 75.1025 188.213 76.8994C188.213 78.6865 188.555 80.0488 189.238 80.9863C189.932 81.9238 190.869 82.3926 192.051 82.3926ZM211.914 85V63.54H216.133C216.895 64.7314 218.442 67.1338 220.776 70.7471C223.11 74.3604 224.531 76.5576 225.039 77.3389C225.186 77.5635 225.435 77.9443 225.786 78.4814C226.147 79.0088 226.401 79.3848 226.548 79.6094C226.479 76.2598 226.445 74.5215 226.445 74.3945V63.54H230.063V85H225.786L216.104 69.9121L215.4 68.7549C215.479 71.333 215.518 73.1445 215.518 74.1895V85H211.914ZM241.753 85.3076C239.165 85.3076 237.148 84.5654 235.703 83.0811C234.268 81.5869 233.55 79.5264 233.55 76.8994C233.55 74.3408 234.229 72.3047 235.586 70.791C236.943 69.2773 238.794 68.5156 241.138 68.5059C243.354 68.5059 245.073 69.1992 246.294 70.5859C247.524 71.9727 248.14 73.8135 248.14 76.1084C248.14 76.2744 248.135 76.543 248.125 76.9141C248.125 77.2852 248.125 77.5586 248.125 77.7344H237.417C237.456 79.2383 237.866 80.4053 238.647 81.2354C239.438 82.0557 240.522 82.4658 241.899 82.4658C243.657 82.4658 245.347 82.0068 246.968 81.0889L247.51 83.8135C245.898 84.8096 243.979 85.3076 241.753 85.3076ZM237.49 75.3174H244.521C244.521 74.0088 244.224 73.0029 243.628 72.2998C243.032 71.5967 242.207 71.2451 241.152 71.2451C240.166 71.2451 239.331 71.5869 238.647 72.2705C237.974 72.9541 237.588 73.9697 237.49 75.3174ZM254.395 85L249.517 68.9014H253.428L256.519 80.708C256.587 80.4834 257.144 78.5645 258.188 74.9512C259.233 71.3379 259.824 69.3213 259.961 68.9014H263.901C264.028 69.3115 264.59 71.3086 265.586 74.8926C266.582 78.4766 267.119 80.4004 267.197 80.6641L270.376 68.9014H274.229L269.189 85H265.366C265.239 84.5801 264.644 82.4561 263.579 78.6279C262.524 74.7998 261.953 72.7344 261.865 72.4316C261.67 73.1445 261.045 75.293 259.99 78.877C258.945 82.4609 258.34 84.502 258.174 85H254.395ZM288.672 81.8213H291.514C293.965 81.8213 295.83 81.1816 297.109 79.9023C298.389 78.6133 299.028 76.7383 299.028 74.2773C299.028 71.6406 298.369 69.7266 297.051 68.5352C295.732 67.334 293.745 66.7334 291.089 66.7334H288.672V81.8213ZM284.702 85V63.54H290.913C292.788 63.54 294.468 63.7549 295.952 64.1846C297.437 64.6143 298.711 65.2637 299.775 66.1328C300.85 66.9922 301.67 68.1055 302.236 69.4727C302.812 70.8301 303.101 72.4023 303.101 74.1895C303.101 77.6562 302.056 80.3271 299.966 82.2021C297.876 84.0674 294.98 85 291.279 85H284.702ZM310.747 85.3076C309.253 85.3076 308.042 84.8975 307.114 84.0771C306.196 83.2471 305.737 82.0557 305.737 80.5029C305.737 78.833 306.284 77.5977 307.378 76.7969C308.472 75.9863 310.122 75.4736 312.329 75.2588C312.632 75.2197 312.959 75.1807 313.311 75.1416C313.662 75.1025 314.058 75.0635 314.497 75.0244C314.937 74.9854 315.283 74.9512 315.537 74.9219V74.0723C315.537 73.0957 315.312 72.3877 314.863 71.9482C314.414 71.499 313.73 71.2744 312.812 71.2744C311.504 71.2744 309.888 71.6406 307.964 72.373C307.954 72.3438 307.793 71.8994 307.48 71.04C307.168 70.1807 307.007 69.7412 306.997 69.7217C308.892 68.9111 310.942 68.5059 313.149 68.5059C315.317 68.5059 316.895 68.9795 317.881 69.9268C318.867 70.8643 319.36 72.3877 319.36 74.4971V85H316.519C316.509 84.9609 316.401 84.6338 316.196 84.0186C315.991 83.4033 315.889 83.0762 315.889 83.0371C315.088 83.8184 314.302 84.3945 313.53 84.7656C312.769 85.127 311.841 85.3076 310.747 85.3076ZM311.787 82.583C312.676 82.583 313.447 82.373 314.102 81.9531C314.766 81.5234 315.239 81.0059 315.522 80.4004V77.2949C315.493 77.2949 315.234 77.3145 314.746 77.3535C314.268 77.3926 314.009 77.4121 313.97 77.4121C312.417 77.5488 311.279 77.8418 310.557 78.291C309.834 78.7402 309.473 79.4629 309.473 80.459C309.473 81.1426 309.673 81.6699 310.073 82.041C310.474 82.4023 311.045 82.583 311.787 82.583ZM329.658 85.2197C328.564 85.2197 327.651 85.0928 326.919 84.8389C326.196 84.5752 325.63 84.165 325.22 83.6084C324.81 83.0518 324.517 82.3975 324.341 81.6455C324.175 80.8838 324.092 79.9463 324.092 78.833V71.2305H321.455L321.602 69.1504L324.355 68.9014L325.586 64.5361L327.93 64.5215V68.9014H331.929V71.2305H327.93V78.9062C327.93 80.127 328.105 80.9961 328.457 81.5137C328.809 82.0312 329.458 82.29 330.405 82.29C330.962 82.29 331.558 82.2412 332.192 82.1436L332.295 84.8975C332.275 84.8975 332.153 84.9219 331.929 84.9707C331.714 85.0098 331.504 85.0439 331.299 85.0732C331.104 85.1123 330.85 85.1465 330.537 85.1758C330.225 85.2051 329.932 85.2197 329.658 85.2197ZM339.224 85.3076C337.729 85.3076 336.519 84.8975 335.591 84.0771C334.673 83.2471 334.214 82.0557 334.214 80.5029C334.214 78.833 334.761 77.5977 335.854 76.7969C336.948 75.9863 338.599 75.4736 340.806 75.2588C341.108 75.2197 341.436 75.1807 341.787 75.1416C342.139 75.1025 342.534 75.0635 342.974 75.0244C343.413 74.9854 343.76 74.9512 344.014 74.9219V74.0723C344.014 73.0957 343.789 72.3877 343.34 71.9482C342.891 71.499 342.207 71.2744 341.289 71.2744C339.98 71.2744 338.364 71.6406 336.44 72.373C336.431 72.3438 336.27 71.8994 335.957 71.04C335.645 70.1807 335.483 69.7412 335.474 69.7217C337.368 68.9111 339.419 68.5059 341.626 68.5059C343.794 68.5059 345.371 68.9795 346.357 69.9268C347.344 70.8643 347.837 72.3877 347.837 74.4971V85H344.995C344.985 84.9609 344.878 84.6338 344.673 84.0186C344.468 83.4033 344.365 83.0762 344.365 83.0371C343.564 83.8184 342.778 84.3945 342.007 84.7656C341.245 85.127 340.317 85.3076 339.224 85.3076ZM340.264 82.583C341.152 82.583 341.924 82.373 342.578 81.9531C343.242 81.5234 343.716 81.0059 343.999 80.4004V77.2949C343.97 77.2949 343.711 77.3145 343.223 77.3535C342.744 77.3926 342.485 77.4121 342.446 77.4121C340.894 77.5488 339.756 77.8418 339.033 78.291C338.311 78.7402 337.949 79.4629 337.949 80.459C337.949 81.1426 338.149 81.6699 338.55 82.041C338.95 82.4023 339.521 82.583 340.264 82.583Z" fill="black"/>
<defs>
<linearGradient id="paint0_linear" x1="225" y1="0" x2="225" y2="150" gradientUnits="userSpaceOnUse">
<stop stop-color="#FE646F"/>
<stop offset="1" stop-color="#F2C94C" stop-opacity="0.07"/>
</linearGradient>
</defs>
</svg>
