<svg id="Capa_1" enable-background="new 0 0 512 512" height="512" viewBox="0 0 512 512" width="512" xmlns="http://www.w3.org/2000/svg"><g id="XMLID_79_"><path id="XMLID_1639_" d="m399 344c0-30.376-24.624-55-55-55-3.707 0-7.325.372-10.826 1.071-9.384-16.287-26.956-27.259-47.102-27.259-15.517 0-29.504 6.515-39.405 16.946-9.901-10.431-23.888-16.946-39.405-16.946-30.01 0-54.337 24.328-54.337 54.337 0 5.012.692 9.86 1.963 14.468-18.447 8.687-31.22 27.437-31.22 49.178 0 30.01 24.327 54.337 54.337 54.337 13.023 0 24.972-4.586 34.332-12.226 9.359 7.639 21.308 12.226 34.331 12.226s24.972-4.586 34.331-12.226c9.359 7.639 21.308 12.226 34.332 12.226 25.667 0 47.162-17.802 52.85-41.728 18.25-8.949 30.819-27.706 30.819-49.404z" fill="#99ebfa"/><path id="XMLID_1638_" d="m228 114h56v153h-56z" fill="#ccf5fc"/><g id="XMLID_2555_"><path id="XMLID_2556_" d="m502 377.633h-36.783l-35.78-27.38c-17.076-13.067-37.979-20.147-59.481-20.147-26.271 0-51.439 10.561-69.844 29.307l-17.887 18.219s-52.037 0-83.387.001c-16.487 0-29.847 13.366-29.847 29.853s13.365 29.852 29.852 29.852l131.326.002h-71.198-65.151c-27.79 0-54.441-11.041-74.088-30.694l-58.626-58.643c-11.651-11.655-30.531-11.7-42.239-.102-11.784 11.674-11.828 30.704-.099 42.433l65.518 65.518c29.547 29.549 69.621 46.148 111.407 46.148h306.307z" fill="#f0c9bc"/></g><path id="XMLID_1636_" d="m218 10h-208v56h208v38c0 5.523 4.477 10 10 10h56c5.523 0 10-4.477 10-10v-64c0-16.569-13.431-30-30-30z" fill="#e2e9ee"/><path id="XMLID_1635_" d="m294 104c0 5.523-4.477 10-10 10h-56c-5.523 0-10-4.477-10-10v-38h76z" fill="#e2e9ee"/><circle id="XMLID_1629_" cx="84.67" cy="256" fill="#99ebfa" r="32.333"/><circle id="XMLID_1627_" cx="379.333" cy="185.471" fill="#99ebfa" r="32.333"/><g id="XMLID_1384_"><path id="XMLID_1444_" d="m502 492h-306.307c-39.413 0-76.468-15.348-104.336-43.218l-65.519-65.518c-3.778-3.778-5.852-8.801-5.839-14.144.013-5.342 2.109-10.355 5.905-14.115 7.772-7.703 20.393-7.671 28.128.067l58.626 58.643c21.677 21.684 50.501 33.625 81.161 33.625h136.347c5.522 0 10-4.478 10-10s-4.477-10-10-10l-131.326-.002c-10.946 0-19.852-8.906-19.852-19.852 0-10.947 8.903-19.853 19.847-19.854h83.388c2.684 0 5.256-1.079 7.136-2.994l17.888-18.22c16.417-16.722 39.273-26.313 62.708-26.313 19.194 0 38.161 6.424 53.404 18.088l35.78 27.38c1.745 1.335 3.88 2.059 6.077 2.059h36.784c5.522 0 10-4.477 10-10s-4.478-10-10-10h-33.396l-33.09-25.322c-8.767-6.708-18.545-11.984-28.877-15.719-7.714-27.879-33.23-47.591-62.637-47.591-1.979 0-3.963.091-5.939.272-10.473-14.34-26.492-23.761-44.061-25.962v-132.016c5.968-3.465 10-9.911 10-17.294v-64c0-22.056-17.944-40-40-40h-254c-5.522 0-10 4.477-10 10s4.478 10 10 10h254c11.028 0 20 8.972 20 20v16h-127.828c-5.522 0-10 4.477-10 10s4.478 10 10 10h51.828v28c0 7.383 4.032 13.829 10 17.294v132.401c-3.51-.584-7.098-.883-10.738-.883-35.476 0-64.338 28.861-64.338 64.337 0 3.107.227 6.212.676 9.288-18.405 11.694-29.933 32.254-29.933 54.358 0 1.997.101 3.969.28 5.92l-45.769-45.781c-15.496-15.502-40.774-15.564-56.349-.136-7.602 7.532-11.803 17.574-11.829 28.276-.025 10.703 4.129 20.765 11.696 28.333l65.519 65.518c31.646 31.646 73.723 49.075 118.478 49.075h306.307c5.522 0 10-4.477 10-10s-4.477-10-10-10zm-218-388h-56v-28h56zm-46 20h36v129.944c-9.975 1.877-19.292 6.07-27.333 12.342-2.748-2.143-5.646-4.042-8.667-5.692zm-78.853 216.665c4.402-2.073 6.674-7.014 5.381-11.705-1.064-3.859-1.604-7.833-1.604-11.811 0-24.447 19.89-44.337 44.338-44.337 12.269 0 23.687 4.912 32.152 13.83 1.889 1.989 4.511 3.116 7.253 3.116 2.743 0 5.365-1.126 7.253-3.116 8.465-8.918 19.883-13.83 32.151-13.83 15.802 0 30.53 8.526 38.438 22.251 2.142 3.717 6.412 5.655 10.624 4.814 2.915-.582 5.898-.877 8.867-.877 16.197 0 30.689 8.632 38.627 21.874-4.199-.503-8.43-.768-12.672-.768-28.768 0-56.826 11.773-76.979 32.301l-14.948 15.226h-79.191c-21.972 0-39.847 17.879-39.847 39.854 0 5.132.986 10.036 2.761 14.545-16.427-6.498-28.083-22.527-28.083-41.237-.001-17.09 10.001-32.842 25.479-40.13z"/><path id="XMLID_1461_" d="m66.172 56h-56.172c-5.522 0-10 4.477-10 10s4.478 10 10 10h56.172c5.522 0 10-4.477 10-10s-4.478-10-10-10z"/><path id="XMLID_1547_" d="m42.336 256c0 23.343 18.991 42.333 42.334 42.333s42.333-18.991 42.333-42.333-18.99-42.333-42.333-42.333-42.334 18.99-42.334 42.333zm64.667 0c0 12.315-10.019 22.333-22.333 22.333-12.315 0-22.334-10.019-22.334-22.333s10.019-22.333 22.334-22.333c12.314 0 22.333 10.018 22.333 22.333z"/><path id="XMLID_1757_" d="m379.333 227.805c23.343 0 42.334-18.991 42.334-42.333s-18.991-42.333-42.334-42.333-42.333 18.99-42.333 42.332c0 23.343 18.99 42.334 42.333 42.334zm0-64.667c12.315 0 22.334 10.019 22.334 22.333 0 12.315-10.019 22.333-22.334 22.333-12.314 0-22.333-10.019-22.333-22.333s10.019-22.333 22.333-22.333z"/><path id="XMLID_1758_" d="m118.24 73.07c1.859-1.86 2.93-4.44 2.93-7.07s-1.07-5.21-2.93-7.07-4.44-2.93-7.07-2.93-5.21 1.07-7.07 2.93c-1.859 1.86-2.93 4.44-2.93 7.07s1.07 5.21 2.93 7.07 4.44 2.93 7.07 2.93 5.21-1.07 7.07-2.93z"/></g></g></svg>