<svg width="251" height="51" viewBox="0 0 251 51" fill="none" xmlns="http://www.w3.org/2000/svg">
<path d="M0 25.5C0 11.4167 11.4167 0 25.5 0H225.5C239.583 0 251 11.4167 251 25.5V25.5C251 39.5833 239.583 51 225.5 51H25.5C11.4167 51 0 39.5833 0 25.5V25.5Z" fill="#5DB075"/>
<path d="M105.565 22.5625H107.594C107.554 20.5966 105.878 19.2045 103.401 19.2045C100.957 19.2045 99.1222 20.5795 99.1278 22.6364C99.1278 24.3068 100.315 25.267 102.23 25.7614L103.554 26.1023C104.81 26.4205 105.639 26.8125 105.645 27.7159C105.639 28.7102 104.696 29.375 103.321 29.375C102.003 29.375 100.98 28.7841 100.895 27.5625H98.821C98.9062 29.875 100.628 31.1761 103.338 31.1761C106.128 31.1761 107.747 29.7841 107.753 27.733C107.747 25.7159 106.082 24.7955 104.332 24.3807L103.241 24.108C102.287 23.8807 101.253 23.4773 101.264 22.5057C101.27 21.6307 102.054 20.9886 103.372 20.9886C104.628 20.9886 105.457 21.5739 105.565 22.5625ZM115.104 27.3295C115.104 28.6591 114.155 29.3182 113.246 29.3182C112.257 29.3182 111.598 28.6193 111.598 27.5114V22.2727H109.541V27.8295C109.541 29.9261 110.734 31.1136 112.45 31.1136C113.757 31.1136 114.678 30.4261 115.075 29.4489H115.166V31H117.161V22.2727H115.104V27.3295ZM119.366 31H121.389V29.625H121.509C121.832 30.2614 122.509 31.1534 124.009 31.1534C126.065 31.1534 127.605 29.5227 127.605 26.6477C127.605 23.7386 126.02 22.1591 124.003 22.1591C122.463 22.1591 121.821 23.0852 121.509 23.7159H121.423V19.3636H119.366V31ZM121.384 26.6364C121.384 24.9432 122.111 23.8466 123.435 23.8466C124.804 23.8466 125.509 25.0114 125.509 26.6364C125.509 28.2727 124.793 29.4659 123.435 29.4659C122.122 29.4659 121.384 28.3295 121.384 26.6364ZM129.354 31H131.411V25.6932C131.411 24.6193 132.126 23.892 133.013 23.892C133.882 23.892 134.479 24.4773 134.479 25.375V31H136.496V25.5568C136.496 24.5739 137.081 23.892 138.075 23.892C138.905 23.892 139.564 24.3807 139.564 25.4602V31H141.626V25.142C141.626 23.1932 140.501 22.1591 138.899 22.1591C137.632 22.1591 136.666 22.7841 136.28 23.7557H136.189C135.854 22.767 135.007 22.1591 133.831 22.1591C132.661 22.1591 131.786 22.7614 131.422 23.7557H131.32V22.2727H129.354V31ZM143.713 31H145.77V22.2727H143.713V31ZM144.747 21.0341C145.401 21.0341 145.935 20.5341 145.935 19.9205C145.935 19.3011 145.401 18.8011 144.747 18.8011C144.088 18.8011 143.554 19.3011 143.554 19.9205C143.554 20.5341 144.088 21.0341 144.747 21.0341ZM152.243 22.2727H150.521V20.1818H148.464V22.2727H147.226V23.8636H148.464V28.7159C148.453 30.358 149.646 31.1648 151.192 31.1193C151.777 31.1023 152.18 30.9886 152.402 30.9148L152.055 29.3068C151.942 29.3352 151.709 29.3864 151.453 29.3864C150.936 29.3864 150.521 29.2045 150.521 28.375V23.8636H152.243V22.2727Z" fill="white"/>
</svg>
