<svg width="450" height="150" viewBox="0 0 450 150" fill="none" xmlns="http://www.w3.org/2000/svg">
<rect x="1" y="1" width="448" height="148" rx="49" fill="url(#paint0_linear)" fill-opacity="0.85" stroke="#E0E0E0" stroke-width="2"/>
<path d="M105.551 87.0313C105.551 82.8783 102.184 79.5117 98.0313 79.5117C97.5245 79.5117 97.0298 79.5626 96.5512 79.6582C95.2682 77.4314 92.8658 75.9314 90.1114 75.9314C87.99 75.9314 86.0777 76.8221 84.724 78.2482C83.3704 76.8221 81.4581 75.9314 79.3366 75.9314C75.2337 75.9314 71.9078 79.2574 71.9078 83.3602C71.9078 84.0455 72.0024 84.7083 72.1761 85.3383C69.6541 86.526 67.9078 89.0894 67.9078 92.0618C67.9078 96.1648 71.2337 99.4907 75.3367 99.4907C77.1171 99.4907 78.7508 98.8637 80.0305 97.8192C81.31 98.8636 82.9437 99.4907 84.7242 99.4907C86.5047 99.4907 88.1383 98.8637 89.4179 97.8192C90.6974 98.8636 92.3311 99.4907 94.1117 99.4907C97.6209 99.4907 100.56 97.0569 101.337 93.7857C103.832 92.5622 105.551 89.9978 105.551 87.0313Z" fill="#99EBFA"/>
<path d="M82.1719 55.5859H89.8282V76.5039H82.1719V55.5859Z" fill="#CCF5FC"/>
<path d="M119.633 91.6295H114.604L109.712 87.8861C107.378 86.0996 104.52 85.1317 101.58 85.1317C97.9882 85.1317 94.5473 86.5756 92.031 89.1385L89.5855 91.6294C89.5855 91.6294 82.4711 91.6294 78.1849 91.6295C75.9308 91.6295 74.1043 93.4569 74.1043 95.711C74.1043 97.965 75.9315 99.7923 78.1856 99.7923L96.1403 99.7926H86.4062H77.4989C73.6995 99.7926 70.0558 98.2831 67.3697 95.5961L59.3544 87.5785C57.7615 85.9851 55.1802 85.9789 53.5795 87.5646C51.9684 89.1606 51.9624 91.7624 53.566 93.366L62.5235 102.324C66.5632 106.363 72.042 108.633 77.7549 108.633H119.633V91.6295Z" fill="#F0C9BC"/>
<path d="M80.8047 41.3672H52.3672V49.0234H80.8047V54.2187C80.8047 54.9738 81.4168 55.5859 82.1719 55.5859H89.8282C90.5833 55.5859 91.1954 54.9738 91.1954 54.2187V45.4687C91.1954 43.2035 89.3591 41.3672 87.0938 41.3672H80.8047Z" fill="#E2E9EE"/>
<path d="M91.1954 54.2187C91.1954 54.9738 90.5833 55.5859 89.8282 55.5859H82.1719C81.4168 55.5859 80.8047 54.9738 80.8047 54.2187V49.0234H91.1954V54.2187Z" fill="#E2E9EE"/>
<path d="M62.576 79.4206C65.0174 79.4206 66.9965 77.4414 66.9965 75C66.9965 72.5586 65.0174 70.5795 62.576 70.5795C60.1346 70.5795 58.1555 72.5586 58.1555 75C58.1555 77.4414 60.1346 79.4206 62.576 79.4206Z" fill="#99EBFA"/>
<path d="M102.862 69.7779C105.303 69.7779 107.283 67.7987 107.283 65.3574C107.283 62.916 105.303 60.9368 102.862 60.9368C100.421 60.9368 98.4415 62.916 98.4415 65.3574C98.4415 67.7987 100.421 69.7779 102.862 69.7779Z" fill="#99EBFA"/>
<path d="M119.633 107.266H77.7549C72.3664 107.266 67.3003 105.167 63.4902 101.357L54.5326 92.3994C54.016 91.8829 53.7325 91.1961 53.7343 90.4656C53.736 89.7353 54.0226 89.0499 54.5416 88.5358C55.6042 87.4827 57.3297 87.4871 58.3872 88.545L66.4025 96.5626C69.3661 99.5272 73.3069 101.16 77.4987 101.16H96.1399C96.8948 101.16 97.5071 100.548 97.5071 99.7926C97.5071 99.0376 96.895 98.4254 96.1399 98.4254L78.1852 98.4251C76.6886 98.4251 75.471 97.2075 75.471 95.711C75.471 94.2143 76.6882 92.9967 78.1845 92.9966H89.5852C89.9521 92.9966 90.3038 92.849 90.5608 92.5872L93.0064 90.0962C95.2509 87.81 98.3758 86.4987 101.58 86.4987C104.204 86.4987 106.797 87.377 108.881 88.9717L113.773 92.7151C114.011 92.8976 114.303 92.9966 114.604 92.9966H119.633C120.388 92.9966 121 92.3845 121 91.6294C121 90.8743 120.388 90.2622 119.633 90.2622H115.067L110.543 86.8002C109.344 85.8831 108.007 85.1618 106.595 84.6511C105.54 80.8395 102.052 78.1445 98.0313 78.1445C97.7607 78.1445 97.4894 78.157 97.2193 78.1817C95.7874 76.2212 93.5973 74.9331 91.1953 74.6322V56.5832C92.0113 56.1094 92.5625 55.2281 92.5625 54.2188V45.4688C92.5625 42.4533 90.1092 40 87.0938 40H52.3672C51.6122 40 51 40.6121 51 41.3672C51 42.1223 51.6122 42.7344 52.3672 42.7344H87.0938C88.6015 42.7344 89.8281 43.961 89.8281 45.4688V47.6562H72.3517C71.5967 47.6562 70.9845 48.2683 70.9845 49.0234C70.9845 49.7785 71.5967 50.3906 72.3517 50.3906H79.4375V54.2188C79.4375 55.2281 79.9888 56.1094 80.8047 56.5832V74.6849C80.3248 74.605 79.8343 74.5641 79.3366 74.5641C74.4864 74.5641 70.5404 78.51 70.5404 83.3602C70.5404 83.785 70.5714 84.2095 70.6328 84.6301C68.1165 86.2288 66.5404 89.0398 66.5404 92.0618C66.5404 92.3348 66.5542 92.6045 66.5787 92.8712L60.3212 86.6121C58.2026 84.4927 54.7467 84.4842 52.6173 86.5935C51.5779 87.6232 51.0036 88.9962 51 90.4593C50.9966 91.9226 51.5645 93.2983 52.5991 94.333L61.5568 103.291C65.8834 107.617 71.6361 110 77.7549 110H119.633C120.388 110 121 109.388 121 108.633C121 107.878 120.388 107.266 119.633 107.266ZM89.8281 54.2188H82.1719V50.3906H89.8281V54.2188ZM83.5391 56.9531H88.4609V74.7189C87.0972 74.9755 85.8234 75.5488 84.724 76.4063C84.3483 76.1133 83.9521 75.8537 83.5391 75.6281V56.9531ZM72.7584 86.5753C73.3602 86.2919 73.6708 85.6163 73.4941 84.975C73.3486 84.4474 73.2748 83.9041 73.2748 83.3602C73.2748 80.0178 75.9941 77.2985 79.3366 77.2985C81.014 77.2985 82.5751 77.9701 83.7324 79.1893C83.9907 79.4613 84.3491 79.6154 84.724 79.6154C85.099 79.6154 85.4575 79.4614 85.7156 79.1893C86.873 77.9701 88.434 77.2985 90.1113 77.2985C92.2717 77.2985 94.2853 78.4642 95.3665 80.3406C95.6593 80.8488 96.2431 81.1138 96.819 80.9988C97.2175 80.9192 97.6253 80.8789 98.0313 80.8789C100.246 80.8789 102.227 82.0591 103.312 83.8695C102.738 83.8007 102.16 83.7645 101.58 83.7645C97.6467 83.7645 93.8106 85.3741 91.0553 88.1806L89.0117 90.2623H78.1848C75.1808 90.2623 72.7369 92.7067 72.7369 95.7111C72.7369 96.4128 72.8717 97.0832 73.1144 97.6997C70.8685 96.8113 69.2749 94.6198 69.2749 92.0618C69.2748 89.7253 70.6423 87.5717 72.7584 86.5753Z" fill="black"/>
<path d="M60.047 47.6562H52.3672C51.6123 47.6562 51.0001 48.2683 51.0001 49.0234C51.0001 49.7785 51.6123 50.3906 52.3672 50.3906H60.047C60.802 50.3906 61.4142 49.7785 61.4142 49.0234C61.4142 48.2683 60.802 47.6562 60.047 47.6562Z" fill="black"/>
<path d="M56.7882 75C56.7882 78.1915 59.3846 80.7878 62.5761 80.7878C65.7675 80.7878 68.3638 78.1913 68.3638 75C68.3638 71.8088 65.7675 69.2123 62.5761 69.2123C59.3846 69.2123 56.7882 71.8086 56.7882 75ZM65.6294 75C65.6294 76.6837 64.2596 78.0534 62.5761 78.0534C60.8924 78.0534 59.5226 76.6836 59.5226 75C59.5226 73.3165 60.8924 71.9467 62.5761 71.9467C64.2596 71.9467 65.6294 73.3163 65.6294 75Z" fill="black"/>
<path d="M102.862 71.1452C106.053 71.1452 108.65 68.5488 108.65 65.3575C108.65 62.1662 106.053 59.5698 102.862 59.5698C99.6706 59.5698 97.0743 62.1661 97.0743 65.3574C97.0743 68.5488 99.6706 71.1452 102.862 71.1452ZM102.862 62.304C104.546 62.304 105.915 63.6738 105.915 65.3574C105.915 67.0411 104.546 68.4107 102.862 68.4107C101.178 68.4107 99.8087 67.0409 99.8087 65.3574C99.8087 63.6738 101.178 62.304 102.862 62.304Z" fill="black"/>
<path d="M67.1657 49.99C67.4198 49.7357 67.5663 49.383 67.5663 49.0234C67.5663 48.6639 67.42 48.3111 67.1657 48.0568C66.9114 47.8025 66.5586 47.6562 66.1991 47.6562C65.8395 47.6562 65.4868 47.8025 65.2325 48.0568C64.9783 48.3111 64.8319 48.6639 64.8319 49.0234C64.8319 49.383 64.9782 49.7357 65.2325 49.99C65.4868 50.2443 65.8395 50.3906 66.1991 50.3906C66.5586 50.3906 66.9114 50.2443 67.1657 49.99Z" fill="black"/>
<path d="M147.314 87V65.54H151.284V74.3145H160.981V65.54H164.951V87H160.981V77.4492H151.284V87H147.314ZM173.462 87.3076C171.968 87.3076 170.757 86.8975 169.829 86.0771C168.911 85.2471 168.452 84.0557 168.452 82.5029C168.452 80.833 168.999 79.5977 170.093 78.7969C171.187 77.9863 172.837 77.4736 175.044 77.2588C175.347 77.2197 175.674 77.1807 176.025 77.1416C176.377 77.1025 176.772 77.0635 177.212 77.0244C177.651 76.9854 177.998 76.9512 178.252 76.9219V76.0723C178.252 75.0957 178.027 74.3877 177.578 73.9482C177.129 73.499 176.445 73.2744 175.527 73.2744C174.219 73.2744 172.603 73.6406 170.679 74.373C170.669 74.3438 170.508 73.8994 170.195 73.04C169.883 72.1807 169.722 71.7412 169.712 71.7217C171.606 70.9111 173.657 70.5059 175.864 70.5059C178.032 70.5059 179.609 70.9795 180.596 71.9268C181.582 72.8643 182.075 74.3877 182.075 76.4971V87H179.233C179.224 86.9609 179.116 86.6338 178.911 86.0186C178.706 85.4033 178.604 85.0762 178.604 85.0371C177.803 85.8184 177.017 86.3945 176.245 86.7656C175.483 87.127 174.556 87.3076 173.462 87.3076ZM174.502 84.583C175.391 84.583 176.162 84.373 176.816 83.9531C177.48 83.5234 177.954 83.0059 178.237 82.4004V79.2949C178.208 79.2949 177.949 79.3145 177.461 79.3535C176.982 79.3926 176.724 79.4121 176.685 79.4121C175.132 79.5488 173.994 79.8418 173.271 80.291C172.549 80.7402 172.188 81.4629 172.188 82.459C172.188 83.1426 172.388 83.6699 172.788 84.041C173.188 84.4023 173.76 84.583 174.502 84.583ZM185.942 87V70.9014H189.033L189.458 72.9375C191.099 71.3164 192.92 70.5059 194.922 70.5059C196.797 70.5059 198.198 71.0479 199.126 72.1318C200.063 73.2061 200.532 74.7686 200.532 76.8193V87H196.68V77.2881C196.67 75.9893 196.46 75.0176 196.05 74.373C195.64 73.7285 194.902 73.4062 193.838 73.4062C193.008 73.4062 192.246 73.6211 191.553 74.0508C190.869 74.4707 190.371 75.0029 190.059 75.6475C189.873 76.4092 189.78 77.5811 189.78 79.1631V87H185.942ZM210.303 87.3076C208.203 87.3076 206.553 86.5361 205.352 84.9932C204.15 83.4502 203.55 81.3896 203.55 78.8115C203.55 76.3115 204.146 74.3047 205.337 72.791C206.538 71.2676 208.188 70.5059 210.288 70.5059C212.573 70.5059 214.189 71.3164 215.137 72.9375C215.039 71.9805 214.99 71.0576 214.99 70.1689V64.9688L218.828 64.7197V87H215.503L215.078 84.8027C214.912 85.0664 214.756 85.2959 214.609 85.4912C214.473 85.6768 214.268 85.8965 213.994 86.1504C213.721 86.3945 213.423 86.5947 213.101 86.751C212.788 86.8975 212.388 87.0244 211.899 87.1318C211.421 87.249 210.889 87.3076 210.303 87.3076ZM211.211 84.3926C213.789 84.3926 215.098 82.6396 215.137 79.1338C215.137 77.1514 214.805 75.7061 214.141 74.7979C213.477 73.8896 212.485 73.4355 211.167 73.4355C210.015 73.4355 209.092 73.8994 208.398 74.8271C207.715 75.7451 207.373 77.1025 207.373 78.8994C207.373 80.6865 207.715 82.0488 208.398 82.9863C209.092 83.9238 210.029 84.3926 211.211 84.3926ZM225.889 87L221.011 70.9014H224.922L228.013 82.708C228.081 82.4834 228.638 80.5645 229.683 76.9512C230.728 73.3379 231.318 71.3213 231.455 70.9014H235.396C235.522 71.3115 236.084 73.3086 237.08 76.8926C238.076 80.4766 238.613 82.4004 238.691 82.6641L241.87 70.9014H245.723L240.684 87H236.86C236.733 86.5801 236.138 84.4561 235.073 80.6279C234.019 76.7998 233.447 74.7344 233.359 74.4316C233.164 75.1445 232.539 77.293 231.484 80.877C230.439 84.4609 229.834 86.502 229.668 87H225.889ZM252.036 87.3076C250.542 87.3076 249.331 86.8975 248.403 86.0771C247.485 85.2471 247.026 84.0557 247.026 82.5029C247.026 80.833 247.573 79.5977 248.667 78.7969C249.761 77.9863 251.411 77.4736 253.618 77.2588C253.921 77.2197 254.248 77.1807 254.6 77.1416C254.951 77.1025 255.347 77.0635 255.786 77.0244C256.226 76.9854 256.572 76.9512 256.826 76.9219V76.0723C256.826 75.0957 256.602 74.3877 256.152 73.9482C255.703 73.499 255.02 73.2744 254.102 73.2744C252.793 73.2744 251.177 73.6406 249.253 74.373C249.243 74.3438 249.082 73.8994 248.77 73.04C248.457 72.1807 248.296 71.7412 248.286 71.7217C250.181 70.9111 252.231 70.5059 254.438 70.5059C256.606 70.5059 258.184 70.9795 259.17 71.9268C260.156 72.8643 260.649 74.3877 260.649 76.4971V87H257.808C257.798 86.9609 257.69 86.6338 257.485 86.0186C257.28 85.4033 257.178 85.0762 257.178 85.0371C256.377 85.8184 255.591 86.3945 254.819 86.7656C254.058 87.127 253.13 87.3076 252.036 87.3076ZM253.076 84.583C253.965 84.583 254.736 84.373 255.391 83.9531C256.055 83.5234 256.528 83.0059 256.812 82.4004V79.2949C256.782 79.2949 256.523 79.3145 256.035 79.3535C255.557 79.3926 255.298 79.4121 255.259 79.4121C253.706 79.5488 252.568 79.8418 251.846 80.291C251.123 80.7402 250.762 81.4629 250.762 82.459C250.762 83.1426 250.962 83.6699 251.362 84.041C251.763 84.4023 252.334 84.583 253.076 84.583ZM269.658 87.293C267.285 87.293 265.386 86.8877 263.96 86.0771L264.355 83.1914C265 83.543 265.82 83.8604 266.816 84.1436C267.812 84.417 268.721 84.5537 269.541 84.5537C270.391 84.5537 271.05 84.3975 271.519 84.085C271.997 83.7627 272.241 83.2939 272.251 82.6787C272.251 82.1221 272.026 81.6826 271.577 81.3604C271.138 81.0381 270.293 80.6377 269.043 80.1592C268.613 80.0029 268.335 79.9004 268.208 79.8516C266.724 79.2754 265.654 78.6357 265 77.9326C264.346 77.2197 264.019 76.2578 264.019 75.0469C264.019 73.582 264.546 72.459 265.601 71.6777C266.665 70.8965 268.145 70.5059 270.039 70.5059C272.09 70.5059 273.892 70.8916 275.444 71.6631L274.492 74.3145C272.959 73.6016 271.499 73.2451 270.112 73.2451C269.341 73.2451 268.735 73.377 268.296 73.6406C267.866 73.8945 267.651 74.2852 267.651 74.8125C267.651 75.3105 267.861 75.7012 268.281 75.9844C268.701 76.2578 269.521 76.6191 270.742 77.0684C270.781 77.0781 270.908 77.1221 271.123 77.2002C271.338 77.2783 271.504 77.3418 271.621 77.3906C273.096 77.9277 274.18 78.5723 274.873 79.3242C275.566 80.0664 275.913 81.0381 275.913 82.2393C275.903 83.8506 275.356 85.0957 274.272 85.9746C273.188 86.8535 271.65 87.293 269.658 87.293ZM278.96 87V64.9688L282.798 64.7197V69.3633C282.798 69.5879 282.783 70.2129 282.754 71.2383C282.725 72.2539 282.71 72.7715 282.71 72.791C283.989 71.2676 285.708 70.5059 287.866 70.5059C289.663 70.5059 291.055 71.0234 292.041 72.0586C293.037 73.084 293.535 74.666 293.535 76.8047V87H289.697V77.2295C289.697 75.9111 289.487 74.9443 289.067 74.3291C288.647 73.7139 287.935 73.4062 286.929 73.4062C286.069 73.4062 285.308 73.626 284.644 74.0654C283.979 74.4951 283.481 75.0518 283.149 75.7354C282.915 76.6338 282.798 77.8057 282.798 79.251V87H278.96ZM297.417 87V70.9014H301.255V87H297.417ZM297.417 68.5576V65.2764H301.27V68.5576H297.417ZM305.269 87V70.9014H308.359L308.784 72.9375C310.425 71.3164 312.246 70.5059 314.248 70.5059C316.123 70.5059 317.524 71.0479 318.452 72.1318C319.39 73.2061 319.858 74.7686 319.858 76.8193V87H316.006V77.2881C315.996 75.9893 315.786 75.0176 315.376 74.373C314.966 73.7285 314.229 73.4062 313.164 73.4062C312.334 73.4062 311.572 73.6211 310.879 74.0508C310.195 74.4707 309.697 75.0029 309.385 75.6475C309.199 76.4092 309.106 77.5811 309.106 79.1631V87H305.269ZM326.86 94.207L326.641 91.1016H328.589C330.845 91.1016 332.422 90.7988 333.32 90.1934C334.219 89.5977 334.668 88.499 334.668 86.8975C334.668 86.2432 334.639 85.5352 334.58 84.7734C334.326 85.125 334.082 85.418 333.848 85.6523C333.623 85.877 333.335 86.1016 332.983 86.3262C332.642 86.5508 332.227 86.7217 331.738 86.8389C331.26 86.9463 330.713 87 330.098 87C327.969 87 326.216 86.2334 324.839 84.7002C323.472 83.167 322.788 81.1895 322.788 78.7676C322.788 77.4785 322.979 76.3066 323.359 75.252C323.74 74.1875 324.258 73.3135 324.912 72.6299C325.566 71.9463 326.318 71.4238 327.168 71.0625C328.027 70.6914 328.94 70.5059 329.907 70.5059C332.065 70.5059 333.672 71.292 334.727 72.8643L334.99 70.9014H338.418V85.8574C338.418 86.6582 338.379 87.376 338.301 88.0107C338.223 88.6553 338.086 89.2705 337.891 89.8564C337.695 90.4521 337.437 90.9697 337.114 91.4092C336.802 91.8486 336.406 92.249 335.928 92.6104C335.449 92.9717 334.883 93.2646 334.229 93.4893C333.584 93.7236 332.832 93.8994 331.973 94.0166C331.113 94.1436 330.146 94.207 329.072 94.207H326.86ZM330.713 84.3193C333.359 84.3193 334.697 82.5469 334.727 79.002V78.4453C334.707 76.8535 334.375 75.623 333.73 74.7539C333.086 73.8848 332.144 73.4453 330.903 73.4355C329.497 73.4355 328.433 73.9189 327.71 74.8857C326.987 75.8428 326.626 77.1367 326.626 78.7676C326.626 80.3398 326.987 81.6582 327.71 82.7227C328.442 83.7871 329.443 84.3193 330.713 84.3193ZM354.502 83.8213H357.344C359.795 83.8213 361.66 83.1816 362.939 81.9023C364.219 80.6133 364.858 78.7383 364.858 76.2773C364.858 73.6406 364.199 71.7266 362.881 70.5352C361.562 69.334 359.575 68.7334 356.919 68.7334H354.502V83.8213ZM350.532 87V65.54H356.743C358.618 65.54 360.298 65.7549 361.782 66.1846C363.267 66.6143 364.541 67.2637 365.605 68.1328C366.68 68.9922 367.5 70.1055 368.066 71.4727C368.643 72.8301 368.931 74.4023 368.931 76.1895C368.931 79.6562 367.886 82.3271 365.796 84.2021C363.706 86.0674 360.811 87 357.109 87H350.532ZM376.577 87.3076C375.083 87.3076 373.872 86.8975 372.944 86.0771C372.026 85.2471 371.567 84.0557 371.567 82.5029C371.567 80.833 372.114 79.5977 373.208 78.7969C374.302 77.9863 375.952 77.4736 378.159 77.2588C378.462 77.2197 378.789 77.1807 379.141 77.1416C379.492 77.1025 379.888 77.0635 380.327 77.0244C380.767 76.9854 381.113 76.9512 381.367 76.9219V76.0723C381.367 75.0957 381.143 74.3877 380.693 73.9482C380.244 73.499 379.561 73.2744 378.643 73.2744C377.334 73.2744 375.718 73.6406 373.794 74.373C373.784 74.3438 373.623 73.8994 373.311 73.04C372.998 72.1807 372.837 71.7412 372.827 71.7217C374.722 70.9111 376.772 70.5059 378.979 70.5059C381.147 70.5059 382.725 70.9795 383.711 71.9268C384.697 72.8643 385.19 74.3877 385.19 76.4971V87H382.349C382.339 86.9609 382.231 86.6338 382.026 86.0186C381.821 85.4033 381.719 85.0762 381.719 85.0371C380.918 85.8184 380.132 86.3945 379.36 86.7656C378.599 87.127 377.671 87.3076 376.577 87.3076ZM377.617 84.583C378.506 84.583 379.277 84.373 379.932 83.9531C380.596 83.5234 381.069 83.0059 381.353 82.4004V79.2949C381.323 79.2949 381.064 79.3145 380.576 79.3535C380.098 79.3926 379.839 79.4121 379.8 79.4121C378.247 79.5488 377.109 79.8418 376.387 80.291C375.664 80.7402 375.303 81.4629 375.303 82.459C375.303 83.1426 375.503 83.6699 375.903 84.041C376.304 84.4023 376.875 84.583 377.617 84.583ZM395.488 87.2197C394.395 87.2197 393.481 87.0928 392.749 86.8389C392.026 86.5752 391.46 86.165 391.05 85.6084C390.64 85.0518 390.347 84.3975 390.171 83.6455C390.005 82.8838 389.922 81.9463 389.922 80.833V73.2305H387.285L387.432 71.1504L390.186 70.9014L391.416 66.5361L393.76 66.5215V70.9014H397.759V73.2305H393.76V80.9062C393.76 82.127 393.936 82.9961 394.287 83.5137C394.639 84.0312 395.288 84.29 396.235 84.29C396.792 84.29 397.388 84.2412 398.022 84.1436L398.125 86.8975C398.105 86.8975 397.983 86.9219 397.759 86.9707C397.544 87.0098 397.334 87.0439 397.129 87.0732C396.934 87.1123 396.68 87.1465 396.367 87.1758C396.055 87.2051 395.762 87.2197 395.488 87.2197ZM405.054 87.3076C403.56 87.3076 402.349 86.8975 401.421 86.0771C400.503 85.2471 400.044 84.0557 400.044 82.5029C400.044 80.833 400.591 79.5977 401.685 78.7969C402.778 77.9863 404.429 77.4736 406.636 77.2588C406.938 77.2197 407.266 77.1807 407.617 77.1416C407.969 77.1025 408.364 77.0635 408.804 77.0244C409.243 76.9854 409.59 76.9512 409.844 76.9219V76.0723C409.844 75.0957 409.619 74.3877 409.17 73.9482C408.721 73.499 408.037 73.2744 407.119 73.2744C405.811 73.2744 404.194 73.6406 402.271 74.373C402.261 74.3438 402.1 73.8994 401.787 73.04C401.475 72.1807 401.313 71.7412 401.304 71.7217C403.198 70.9111 405.249 70.5059 407.456 70.5059C409.624 70.5059 411.201 70.9795 412.188 71.9268C413.174 72.8643 413.667 74.3877 413.667 76.4971V87H410.825C410.815 86.9609 410.708 86.6338 410.503 86.0186C410.298 85.4033 410.195 85.0762 410.195 85.0371C409.395 85.8184 408.608 86.3945 407.837 86.7656C407.075 87.127 406.147 87.3076 405.054 87.3076ZM406.094 84.583C406.982 84.583 407.754 84.373 408.408 83.9531C409.072 83.5234 409.546 83.0059 409.829 82.4004V79.2949C409.8 79.2949 409.541 79.3145 409.053 79.3535C408.574 79.3926 408.315 79.4121 408.276 79.4121C406.724 79.5488 405.586 79.8418 404.863 80.291C404.141 80.7402 403.779 81.4629 403.779 82.459C403.779 83.1426 403.979 83.6699 404.38 84.041C404.78 84.4023 405.352 84.583 406.094 84.583Z" fill="black"/>
<defs>
<linearGradient id="paint0_linear" x1="225" y1="0" x2="225" y2="150" gradientUnits="userSpaceOnUse">
<stop stop-color="#2F80ED"/>
<stop offset="1" stop-color="#56CCF2" stop-opacity="0.34"/>
</linearGradient>
</defs>
</svg>
