<svg width="450" height="150" viewBox="0 0 450 150" fill="none" xmlns="http://www.w3.org/2000/svg">
<rect x="1" y="1" width="448" height="148" rx="49" fill="url(#paint0_linear)" fill-opacity="0.85" stroke="#E0E0E0" stroke-width="2"/>
<path d="M113.551 87.0313C113.551 82.8783 110.184 79.5117 106.031 79.5117C105.524 79.5117 105.03 79.5626 104.551 79.6582C103.268 77.4314 100.866 75.9314 98.1114 75.9314C95.99 75.9314 94.0777 76.8221 92.724 78.2482C91.3704 76.8221 89.4581 75.9314 87.3366 75.9314C83.2337 75.9314 79.9078 79.2574 79.9078 83.3602C79.9078 84.0455 80.0024 84.7083 80.1761 85.3383C77.6541 86.526 75.9078 89.0894 75.9078 92.0618C75.9078 96.1648 79.2337 99.4907 83.3367 99.4907C85.1171 99.4907 86.7508 98.8637 88.0305 97.8192C89.31 98.8636 90.9437 99.4907 92.7242 99.4907C94.5047 99.4907 96.1383 98.8637 97.4179 97.8192C98.6974 98.8636 100.331 99.4907 102.112 99.4907C105.621 99.4907 108.56 97.0569 109.337 93.7857C111.832 92.5622 113.551 89.9978 113.551 87.0313Z" fill="#99EBFA"/>
<path d="M90.1719 55.5859H97.8282V76.5039H90.1719V55.5859Z" fill="#CCF5FC"/>
<path d="M127.633 91.6295H122.604L117.712 87.8861C115.378 86.0996 112.52 85.1317 109.58 85.1317C105.988 85.1317 102.547 86.5756 100.031 89.1385L97.5855 91.6294C97.5855 91.6294 90.4711 91.6294 86.1849 91.6295C83.9308 91.6295 82.1043 93.4569 82.1043 95.711C82.1043 97.965 83.9315 99.7923 86.1856 99.7923L104.14 99.7926H94.4062H85.4989C81.6995 99.7926 78.0558 98.2831 75.3697 95.5961L67.3544 87.5785C65.7615 85.9851 63.1802 85.9789 61.5795 87.5646C59.9684 89.1606 59.9624 91.7624 61.566 93.366L70.5235 102.324C74.5632 106.363 80.042 108.633 85.7549 108.633H127.633V91.6295Z" fill="#F0C9BC"/>
<path d="M88.8047 41.3672H60.3672V49.0234H88.8047V54.2187C88.8047 54.9738 89.4168 55.5859 90.1719 55.5859H97.8282C98.5833 55.5859 99.1954 54.9738 99.1954 54.2187V45.4687C99.1954 43.2035 97.3591 41.3672 95.0938 41.3672H88.8047Z" fill="#E2E9EE"/>
<path d="M99.1954 54.2187C99.1954 54.9738 98.5833 55.5859 97.8282 55.5859H90.1719C89.4168 55.5859 88.8047 54.9738 88.8047 54.2187V49.0234H99.1954V54.2187Z" fill="#E2E9EE"/>
<path d="M70.576 79.4206C73.0174 79.4206 74.9965 77.4414 74.9965 75C74.9965 72.5586 73.0174 70.5795 70.576 70.5795C68.1346 70.5795 66.1555 72.5586 66.1555 75C66.1555 77.4414 68.1346 79.4206 70.576 79.4206Z" fill="#99EBFA"/>
<path d="M110.862 69.7779C113.303 69.7779 115.283 67.7987 115.283 65.3574C115.283 62.916 113.303 60.9368 110.862 60.9368C108.421 60.9368 106.441 62.916 106.441 65.3574C106.441 67.7987 108.421 69.7779 110.862 69.7779Z" fill="#99EBFA"/>
<path d="M127.633 107.266H85.7549C80.3664 107.266 75.3003 105.167 71.4902 101.357L62.5326 92.3994C62.016 91.8829 61.7325 91.1961 61.7343 90.4656C61.736 89.7353 62.0226 89.0499 62.5416 88.5358C63.6042 87.4827 65.3297 87.4871 66.3872 88.545L74.4025 96.5626C77.3661 99.5272 81.3069 101.16 85.4987 101.16H104.14C104.895 101.16 105.507 100.548 105.507 99.7926C105.507 99.0376 104.895 98.4254 104.14 98.4254L86.1852 98.4251C84.6886 98.4251 83.471 97.2075 83.471 95.711C83.471 94.2143 84.6882 92.9967 86.1845 92.9966H97.5852C97.9521 92.9966 98.3038 92.849 98.5608 92.5872L101.006 90.0962C103.251 87.81 106.376 86.4987 109.58 86.4987C112.204 86.4987 114.797 87.377 116.881 88.9717L121.773 92.7151C122.011 92.8976 122.303 92.9966 122.604 92.9966H127.633C128.388 92.9966 129 92.3845 129 91.6294C129 90.8743 128.388 90.2622 127.633 90.2622H123.067L118.543 86.8002C117.344 85.8831 116.007 85.1618 114.595 84.6511C113.54 80.8395 110.052 78.1445 106.031 78.1445C105.761 78.1445 105.489 78.157 105.219 78.1817C103.787 76.2212 101.597 74.9331 99.1953 74.6322V56.5832C100.011 56.1094 100.563 55.2281 100.563 54.2188V45.4688C100.563 42.4533 98.1092 40 95.0938 40H60.3672C59.6122 40 59 40.6121 59 41.3672C59 42.1223 59.6122 42.7344 60.3672 42.7344H95.0938C96.6015 42.7344 97.8281 43.961 97.8281 45.4688V47.6562H80.3517C79.5967 47.6562 78.9845 48.2683 78.9845 49.0234C78.9845 49.7785 79.5967 50.3906 80.3517 50.3906H87.4375V54.2188C87.4375 55.2281 87.9888 56.1094 88.8047 56.5832V74.6849C88.3248 74.605 87.8343 74.5641 87.3366 74.5641C82.4864 74.5641 78.5404 78.51 78.5404 83.3602C78.5404 83.785 78.5714 84.2095 78.6328 84.6301C76.1165 86.2288 74.5404 89.0398 74.5404 92.0618C74.5404 92.3348 74.5542 92.6045 74.5787 92.8712L68.3212 86.6121C66.2026 84.4927 62.7467 84.4842 60.6173 86.5935C59.5779 87.6232 59.0036 88.9962 59 90.4593C58.9966 91.9226 59.5645 93.2983 60.5991 94.333L69.5568 103.291C73.8834 107.617 79.6361 110 85.7549 110H127.633C128.388 110 129 109.388 129 108.633C129 107.878 128.388 107.266 127.633 107.266ZM97.8281 54.2188H90.1719V50.3906H97.8281V54.2188ZM91.5391 56.9531H96.4609V74.7189C95.0972 74.9755 93.8234 75.5488 92.724 76.4063C92.3483 76.1133 91.9521 75.8537 91.5391 75.6281V56.9531ZM80.7584 86.5753C81.3602 86.2919 81.6708 85.6163 81.4941 84.975C81.3486 84.4474 81.2748 83.9041 81.2748 83.3602C81.2748 80.0178 83.9941 77.2985 87.3366 77.2985C89.014 77.2985 90.5751 77.9701 91.7324 79.1893C91.9907 79.4613 92.3491 79.6154 92.724 79.6154C93.099 79.6154 93.4575 79.4614 93.7156 79.1893C94.873 77.9701 96.434 77.2985 98.1113 77.2985C100.272 77.2985 102.285 78.4642 103.366 80.3406C103.659 80.8488 104.243 81.1138 104.819 80.9988C105.218 80.9192 105.625 80.8789 106.031 80.8789C108.246 80.8789 110.227 82.0591 111.312 83.8695C110.738 83.8007 110.16 83.7645 109.58 83.7645C105.647 83.7645 101.811 85.3741 99.0553 88.1806L97.0117 90.2623H86.1848C83.1808 90.2623 80.7369 92.7067 80.7369 95.7111C80.7369 96.4128 80.8717 97.0832 81.1144 97.6997C78.8685 96.8113 77.2749 94.6198 77.2749 92.0618C77.2748 89.7253 78.6423 87.5717 80.7584 86.5753Z" fill="black"/>
<path d="M68.047 47.6562H60.3672C59.6123 47.6562 59.0001 48.2683 59.0001 49.0234C59.0001 49.7785 59.6123 50.3906 60.3672 50.3906H68.047C68.802 50.3906 69.4142 49.7785 69.4142 49.0234C69.4142 48.2683 68.802 47.6562 68.047 47.6562Z" fill="black"/>
<path d="M64.7882 75C64.7882 78.1915 67.3846 80.7878 70.5761 80.7878C73.7675 80.7878 76.3638 78.1913 76.3638 75C76.3638 71.8088 73.7675 69.2123 70.5761 69.2123C67.3846 69.2123 64.7882 71.8086 64.7882 75ZM73.6294 75C73.6294 76.6837 72.2596 78.0534 70.5761 78.0534C68.8924 78.0534 67.5226 76.6836 67.5226 75C67.5226 73.3165 68.8924 71.9467 70.5761 71.9467C72.2596 71.9467 73.6294 73.3163 73.6294 75Z" fill="black"/>
<path d="M110.862 71.1452C114.053 71.1452 116.65 68.5488 116.65 65.3575C116.65 62.1662 114.053 59.5698 110.862 59.5698C107.671 59.5698 105.074 62.1661 105.074 65.3574C105.074 68.5488 107.671 71.1452 110.862 71.1452ZM110.862 62.304C112.546 62.304 113.915 63.6738 113.915 65.3574C113.915 67.0411 112.546 68.4107 110.862 68.4107C109.178 68.4107 107.809 67.0409 107.809 65.3574C107.809 63.6738 109.178 62.304 110.862 62.304Z" fill="black"/>
<path d="M75.1657 49.99C75.4198 49.7357 75.5663 49.383 75.5663 49.0234C75.5663 48.6639 75.42 48.3111 75.1657 48.0568C74.9114 47.8025 74.5586 47.6562 74.1991 47.6562C73.8395 47.6562 73.4868 47.8025 73.2325 48.0568C72.9783 48.3111 72.8319 48.6639 72.8319 49.0234C72.8319 49.383 72.9782 49.7357 73.2325 49.99C73.4868 50.2443 73.8395 50.3906 74.1991 50.3906C74.5586 50.3906 74.9114 50.2443 75.1657 49.99Z" fill="black"/>
<defs>
<linearGradient id="paint0_linear" x1="225" y1="0" x2="225" y2="150" gradientUnits="userSpaceOnUse">
<stop stop-color="#2F80ED"/>
<stop offset="1" stop-color="#56CCF2" stop-opacity="0.34"/>
</linearGradient>
</defs>
</svg>
