<svg width="450" height="150" viewBox="0 0 450 150" fill="none" xmlns="http://www.w3.org/2000/svg">
<rect x="1" y="1" width="448" height="148" rx="49" fill="url(#paint0_linear)" fill-opacity="0.85" stroke="#E0E0E0" stroke-width="2"/>
<path d="M113.551 87.0313C113.551 82.8783 110.184 79.5117 106.031 79.5117C105.524 79.5117 105.03 79.5626 104.551 79.6582C103.268 77.4314 100.866 75.9314 98.1114 75.9314C95.99 75.9314 94.0777 76.8221 92.724 78.2482C91.3704 76.8221 89.4581 75.9314 87.3366 75.9314C83.2337 75.9314 79.9078 79.2574 79.9078 83.3602C79.9078 84.0455 80.0024 84.7083 80.1761 85.3383C77.6541 86.526 75.9078 89.0894 75.9078 92.0618C75.9078 96.1648 79.2337 99.4907 83.3367 99.4907C85.1171 99.4907 86.7508 98.8637 88.0305 97.8192C89.31 98.8636 90.9437 99.4907 92.7242 99.4907C94.5047 99.4907 96.1383 98.8637 97.4179 97.8192C98.6974 98.8636 100.331 99.4907 102.112 99.4907C105.621 99.4907 108.56 97.0569 109.337 93.7857C111.832 92.5622 113.551 89.9978 113.551 87.0313Z" fill="#99EBFA"/>
<path d="M90.1719 55.5859H97.8282V76.5039H90.1719V55.5859Z" fill="#CCF5FC"/>
<path d="M127.633 91.6295H122.604L117.712 87.8861C115.378 86.0996 112.52 85.1317 109.58 85.1317C105.988 85.1317 102.547 86.5756 100.031 89.1385L97.5855 91.6294C97.5855 91.6294 90.4711 91.6294 86.1849 91.6295C83.9308 91.6295 82.1043 93.4569 82.1043 95.711C82.1043 97.965 83.9315 99.7923 86.1856 99.7923L104.14 99.7926H94.4062H85.4989C81.6995 99.7926 78.0558 98.2831 75.3697 95.5961L67.3544 87.5785C65.7615 85.9851 63.1802 85.9789 61.5795 87.5646C59.9684 89.1606 59.9624 91.7624 61.566 93.366L70.5235 102.324C74.5632 106.363 80.042 108.633 85.7549 108.633H127.633V91.6295Z" fill="#F0C9BC"/>
<path d="M88.8047 41.3672H60.3672V49.0234H88.8047V54.2187C88.8047 54.9738 89.4168 55.5859 90.1719 55.5859H97.8282C98.5833 55.5859 99.1954 54.9738 99.1954 54.2187V45.4687C99.1954 43.2035 97.3591 41.3672 95.0938 41.3672H88.8047Z" fill="#E2E9EE"/>
<path d="M99.1954 54.2187C99.1954 54.9738 98.5833 55.5859 97.8282 55.5859H90.1719C89.4168 55.5859 88.8047 54.9738 88.8047 54.2187V49.0234H99.1954V54.2187Z" fill="#E2E9EE"/>
<path d="M70.576 79.4206C73.0174 79.4206 74.9965 77.4414 74.9965 75C74.9965 72.5586 73.0174 70.5795 70.576 70.5795C68.1346 70.5795 66.1555 72.5586 66.1555 75C66.1555 77.4414 68.1346 79.4206 70.576 79.4206Z" fill="#99EBFA"/>
<path d="M110.862 69.7779C113.303 69.7779 115.283 67.7987 115.283 65.3574C115.283 62.916 113.303 60.9368 110.862 60.9368C108.421 60.9368 106.441 62.916 106.441 65.3574C106.441 67.7987 108.421 69.7779 110.862 69.7779Z" fill="#99EBFA"/>
<path d="M127.633 107.266H85.7549C80.3664 107.266 75.3003 105.167 71.4902 101.357L62.5326 92.3994C62.016 91.8829 61.7325 91.1961 61.7343 90.4656C61.736 89.7353 62.0226 89.0499 62.5416 88.5358C63.6042 87.4827 65.3297 87.4871 66.3872 88.545L74.4025 96.5626C77.3661 99.5272 81.3069 101.16 85.4987 101.16H104.14C104.895 101.16 105.507 100.548 105.507 99.7926C105.507 99.0376 104.895 98.4254 104.14 98.4254L86.1852 98.4251C84.6886 98.4251 83.471 97.2075 83.471 95.711C83.471 94.2143 84.6882 92.9967 86.1845 92.9966H97.5852C97.9521 92.9966 98.3038 92.849 98.5608 92.5872L101.006 90.0962C103.251 87.81 106.376 86.4987 109.58 86.4987C112.204 86.4987 114.797 87.377 116.881 88.9717L121.773 92.7151C122.011 92.8976 122.303 92.9966 122.604 92.9966H127.633C128.388 92.9966 129 92.3845 129 91.6294C129 90.8743 128.388 90.2622 127.633 90.2622H123.067L118.543 86.8002C117.344 85.8831 116.007 85.1618 114.595 84.6511C113.54 80.8395 110.052 78.1445 106.031 78.1445C105.761 78.1445 105.489 78.157 105.219 78.1817C103.787 76.2212 101.597 74.9331 99.1953 74.6322V56.5832C100.011 56.1094 100.563 55.2281 100.563 54.2188V45.4688C100.563 42.4533 98.1092 40 95.0938 40H60.3672C59.6122 40 59 40.6121 59 41.3672C59 42.1223 59.6122 42.7344 60.3672 42.7344H95.0938C96.6015 42.7344 97.8281 43.961 97.8281 45.4688V47.6562H80.3517C79.5967 47.6562 78.9845 48.2683 78.9845 49.0234C78.9845 49.7785 79.5967 50.3906 80.3517 50.3906H87.4375V54.2188C87.4375 55.2281 87.9888 56.1094 88.8047 56.5832V74.6849C88.3248 74.605 87.8343 74.5641 87.3366 74.5641C82.4864 74.5641 78.5404 78.51 78.5404 83.3602C78.5404 83.785 78.5714 84.2095 78.6328 84.6301C76.1165 86.2288 74.5404 89.0398 74.5404 92.0618C74.5404 92.3348 74.5542 92.6045 74.5787 92.8712L68.3212 86.6121C66.2026 84.4927 62.7467 84.4842 60.6173 86.5935C59.5779 87.6232 59.0036 88.9962 59 90.4593C58.9966 91.9226 59.5645 93.2983 60.5991 94.333L69.5568 103.291C73.8834 107.617 79.6361 110 85.7549 110H127.633C128.388 110 129 109.388 129 108.633C129 107.878 128.388 107.266 127.633 107.266ZM97.8281 54.2188H90.1719V50.3906H97.8281V54.2188ZM91.5391 56.9531H96.4609V74.7189C95.0972 74.9755 93.8234 75.5488 92.724 76.4063C92.3483 76.1133 91.9521 75.8537 91.5391 75.6281V56.9531ZM80.7584 86.5753C81.3602 86.2919 81.6708 85.6163 81.4941 84.975C81.3486 84.4474 81.2748 83.9041 81.2748 83.3602C81.2748 80.0178 83.9941 77.2985 87.3366 77.2985C89.014 77.2985 90.5751 77.9701 91.7324 79.1893C91.9907 79.4613 92.3491 79.6154 92.724 79.6154C93.099 79.6154 93.4575 79.4614 93.7156 79.1893C94.873 77.9701 96.434 77.2985 98.1113 77.2985C100.272 77.2985 102.285 78.4642 103.366 80.3406C103.659 80.8488 104.243 81.1138 104.819 80.9988C105.218 80.9192 105.625 80.8789 106.031 80.8789C108.246 80.8789 110.227 82.0591 111.312 83.8695C110.738 83.8007 110.16 83.7645 109.58 83.7645C105.647 83.7645 101.811 85.3741 99.0553 88.1806L97.0117 90.2623H86.1848C83.1808 90.2623 80.7369 92.7067 80.7369 95.7111C80.7369 96.4128 80.8717 97.0832 81.1144 97.6997C78.8685 96.8113 77.2749 94.6198 77.2749 92.0618C77.2748 89.7253 78.6423 87.5717 80.7584 86.5753Z" fill="black"/>
<path d="M68.047 47.6562H60.3672C59.6123 47.6562 59.0001 48.2683 59.0001 49.0234C59.0001 49.7785 59.6123 50.3906 60.3672 50.3906H68.047C68.802 50.3906 69.4142 49.7785 69.4142 49.0234C69.4142 48.2683 68.802 47.6562 68.047 47.6562Z" fill="black"/>
<path d="M64.7882 75C64.7882 78.1915 67.3846 80.7878 70.5761 80.7878C73.7675 80.7878 76.3638 78.1913 76.3638 75C76.3638 71.8088 73.7675 69.2123 70.5761 69.2123C67.3846 69.2123 64.7882 71.8086 64.7882 75ZM73.6294 75C73.6294 76.6837 72.2596 78.0534 70.5761 78.0534C68.8924 78.0534 67.5226 76.6836 67.5226 75C67.5226 73.3165 68.8924 71.9467 70.5761 71.9467C72.2596 71.9467 73.6294 73.3163 73.6294 75Z" fill="black"/>
<path d="M110.862 71.1452C114.053 71.1452 116.65 68.5488 116.65 65.3575C116.65 62.1662 114.053 59.5698 110.862 59.5698C107.671 59.5698 105.074 62.1661 105.074 65.3574C105.074 68.5488 107.671 71.1452 110.862 71.1452ZM110.862 62.304C112.546 62.304 113.915 63.6738 113.915 65.3574C113.915 67.0411 112.546 68.4107 110.862 68.4107C109.178 68.4107 107.809 67.0409 107.809 65.3574C107.809 63.6738 109.178 62.304 110.862 62.304Z" fill="black"/>
<path d="M75.1657 49.99C75.4198 49.7357 75.5663 49.383 75.5663 49.0234C75.5663 48.6639 75.42 48.3111 75.1657 48.0568C74.9114 47.8025 74.5586 47.6562 74.1991 47.6562C73.8395 47.6562 73.4868 47.8025 73.2325 48.0568C72.9783 48.3111 72.8319 48.6639 72.8319 49.0234C72.8319 49.383 72.9782 49.7357 73.2325 49.99C73.4868 50.2443 73.8395 50.3906 74.1991 50.3906C74.5586 50.3906 74.9114 50.2443 75.1657 49.99Z" fill="black"/>
<path d="M174.314 83V61.54H178.284V70.3145H187.981V61.54H191.951V83H187.981V73.4492H178.284V83H174.314ZM200.462 83.3076C198.968 83.3076 197.757 82.8975 196.829 82.0771C195.911 81.2471 195.452 80.0557 195.452 78.5029C195.452 76.833 195.999 75.5977 197.093 74.7969C198.187 73.9863 199.837 73.4736 202.044 73.2588C202.347 73.2197 202.674 73.1807 203.025 73.1416C203.377 73.1025 203.772 73.0635 204.212 73.0244C204.651 72.9854 204.998 72.9512 205.252 72.9219V72.0723C205.252 71.0957 205.027 70.3877 204.578 69.9482C204.129 69.499 203.445 69.2744 202.527 69.2744C201.219 69.2744 199.603 69.6406 197.679 70.373C197.669 70.3438 197.508 69.8994 197.195 69.04C196.883 68.1807 196.722 67.7412 196.712 67.7217C198.606 66.9111 200.657 66.5059 202.864 66.5059C205.032 66.5059 206.609 66.9795 207.596 67.9268C208.582 68.8643 209.075 70.3877 209.075 72.4971V83H206.233C206.224 82.9609 206.116 82.6338 205.911 82.0186C205.706 81.4033 205.604 81.0762 205.604 81.0371C204.803 81.8184 204.017 82.3945 203.245 82.7656C202.483 83.127 201.556 83.3076 200.462 83.3076ZM201.502 80.583C202.391 80.583 203.162 80.373 203.816 79.9531C204.48 79.5234 204.954 79.0059 205.237 78.4004V75.2949C205.208 75.2949 204.949 75.3145 204.461 75.3535C203.982 75.3926 203.724 75.4121 203.685 75.4121C202.132 75.5488 200.994 75.8418 200.271 76.291C199.549 76.7402 199.188 77.4629 199.188 78.459C199.188 79.1426 199.388 79.6699 199.788 80.041C200.188 80.4023 200.76 80.583 201.502 80.583ZM212.942 83V66.9014H216.033L216.458 68.9375C218.099 67.3164 219.92 66.5059 221.922 66.5059C223.797 66.5059 225.198 67.0479 226.126 68.1318C227.063 69.2061 227.532 70.7686 227.532 72.8193V83H223.68V73.2881C223.67 71.9893 223.46 71.0176 223.05 70.373C222.64 69.7285 221.902 69.4062 220.838 69.4062C220.008 69.4062 219.246 69.6211 218.553 70.0508C217.869 70.4707 217.371 71.0029 217.059 71.6475C216.873 72.4092 216.78 73.5811 216.78 75.1631V83H212.942ZM237.303 83.3076C235.203 83.3076 233.553 82.5361 232.352 80.9932C231.15 79.4502 230.55 77.3896 230.55 74.8115C230.55 72.3115 231.146 70.3047 232.337 68.791C233.538 67.2676 235.188 66.5059 237.288 66.5059C239.573 66.5059 241.189 67.3164 242.137 68.9375C242.039 67.9805 241.99 67.0576 241.99 66.1689V60.9688L245.828 60.7197V83H242.503L242.078 80.8027C241.912 81.0664 241.756 81.2959 241.609 81.4912C241.473 81.6768 241.268 81.8965 240.994 82.1504C240.721 82.3945 240.423 82.5947 240.101 82.751C239.788 82.8975 239.388 83.0244 238.899 83.1318C238.421 83.249 237.889 83.3076 237.303 83.3076ZM238.211 80.3926C240.789 80.3926 242.098 78.6396 242.137 75.1338C242.137 73.1514 241.805 71.7061 241.141 70.7979C240.477 69.8896 239.485 69.4355 238.167 69.4355C237.015 69.4355 236.092 69.8994 235.398 70.8271C234.715 71.7451 234.373 73.1025 234.373 74.8994C234.373 76.6865 234.715 78.0488 235.398 78.9863C236.092 79.9238 237.029 80.3926 238.211 80.3926ZM252.889 83L248.011 66.9014H251.922L255.013 78.708C255.081 78.4834 255.638 76.5645 256.683 72.9512C257.728 69.3379 258.318 67.3213 258.455 66.9014H262.396C262.522 67.3115 263.084 69.3086 264.08 72.8926C265.076 76.4766 265.613 78.4004 265.691 78.6641L268.87 66.9014H272.723L267.684 83H263.86C263.733 82.5801 263.138 80.4561 262.073 76.6279C261.019 72.7998 260.447 70.7344 260.359 70.4316C260.164 71.1445 259.539 73.293 258.484 76.877C257.439 80.4609 256.834 82.502 256.668 83H252.889ZM279.036 83.3076C277.542 83.3076 276.331 82.8975 275.403 82.0771C274.485 81.2471 274.026 80.0557 274.026 78.5029C274.026 76.833 274.573 75.5977 275.667 74.7969C276.761 73.9863 278.411 73.4736 280.618 73.2588C280.921 73.2197 281.248 73.1807 281.6 73.1416C281.951 73.1025 282.347 73.0635 282.786 73.0244C283.226 72.9854 283.572 72.9512 283.826 72.9219V72.0723C283.826 71.0957 283.602 70.3877 283.152 69.9482C282.703 69.499 282.02 69.2744 281.102 69.2744C279.793 69.2744 278.177 69.6406 276.253 70.373C276.243 70.3438 276.082 69.8994 275.77 69.04C275.457 68.1807 275.296 67.7412 275.286 67.7217C277.181 66.9111 279.231 66.5059 281.438 66.5059C283.606 66.5059 285.184 66.9795 286.17 67.9268C287.156 68.8643 287.649 70.3877 287.649 72.4971V83H284.808C284.798 82.9609 284.69 82.6338 284.485 82.0186C284.28 81.4033 284.178 81.0762 284.178 81.0371C283.377 81.8184 282.591 82.3945 281.819 82.7656C281.058 83.127 280.13 83.3076 279.036 83.3076ZM280.076 80.583C280.965 80.583 281.736 80.373 282.391 79.9531C283.055 79.5234 283.528 79.0059 283.812 78.4004V75.2949C283.782 75.2949 283.523 75.3145 283.035 75.3535C282.557 75.3926 282.298 75.4121 282.259 75.4121C280.706 75.5488 279.568 75.8418 278.846 76.291C278.123 76.7402 277.762 77.4629 277.762 78.459C277.762 79.1426 277.962 79.6699 278.362 80.041C278.763 80.4023 279.334 80.583 280.076 80.583ZM296.658 83.293C294.285 83.293 292.386 82.8877 290.96 82.0771L291.355 79.1914C292 79.543 292.82 79.8604 293.816 80.1436C294.812 80.417 295.721 80.5537 296.541 80.5537C297.391 80.5537 298.05 80.3975 298.519 80.085C298.997 79.7627 299.241 79.2939 299.251 78.6787C299.251 78.1221 299.026 77.6826 298.577 77.3604C298.138 77.0381 297.293 76.6377 296.043 76.1592C295.613 76.0029 295.335 75.9004 295.208 75.8516C293.724 75.2754 292.654 74.6357 292 73.9326C291.346 73.2197 291.019 72.2578 291.019 71.0469C291.019 69.582 291.546 68.459 292.601 67.6777C293.665 66.8965 295.145 66.5059 297.039 66.5059C299.09 66.5059 300.892 66.8916 302.444 67.6631L301.492 70.3145C299.959 69.6016 298.499 69.2451 297.112 69.2451C296.341 69.2451 295.735 69.377 295.296 69.6406C294.866 69.8945 294.651 70.2852 294.651 70.8125C294.651 71.3105 294.861 71.7012 295.281 71.9844C295.701 72.2578 296.521 72.6191 297.742 73.0684C297.781 73.0781 297.908 73.1221 298.123 73.2002C298.338 73.2783 298.504 73.3418 298.621 73.3906C300.096 73.9277 301.18 74.5723 301.873 75.3242C302.566 76.0664 302.913 77.0381 302.913 78.2393C302.903 79.8506 302.356 81.0957 301.272 81.9746C300.188 82.8535 298.65 83.293 296.658 83.293ZM305.96 83V60.9688L309.798 60.7197V65.3633C309.798 65.5879 309.783 66.2129 309.754 67.2383C309.725 68.2539 309.71 68.7715 309.71 68.791C310.989 67.2676 312.708 66.5059 314.866 66.5059C316.663 66.5059 318.055 67.0234 319.041 68.0586C320.037 69.084 320.535 70.666 320.535 72.8047V83H316.697V73.2295C316.697 71.9111 316.487 70.9443 316.067 70.3291C315.647 69.7139 314.935 69.4062 313.929 69.4062C313.069 69.4062 312.308 69.626 311.644 70.0654C310.979 70.4951 310.481 71.0518 310.149 71.7354C309.915 72.6338 309.798 73.8057 309.798 75.251V83H305.96ZM324.417 83V66.9014H328.255V83H324.417ZM324.417 64.5576V61.2764H328.27V64.5576H324.417ZM332.269 83V66.9014H335.359L335.784 68.9375C337.425 67.3164 339.246 66.5059 341.248 66.5059C343.123 66.5059 344.524 67.0479 345.452 68.1318C346.39 69.2061 346.858 70.7686 346.858 72.8193V83H343.006V73.2881C342.996 71.9893 342.786 71.0176 342.376 70.373C341.966 69.7285 341.229 69.4062 340.164 69.4062C339.334 69.4062 338.572 69.6211 337.879 70.0508C337.195 70.4707 336.697 71.0029 336.385 71.6475C336.199 72.4092 336.106 73.5811 336.106 75.1631V83H332.269ZM353.86 90.207L353.641 87.1016H355.589C357.845 87.1016 359.422 86.7988 360.32 86.1934C361.219 85.5977 361.668 84.499 361.668 82.8975C361.668 82.2432 361.639 81.5352 361.58 80.7734C361.326 81.125 361.082 81.418 360.848 81.6523C360.623 81.877 360.335 82.1016 359.983 82.3262C359.642 82.5508 359.227 82.7217 358.738 82.8389C358.26 82.9463 357.713 83 357.098 83C354.969 83 353.216 82.2334 351.839 80.7002C350.472 79.167 349.788 77.1895 349.788 74.7676C349.788 73.4785 349.979 72.3066 350.359 71.252C350.74 70.1875 351.258 69.3135 351.912 68.6299C352.566 67.9463 353.318 67.4238 354.168 67.0625C355.027 66.6914 355.94 66.5059 356.907 66.5059C359.065 66.5059 360.672 67.292 361.727 68.8643L361.99 66.9014H365.418V81.8574C365.418 82.6582 365.379 83.376 365.301 84.0107C365.223 84.6553 365.086 85.2705 364.891 85.8564C364.695 86.4521 364.437 86.9697 364.114 87.4092C363.802 87.8486 363.406 88.249 362.928 88.6104C362.449 88.9717 361.883 89.2646 361.229 89.4893C360.584 89.7236 359.832 89.8994 358.973 90.0166C358.113 90.1436 357.146 90.207 356.072 90.207H353.86ZM357.713 80.3193C360.359 80.3193 361.697 78.5469 361.727 75.002V74.4453C361.707 72.8535 361.375 71.623 360.73 70.7539C360.086 69.8848 359.144 69.4453 357.903 69.4355C356.497 69.4355 355.433 69.9189 354.71 70.8857C353.987 71.8428 353.626 73.1367 353.626 74.7676C353.626 76.3398 353.987 77.6582 354.71 78.7227C355.442 79.7871 356.443 80.3193 357.713 80.3193Z" fill="#333333"/>
<defs>
<linearGradient id="paint0_linear" x1="225" y1="0" x2="225" y2="150" gradientUnits="userSpaceOnUse">
<stop stop-color="#2F80ED"/>
<stop offset="1" stop-color="#56CCF2" stop-opacity="0.09"/>
</linearGradient>
</defs>
</svg>
