<svg width="450" height="150" viewBox="0 0 450 150" fill="none" xmlns="http://www.w3.org/2000/svg">
<rect width="450" height="150" rx="50" fill="url(#paint0_linear)" fill-opacity="0.85"/>
<path d="M121.755 108.962H66.2452C62.8146 108.962 60.0336 106.168 60.0336 102.723V47.2775C60.0336 43.8316 62.8146 41.0381 66.2452 41.0381H121.755C125.185 41.0381 127.966 43.8316 127.966 47.2775V102.723C127.967 106.168 125.185 108.962 121.755 108.962Z" fill="#EFE2DD"/>
<path d="M121.755 41.0381H117.621C121.051 41.0381 123.832 43.8315 123.832 47.2774V102.723C123.832 106.168 121.051 108.962 117.621 108.962H121.755C125.185 108.962 127.966 106.168 127.966 102.723V47.2774C127.967 43.8316 125.185 41.0381 121.755 41.0381Z" fill="#E1D3CE"/>
<path d="M83.5463 70.6207C84.4639 70.6207 85.2423 69.9699 85.4394 69.0696C86.2188 65.509 89.3764 62.8444 93.1554 62.8444C96.9344 62.8444 100.092 65.509 100.872 69.0696C101.069 69.9698 101.847 70.6207 102.765 70.6207H113.961C115.103 70.6207 115.999 69.6311 115.886 68.4896C114.741 56.8935 105.002 47.8362 93.1554 47.8362C81.3092 47.8362 71.5703 56.8935 70.4248 68.4896C70.3121 69.6311 71.2077 70.6207 72.3496 70.6207H83.5463Z" fill="#FFEEE8"/>
<path d="M89.0212 62.8445C85.2422 62.8445 82.0845 65.5092 81.3051 69.0698C81.108 69.97 80.3297 70.6208 79.412 70.6208H83.5463C84.4639 70.6208 85.2423 69.9701 85.4394 69.0698C86.0712 66.1831 88.2664 63.8859 91.0883 63.1193C90.4294 62.9403 89.7365 62.8445 89.0212 62.8445Z" fill="#E1D3CE"/>
<path d="M115.886 68.4896C114.741 56.8935 105.002 47.8362 93.1554 47.8362C92.4585 47.8362 91.7692 47.8687 91.0883 47.9301C101.983 48.9118 110.674 57.5756 111.752 68.4896C111.865 69.6311 110.969 70.6207 109.827 70.6207H113.961C115.103 70.6207 115.999 69.6311 115.886 68.4896Z" fill="#E1D3CE"/>
<path d="M93.1554 71.9387C94.5396 71.9387 95.6616 70.8117 95.6616 69.4214C95.6616 68.0311 94.5396 66.904 93.1554 66.904C91.7713 66.904 90.6492 68.0311 90.6492 69.4214C90.6492 70.8117 91.7713 71.9387 93.1554 71.9387Z" fill="#FE646F"/>
<path d="M127.967 70.8282C127.396 70.8282 126.933 71.293 126.933 71.8663V102.723C126.933 105.59 124.61 107.924 121.755 107.924H66.2452C63.3899 107.924 61.0671 105.591 61.0671 102.723V66.7325C61.0671 66.1592 60.6044 65.6944 60.0336 65.6944C59.4628 65.6944 59 66.1592 59 66.7325V102.723C59 106.735 62.2501 110 66.2452 110H121.755C125.75 110 129 106.735 129 102.723V71.8663C129 71.293 128.537 70.8282 127.967 70.8282Z" fill="black"/>
<path d="M121.755 40H66.2452C62.2501 40 59 43.2647 59 47.2774V62.5799C59 63.1532 59.4628 63.618 60.0336 63.618C60.6044 63.618 61.0671 63.1532 61.0671 62.5799V47.2774C61.0671 44.4096 63.3899 42.0763 66.2452 42.0763H121.755C124.61 42.0763 126.933 44.4096 126.933 47.2774V67.7137C126.933 68.287 127.396 68.7518 127.966 68.7518C128.537 68.7518 129 68.287 129 67.7137V47.2774C129 43.2647 125.75 40 121.755 40Z" fill="black"/>
<path d="M116.162 70.6785C116.723 70.0566 116.997 69.2215 116.915 68.3872C116.333 62.4972 113.604 57.0492 109.23 53.047C104.826 49.0174 99.1172 46.7982 93.1554 46.7982C87.1937 46.7982 81.4851 49.0174 77.0812 53.047C72.7073 57.0493 69.978 62.4972 69.3962 68.3874C69.3138 69.2215 69.5883 70.0567 70.149 70.6787C70.7109 71.3017 71.5129 71.6591 72.3496 71.6591H83.5463C84.9503 71.6591 86.1437 70.6861 86.4488 69.2929C87.135 66.1582 89.9555 63.883 93.1554 63.883C96.3554 63.883 99.1759 66.1582 99.8622 69.2929C100.167 70.686 101.361 71.6591 102.765 71.6591H113.961C114.798 71.6588 115.6 71.3016 116.162 70.6785ZM114.63 69.2846C114.456 69.4767 114.219 69.5825 113.961 69.5825H102.764C102.339 69.5825 101.976 69.2799 101.881 68.8468C101.063 65.109 97.9127 62.3119 94.1889 61.8693V59.2285C94.1889 58.6552 93.7261 58.1903 93.1553 58.1903C92.5845 58.1903 92.1217 58.6552 92.1217 59.2285V61.8693C88.3977 62.3119 85.2481 65.1088 84.4299 68.8468C84.3351 69.2799 83.9717 69.5825 83.5463 69.5825H72.3496C72.0917 69.5825 71.8544 69.4767 71.6812 69.2846C71.5089 69.0936 71.428 68.8476 71.4532 68.5922C71.5238 67.878 71.6301 67.171 71.7687 66.4731L73.6735 66.9296C73.7541 66.949 73.8347 66.9581 73.9142 66.9581C74.3817 66.9581 74.8055 66.6374 74.9187 66.1607C75.0512 65.603 74.7084 65.0429 74.1532 64.9099L72.2696 64.4585C72.9791 62.0904 74.0846 59.8608 75.5411 57.8613L77.4962 59.4485C77.6875 59.6038 77.917 59.6792 78.1453 59.6792C78.4466 59.6792 78.7454 59.5473 78.9497 59.2936C79.3085 58.8476 79.2395 58.1939 78.7954 57.8336L76.8394 56.2456C77.3522 55.6657 77.8965 55.1096 78.4732 54.5818C79.8348 53.3359 81.3335 52.2803 82.931 51.4277L84.0057 53.6884C84.1831 54.0615 84.5534 54.2795 84.9391 54.2795C85.0884 54.2795 85.2401 54.2468 85.3838 54.1779C85.899 53.9308 86.1171 53.3111 85.8711 52.7937L84.8003 50.5414C87.1106 49.5792 89.584 49.0189 92.1217 48.899V51.6621C92.1217 52.2354 92.5845 52.7002 93.1553 52.7002C93.7261 52.7002 94.1889 52.2354 94.1889 51.6621V48.899C96.7266 49.0189 99.2002 49.5792 101.51 50.5415L100.44 52.7938C100.194 53.3112 100.412 53.9309 100.927 54.178C101.071 54.247 101.222 54.2796 101.372 54.2796C101.757 54.2796 102.128 54.0616 102.305 53.6886L103.38 51.4279C104.977 52.2803 106.476 53.336 107.837 54.5819C108.414 55.1098 108.959 55.6658 109.471 56.2458L107.515 57.8338C107.071 58.1942 107.002 58.8478 107.361 59.2937C107.565 59.5476 107.864 59.6793 108.165 59.6793C108.394 59.6793 108.623 59.6038 108.815 59.4486L110.77 57.8614C112.226 59.861 113.332 62.0905 114.041 64.4587L112.158 64.9101C111.602 65.0431 111.26 65.6031 111.392 66.1608C111.505 66.6376 111.929 66.9583 112.396 66.9583C112.476 66.9583 112.557 66.9492 112.637 66.9298L114.542 66.4733C114.681 67.1712 114.787 67.878 114.858 68.5922C114.883 68.8477 114.802 69.0936 114.63 69.2846Z" fill="black"/>
<path d="M96.6952 69.4215C96.6952 67.4609 95.1072 65.8659 93.1553 65.8659C91.2035 65.8659 89.6155 67.4609 89.6155 69.4215C89.6155 71.382 91.2035 72.977 93.1553 72.977C95.1072 72.977 96.6952 71.382 96.6952 69.4215ZM91.6828 69.4215C91.6828 68.6058 92.3434 67.9422 93.1554 67.9422C93.9675 67.9422 94.6282 68.6058 94.6282 69.4215C94.6282 70.2371 93.9675 70.9007 93.1554 70.9007C92.3434 70.9007 91.6828 70.2371 91.6828 69.4215Z" fill="black"/>
<path d="M115.537 85.174C115.537 84.6006 115.074 84.1358 114.503 84.1358H73.4967C72.9259 84.1358 72.4631 84.6006 72.4631 85.174C72.4631 85.7473 72.9259 86.2121 73.4967 86.2121H114.503C115.074 86.2121 115.537 85.7473 115.537 85.174Z" fill="black"/>
<path d="M110.428 92.1009C110.428 91.5275 109.965 91.0627 109.395 91.0627H78.6055C78.0347 91.0627 77.572 91.5275 77.572 92.1009C77.572 92.6742 78.0347 93.139 78.6055 93.139H109.395C109.965 93.139 110.428 92.6742 110.428 92.1009Z" fill="black"/>
<path d="M84.1273 97.3562C83.5565 97.3562 83.0937 97.8211 83.0937 98.3944C83.0937 98.9677 83.5565 99.4326 84.1273 99.4326H103.873C104.444 99.4326 104.906 98.9677 104.906 98.3944C104.906 97.8211 104.444 97.3562 103.873 97.3562H84.1273Z" fill="black"/>
<defs>
<linearGradient id="paint0_linear" x1="225" y1="0" x2="225" y2="150" gradientUnits="userSpaceOnUse">
<stop stop-color="#6FCF97"/>
<stop offset="1" stop-color="#F8FFCF" stop-opacity="0.75"/>
</linearGradient>
</defs>
</svg>
