<svg width="450" height="150" viewBox="0 0 450 150" fill="none" xmlns="http://www.w3.org/2000/svg">
<rect width="450" height="150" rx="50" fill="url(#paint0_linear)" fill-opacity="0.85"/>
<path d="M113.755 108.962H58.2452C54.8146 108.962 52.0336 106.168 52.0336 102.723V47.2775C52.0336 43.8316 54.8146 41.0381 58.2452 41.0381H113.755C117.185 41.0381 119.966 43.8316 119.966 47.2775V102.723C119.967 106.168 117.185 108.962 113.755 108.962Z" fill="#EFE2DD"/>
<path d="M113.755 41.0381H109.621C113.051 41.0381 115.832 43.8315 115.832 47.2774V102.723C115.832 106.168 113.051 108.962 109.621 108.962H113.755C117.185 108.962 119.966 106.168 119.966 102.723V47.2774C119.967 43.8316 117.185 41.0381 113.755 41.0381Z" fill="#E1D3CE"/>
<path d="M75.5463 70.6207C76.4639 70.6207 77.2423 69.9699 77.4394 69.0696C78.2188 65.509 81.3764 62.8444 85.1554 62.8444C88.9344 62.8444 92.0921 65.509 92.8715 69.0696C93.0686 69.9698 93.8469 70.6207 94.7646 70.6207H105.961C107.103 70.6207 107.999 69.6311 107.886 68.4896C106.741 56.8935 97.0016 47.8362 85.1554 47.8362C73.3092 47.8362 63.5703 56.8935 62.4248 68.4896C62.3121 69.6311 63.2077 70.6207 64.3496 70.6207H75.5463Z" fill="#FFEEE8"/>
<path d="M81.0212 62.8445C77.2422 62.8445 74.0845 65.5092 73.3051 69.0698C73.108 69.97 72.3297 70.6208 71.412 70.6208H75.5463C76.4639 70.6208 77.2423 69.9701 77.4394 69.0698C78.0712 66.1831 80.2664 63.8859 83.0883 63.1193C82.4294 62.9403 81.7365 62.8445 81.0212 62.8445Z" fill="#E1D3CE"/>
<path d="M107.886 68.4896C106.741 56.8935 97.0016 47.8362 85.1554 47.8362C84.4585 47.8362 83.7692 47.8687 83.0883 47.9301C93.9832 48.9118 102.674 57.5756 103.752 68.4896C103.865 69.6311 102.969 70.6207 101.827 70.6207H105.961C107.103 70.6207 107.999 69.6311 107.886 68.4896Z" fill="#E1D3CE"/>
<path d="M85.1554 71.9387C86.5396 71.9387 87.6616 70.8117 87.6616 69.4214C87.6616 68.0311 86.5396 66.904 85.1554 66.904C83.7713 66.904 82.6492 68.0311 82.6492 69.4214C82.6492 70.8117 83.7713 71.9387 85.1554 71.9387Z" fill="#FE646F"/>
<path d="M119.967 70.8282C119.396 70.8282 118.933 71.293 118.933 71.8663V102.723C118.933 105.59 116.61 107.924 113.755 107.924H58.2452C55.3899 107.924 53.0671 105.591 53.0671 102.723V66.7325C53.0671 66.1592 52.6044 65.6944 52.0336 65.6944C51.4628 65.6944 51 66.1592 51 66.7325V102.723C51 106.735 54.2501 110 58.2452 110H113.755C117.75 110 121 106.735 121 102.723V71.8663C121 71.293 120.537 70.8282 119.967 70.8282Z" fill="black"/>
<path d="M113.755 40H58.2452C54.2501 40 51 43.2647 51 47.2774V62.5799C51 63.1532 51.4628 63.618 52.0336 63.618C52.6044 63.618 53.0671 63.1532 53.0671 62.5799V47.2774C53.0671 44.4096 55.3899 42.0763 58.2452 42.0763H113.755C116.61 42.0763 118.933 44.4096 118.933 47.2774V67.7137C118.933 68.287 119.396 68.7518 119.966 68.7518C120.537 68.7518 121 68.287 121 67.7137V47.2774C121 43.2647 117.75 40 113.755 40Z" fill="black"/>
<path d="M108.162 70.6785C108.723 70.0566 108.997 69.2215 108.915 68.3872C108.333 62.4972 105.604 57.0492 101.23 53.047C96.8258 49.0174 91.1172 46.7982 85.1554 46.7982C79.1937 46.7982 73.4851 49.0174 69.0812 53.047C64.7073 57.0493 61.978 62.4972 61.3962 68.3874C61.3138 69.2215 61.5883 70.0567 62.149 70.6787C62.7109 71.3017 63.5129 71.6591 64.3496 71.6591H75.5463C76.9503 71.6591 78.1437 70.6861 78.4488 69.2929C79.135 66.1582 81.9555 63.883 85.1554 63.883C88.3554 63.883 91.1759 66.1582 91.8622 69.2929C92.1672 70.686 93.3607 71.6591 94.7647 71.6591H105.961C106.798 71.6588 107.6 71.3016 108.162 70.6785ZM106.63 69.2846C106.456 69.4767 106.219 69.5825 105.961 69.5825H94.7644C94.339 69.5825 93.9756 69.2799 93.8808 68.8468C93.0625 65.109 89.9127 62.3119 86.1889 61.8693V59.2285C86.1889 58.6552 85.7261 58.1903 85.1553 58.1903C84.5845 58.1903 84.1217 58.6552 84.1217 59.2285V61.8693C80.3977 62.3119 77.2481 65.1088 76.4299 68.8468C76.3351 69.2799 75.9717 69.5825 75.5463 69.5825H64.3496C64.0917 69.5825 63.8544 69.4767 63.6812 69.2846C63.5089 69.0936 63.428 68.8476 63.4532 68.5922C63.5238 67.878 63.6301 67.171 63.7687 66.4731L65.6735 66.9296C65.7541 66.949 65.8347 66.9581 65.9142 66.9581C66.3817 66.9581 66.8055 66.6374 66.9187 66.1607C67.0512 65.603 66.7084 65.0429 66.1532 64.9099L64.2696 64.4585C64.9791 62.0904 66.0846 59.8608 67.5411 57.8613L69.4962 59.4485C69.6875 59.6038 69.917 59.6792 70.1453 59.6792C70.4466 59.6792 70.7454 59.5473 70.9497 59.2936C71.3085 58.8476 71.2395 58.1939 70.7954 57.8336L68.8394 56.2456C69.3522 55.6657 69.8965 55.1096 70.4732 54.5818C71.8348 53.3359 73.3335 52.2803 74.931 51.4277L76.0057 53.6884C76.1831 54.0615 76.5534 54.2795 76.9391 54.2795C77.0884 54.2795 77.2401 54.2468 77.3838 54.1779C77.899 53.9308 78.1171 53.3111 77.8711 52.7937L76.8003 50.5414C79.1106 49.5792 81.584 49.0189 84.1217 48.899V51.6621C84.1217 52.2354 84.5845 52.7002 85.1553 52.7002C85.7261 52.7002 86.1889 52.2354 86.1889 51.6621V48.899C88.7266 49.0189 91.2002 49.5792 93.5104 50.5415L92.4396 52.7938C92.1936 53.3112 92.4118 53.9309 92.9269 54.178C93.0706 54.247 93.2222 54.2796 93.3716 54.2796C93.7575 54.2796 94.1276 54.0616 94.305 53.6886L95.3798 51.4279C96.9772 52.2803 98.4758 53.336 99.8375 54.5819C100.414 55.1098 100.959 55.6658 101.471 56.2458L99.5153 57.8338C99.0713 58.1942 99.0024 58.8478 99.3611 59.2937C99.5653 59.5476 99.8641 59.6793 100.165 59.6793C100.394 59.6793 100.623 59.6038 100.815 59.4486L102.77 57.8614C104.226 59.861 105.332 62.0905 106.041 64.4587L104.158 64.9101C103.602 65.0431 103.26 65.6031 103.392 66.1608C103.505 66.6376 103.929 66.9583 104.396 66.9583C104.476 66.9583 104.557 66.9492 104.637 66.9298L106.542 66.4733C106.681 67.1712 106.787 67.878 106.858 68.5922C106.883 68.8477 106.802 69.0936 106.63 69.2846Z" fill="black"/>
<path d="M88.6952 69.4215C88.6952 67.4609 87.1072 65.8659 85.1553 65.8659C83.2035 65.8659 81.6155 67.4609 81.6155 69.4215C81.6155 71.382 83.2035 72.977 85.1553 72.977C87.1072 72.977 88.6952 71.382 88.6952 69.4215ZM83.6828 69.4215C83.6828 68.6058 84.3434 67.9422 85.1554 67.9422C85.9675 67.9422 86.6282 68.6058 86.6282 69.4215C86.6282 70.2371 85.9675 70.9007 85.1554 70.9007C84.3434 70.9007 83.6828 70.2371 83.6828 69.4215Z" fill="black"/>
<path d="M107.537 85.174C107.537 84.6006 107.074 84.1358 106.503 84.1358H65.4967C64.9259 84.1358 64.4631 84.6006 64.4631 85.174C64.4631 85.7473 64.9259 86.2121 65.4967 86.2121H106.503C107.074 86.2121 107.537 85.7473 107.537 85.174Z" fill="black"/>
<path d="M102.428 92.1009C102.428 91.5275 101.965 91.0627 101.395 91.0627H70.6055C70.0347 91.0627 69.572 91.5275 69.572 92.1009C69.572 92.6742 70.0347 93.139 70.6055 93.139H101.395C101.965 93.139 102.428 92.6742 102.428 92.1009Z" fill="black"/>
<path d="M76.1273 97.3562C75.5565 97.3562 75.0937 97.8211 75.0937 98.3944C75.0937 98.9677 75.5565 99.4326 76.1273 99.4326H95.8728C96.4436 99.4326 96.9064 98.9677 96.9064 98.3944C96.9064 97.8211 96.4436 97.3562 95.8728 97.3562H76.1273Z" fill="black"/>
<path d="M150.977 81L145.146 59.54H149.102L153.262 76.2393L158.154 59.6426H161.948L166.592 76.2979L170.84 59.54H174.795L168.789 81H164.673L160.088 65.2822L155.063 81H150.977ZM183.921 81.3076C181.333 81.3076 179.316 80.5654 177.871 79.0811C176.436 77.5869 175.718 75.5264 175.718 72.8994C175.718 70.3408 176.396 68.3047 177.754 66.791C179.111 65.2773 180.962 64.5156 183.306 64.5059C185.522 64.5059 187.241 65.1992 188.462 66.5859C189.692 67.9727 190.308 69.8135 190.308 72.1084C190.308 72.2744 190.303 72.543 190.293 72.9141C190.293 73.2852 190.293 73.5586 190.293 73.7344H179.585C179.624 75.2383 180.034 76.4053 180.815 77.2354C181.606 78.0557 182.69 78.4658 184.067 78.4658C185.825 78.4658 187.515 78.0068 189.136 77.0889L189.678 79.8135C188.066 80.8096 186.147 81.3076 183.921 81.3076ZM179.658 71.3174H186.689C186.689 70.0088 186.392 69.0029 185.796 68.2998C185.2 67.5967 184.375 67.2451 183.32 67.2451C182.334 67.2451 181.499 67.5869 180.815 68.2705C180.142 68.9541 179.756 69.9697 179.658 71.3174ZM193.53 81V64.9014H197.368V81H193.53ZM193.53 62.5576V59.2764H197.383V62.5576H193.53ZM204.604 88.207L204.385 85.1016H206.333C208.589 85.1016 210.166 84.7988 211.064 84.1934C211.963 83.5977 212.412 82.499 212.412 80.8975C212.412 80.2432 212.383 79.5352 212.324 78.7734C212.07 79.125 211.826 79.418 211.592 79.6523C211.367 79.877 211.079 80.1016 210.728 80.3262C210.386 80.5508 209.971 80.7217 209.482 80.8389C209.004 80.9463 208.457 81 207.842 81C205.713 81 203.96 80.2334 202.583 78.7002C201.216 77.167 200.532 75.1895 200.532 72.7676C200.532 71.4785 200.723 70.3066 201.104 69.252C201.484 68.1875 202.002 67.3135 202.656 66.6299C203.311 65.9463 204.062 65.4238 204.912 65.0625C205.771 64.6914 206.685 64.5059 207.651 64.5059C209.81 64.5059 211.416 65.292 212.471 66.8643L212.734 64.9014H216.162V79.8574C216.162 80.6582 216.123 81.376 216.045 82.0107C215.967 82.6553 215.83 83.2705 215.635 83.8564C215.439 84.4521 215.181 84.9697 214.858 85.4092C214.546 85.8486 214.15 86.249 213.672 86.6104C213.193 86.9717 212.627 87.2646 211.973 87.4893C211.328 87.7236 210.576 87.8994 209.717 88.0166C208.857 88.1436 207.891 88.207 206.816 88.207H204.604ZM208.457 78.3193C211.104 78.3193 212.441 76.5469 212.471 73.002V72.4453C212.451 70.8535 212.119 69.623 211.475 68.7539C210.83 67.8848 209.888 67.4453 208.647 67.4355C207.241 67.4355 206.177 67.9189 205.454 68.8857C204.731 69.8428 204.37 71.1367 204.37 72.7676C204.37 74.3398 204.731 75.6582 205.454 76.7227C206.187 77.7871 207.188 78.3193 208.457 78.3193ZM219.956 81V58.9688L223.794 58.7197V63.3633C223.794 63.5879 223.779 64.2129 223.75 65.2383C223.721 66.2539 223.706 66.7715 223.706 66.791C224.985 65.2676 226.704 64.5059 228.862 64.5059C230.659 64.5059 232.051 65.0234 233.037 66.0586C234.033 67.084 234.531 68.666 234.531 70.8047V81H230.693V71.2295C230.693 69.9111 230.483 68.9443 230.063 68.3291C229.644 67.7139 228.931 67.4062 227.925 67.4062C227.065 67.4062 226.304 67.626 225.64 68.0654C224.976 68.4951 224.478 69.0518 224.146 69.7354C223.911 70.6338 223.794 71.8057 223.794 73.251V81H219.956ZM244.756 81.2197C243.662 81.2197 242.749 81.0928 242.017 80.8389C241.294 80.5752 240.728 80.165 240.317 79.6084C239.907 79.0518 239.614 78.3975 239.438 77.6455C239.272 76.8838 239.189 75.9463 239.189 74.833V67.2305H236.553L236.699 65.1504L239.453 64.9014L240.684 60.5361L243.027 60.5215V64.9014H247.026V67.2305H243.027V74.9062C243.027 76.127 243.203 76.9961 243.555 77.5137C243.906 78.0312 244.556 78.29 245.503 78.29C246.06 78.29 246.655 78.2412 247.29 78.1436L247.393 80.8975C247.373 80.8975 247.251 80.9219 247.026 80.9707C246.812 81.0098 246.602 81.0439 246.396 81.0732C246.201 81.1123 245.947 81.1465 245.635 81.1758C245.322 81.2051 245.029 81.2197 244.756 81.2197ZM262.393 77.8213H265.234C267.686 77.8213 269.551 77.1816 270.83 75.9023C272.109 74.6133 272.749 72.7383 272.749 70.2773C272.749 67.6406 272.09 65.7266 270.771 64.5352C269.453 63.334 267.466 62.7334 264.81 62.7334H262.393V77.8213ZM258.423 81V59.54H264.634C266.509 59.54 268.188 59.7549 269.673 60.1846C271.157 60.6143 272.432 61.2637 273.496 62.1328C274.57 62.9922 275.391 64.1055 275.957 65.4727C276.533 66.8301 276.821 68.4023 276.821 70.1895C276.821 73.6562 275.776 76.3271 273.687 78.2021C271.597 80.0674 268.701 81 265 81H258.423ZM284.468 81.3076C282.974 81.3076 281.763 80.8975 280.835 80.0771C279.917 79.2471 279.458 78.0557 279.458 76.5029C279.458 74.833 280.005 73.5977 281.099 72.7969C282.192 71.9863 283.843 71.4736 286.05 71.2588C286.353 71.2197 286.68 71.1807 287.031 71.1416C287.383 71.1025 287.778 71.0635 288.218 71.0244C288.657 70.9854 289.004 70.9512 289.258 70.9219V70.0723C289.258 69.0957 289.033 68.3877 288.584 67.9482C288.135 67.499 287.451 67.2744 286.533 67.2744C285.225 67.2744 283.608 67.6406 281.685 68.373C281.675 68.3438 281.514 67.8994 281.201 67.04C280.889 66.1807 280.728 65.7412 280.718 65.7217C282.612 64.9111 284.663 64.5059 286.87 64.5059C289.038 64.5059 290.615 64.9795 291.602 65.9268C292.588 66.8643 293.081 68.3877 293.081 70.4971V81H290.239C290.229 80.9609 290.122 80.6338 289.917 80.0186C289.712 79.4033 289.609 79.0762 289.609 79.0371C288.809 79.8184 288.022 80.3945 287.251 80.7656C286.489 81.127 285.562 81.3076 284.468 81.3076ZM285.508 78.583C286.396 78.583 287.168 78.373 287.822 77.9531C288.486 77.5234 288.96 77.0059 289.243 76.4004V73.2949C289.214 73.2949 288.955 73.3145 288.467 73.3535C287.988 73.3926 287.729 73.4121 287.69 73.4121C286.138 73.5488 285 73.8418 284.277 74.291C283.555 74.7402 283.193 75.4629 283.193 76.459C283.193 77.1426 283.394 77.6699 283.794 78.041C284.194 78.4023 284.766 78.583 285.508 78.583ZM303.379 81.2197C302.285 81.2197 301.372 81.0928 300.64 80.8389C299.917 80.5752 299.351 80.165 298.94 79.6084C298.53 79.0518 298.237 78.3975 298.062 77.6455C297.896 76.8838 297.812 75.9463 297.812 74.833V67.2305H295.176L295.322 65.1504L298.076 64.9014L299.307 60.5361L301.65 60.5215V64.9014H305.649V67.2305H301.65V74.9062C301.65 76.127 301.826 76.9961 302.178 77.5137C302.529 78.0312 303.179 78.29 304.126 78.29C304.683 78.29 305.278 78.2412 305.913 78.1436L306.016 80.8975C305.996 80.8975 305.874 80.9219 305.649 80.9707C305.435 81.0098 305.225 81.0439 305.02 81.0732C304.824 81.1123 304.57 81.1465 304.258 81.1758C303.945 81.2051 303.652 81.2197 303.379 81.2197ZM312.944 81.3076C311.45 81.3076 310.239 80.8975 309.312 80.0771C308.394 79.2471 307.935 78.0557 307.935 76.5029C307.935 74.833 308.481 73.5977 309.575 72.7969C310.669 71.9863 312.319 71.4736 314.526 71.2588C314.829 71.2197 315.156 71.1807 315.508 71.1416C315.859 71.1025 316.255 71.0635 316.694 71.0244C317.134 70.9854 317.48 70.9512 317.734 70.9219V70.0723C317.734 69.0957 317.51 68.3877 317.061 67.9482C316.611 67.499 315.928 67.2744 315.01 67.2744C313.701 67.2744 312.085 67.6406 310.161 68.373C310.151 68.3438 309.99 67.8994 309.678 67.04C309.365 66.1807 309.204 65.7412 309.194 65.7217C311.089 64.9111 313.14 64.5059 315.347 64.5059C317.515 64.5059 319.092 64.9795 320.078 65.9268C321.064 66.8643 321.558 68.3877 321.558 70.4971V81H318.716C318.706 80.9609 318.599 80.6338 318.394 80.0186C318.188 79.4033 318.086 79.0762 318.086 79.0371C317.285 79.8184 316.499 80.3945 315.728 80.7656C314.966 81.127 314.038 81.3076 312.944 81.3076ZM313.984 78.583C314.873 78.583 315.645 78.373 316.299 77.9531C316.963 77.5234 317.437 77.0059 317.72 76.4004V73.2949C317.69 73.2949 317.432 73.3145 316.943 73.3535C316.465 73.3926 316.206 73.4121 316.167 73.4121C314.614 73.5488 313.477 73.8418 312.754 74.291C312.031 74.7402 311.67 75.4629 311.67 76.459C311.67 77.1426 311.87 77.6699 312.271 78.041C312.671 78.4023 313.242 78.583 313.984 78.583Z" fill="black"/>
<defs>
<linearGradient id="paint0_linear" x1="225" y1="0" x2="225" y2="150" gradientUnits="userSpaceOnUse">
<stop stop-color="#6FCF97"/>
<stop offset="1" stop-color="#F8FFCF" stop-opacity="0.75"/>
</linearGradient>
</defs>
</svg>
