<svg width="450" height="150" viewBox="0 0 450 150" fill="none" xmlns="http://www.w3.org/2000/svg">
<rect width="450" height="150" rx="50" fill="url(#paint0_linear)" fill-opacity="0.85"/>
<path d="M121.755 108.962H66.2452C62.8146 108.962 60.0336 106.168 60.0336 102.723V47.2775C60.0336 43.8316 62.8146 41.0381 66.2452 41.0381H121.755C125.185 41.0381 127.966 43.8316 127.966 47.2775V102.723C127.967 106.168 125.185 108.962 121.755 108.962Z" fill="#EFE2DD"/>
<path d="M121.755 41.0381H117.621C121.051 41.0381 123.832 43.8315 123.832 47.2774V102.723C123.832 106.168 121.051 108.962 117.621 108.962H121.755C125.185 108.962 127.966 106.168 127.966 102.723V47.2774C127.967 43.8316 125.185 41.0381 121.755 41.0381V41.0381Z" fill="#E1D3CE"/>
<path d="M83.5463 70.6207C84.4639 70.6207 85.2423 69.9699 85.4394 69.0696C86.2188 65.509 89.3764 62.8444 93.1554 62.8444C96.9344 62.8444 100.092 65.509 100.871 69.0696C101.069 69.9698 101.847 70.6207 102.765 70.6207H113.961C115.103 70.6207 115.999 69.6311 115.886 68.4896C114.741 56.8935 105.002 47.8362 93.1554 47.8362C81.3092 47.8362 71.5703 56.8935 70.4248 68.4896C70.3121 69.6311 71.2077 70.6207 72.3496 70.6207H83.5463Z" fill="#FFEEE8"/>
<path d="M89.0212 62.8445C85.2422 62.8445 82.0845 65.5092 81.3051 69.0698C81.108 69.97 80.3297 70.6208 79.412 70.6208H83.5463C84.4639 70.6208 85.2423 69.9701 85.4394 69.0698C86.0712 66.1831 88.2664 63.8859 91.0883 63.1193C90.4294 62.9403 89.7365 62.8445 89.0212 62.8445V62.8445Z" fill="#E1D3CE"/>
<path d="M115.886 68.4896C114.741 56.8935 105.002 47.8362 93.1554 47.8362C92.4585 47.8362 91.7692 47.8687 91.0883 47.9301C101.983 48.9118 110.674 57.5756 111.752 68.4896C111.865 69.6311 110.969 70.6207 109.827 70.6207H113.961C115.103 70.6207 115.999 69.6311 115.886 68.4896Z" fill="#E1D3CE"/>
<path d="M93.1554 71.9387C94.5396 71.9387 95.6616 70.8117 95.6616 69.4214C95.6616 68.0311 94.5396 66.904 93.1554 66.904C91.7713 66.904 90.6492 68.0311 90.6492 69.4214C90.6492 70.8117 91.7713 71.9387 93.1554 71.9387Z" fill="#FE646F"/>
<path d="M127.967 70.8282C127.396 70.8282 126.933 71.293 126.933 71.8663V102.723C126.933 105.59 124.61 107.924 121.755 107.924H66.2452C63.3899 107.924 61.0671 105.591 61.0671 102.723V66.7325C61.0671 66.1592 60.6044 65.6944 60.0336 65.6944C59.4628 65.6944 59 66.1592 59 66.7325V102.723C59 106.735 62.2501 110 66.2452 110H121.755C125.75 110 129 106.735 129 102.723V71.8663C129 71.293 128.537 70.8282 127.967 70.8282V70.8282Z" fill="black"/>
<path d="M121.755 40H66.2452C62.2501 40 59 43.2647 59 47.2774V62.5799C59 63.1532 59.4628 63.618 60.0336 63.618C60.6044 63.618 61.0671 63.1532 61.0671 62.5799V47.2774C61.0671 44.4096 63.3899 42.0763 66.2452 42.0763H121.755C124.61 42.0763 126.933 44.4096 126.933 47.2774V67.7137C126.933 68.287 127.396 68.7518 127.966 68.7518C128.537 68.7518 129 68.287 129 67.7137V47.2774C129 43.2647 125.75 40 121.755 40V40Z" fill="black"/>
<path d="M116.162 70.6785C116.723 70.0566 116.997 69.2215 116.915 68.3872C116.333 62.4972 113.604 57.0492 109.23 53.047C104.826 49.0174 99.1172 46.7982 93.1554 46.7982C87.1937 46.7982 81.4851 49.0174 77.0812 53.047C72.7073 57.0493 69.978 62.4972 69.3962 68.3874C69.3138 69.2215 69.5883 70.0567 70.149 70.6787C70.7109 71.3017 71.5129 71.6591 72.3496 71.6591H83.5463C84.9503 71.6591 86.1437 70.6861 86.4488 69.2929C87.135 66.1582 89.9555 63.883 93.1554 63.883C96.3554 63.883 99.1759 66.1582 99.8622 69.2929C100.167 70.686 101.361 71.6591 102.765 71.6591H113.961C114.798 71.6588 115.6 71.3016 116.162 70.6785V70.6785ZM114.63 69.2846C114.456 69.4767 114.219 69.5825 113.961 69.5825H102.764C102.339 69.5825 101.976 69.2799 101.881 68.8468C101.063 65.109 97.9127 62.3119 94.1889 61.8693V59.2285C94.1889 58.6552 93.7261 58.1903 93.1553 58.1903C92.5845 58.1903 92.1217 58.6552 92.1217 59.2285V61.8693C88.3977 62.3119 85.2481 65.1088 84.4299 68.8468C84.3351 69.2799 83.9717 69.5825 83.5463 69.5825H72.3496C72.0917 69.5825 71.8544 69.4767 71.6812 69.2846C71.5089 69.0936 71.428 68.8476 71.4532 68.5922C71.5238 67.878 71.6301 67.171 71.7687 66.4731L73.6735 66.9296C73.7541 66.949 73.8347 66.9581 73.9142 66.9581C74.3817 66.9581 74.8055 66.6374 74.9187 66.1607C75.0512 65.603 74.7084 65.0429 74.1532 64.9099L72.2696 64.4585C72.9791 62.0904 74.0846 59.8608 75.5411 57.8613L77.4962 59.4485C77.6875 59.6038 77.917 59.6792 78.1453 59.6792C78.4466 59.6792 78.7454 59.5473 78.9497 59.2936C79.3085 58.8476 79.2395 58.1939 78.7954 57.8336L76.8394 56.2456C77.3522 55.6657 77.8965 55.1096 78.4732 54.5818C79.8348 53.3359 81.3335 52.2803 82.931 51.4277L84.0057 53.6884C84.1831 54.0615 84.5534 54.2795 84.9391 54.2795C85.0884 54.2795 85.2401 54.2468 85.3838 54.1779C85.899 53.9308 86.1171 53.3111 85.8711 52.7937L84.8003 50.5414C87.1106 49.5792 89.584 49.0189 92.1217 48.899V51.6621C92.1217 52.2354 92.5845 52.7002 93.1553 52.7002C93.7261 52.7002 94.1889 52.2354 94.1889 51.6621V48.899C96.7266 49.0189 99.2002 49.5792 101.51 50.5415L100.44 52.7938C100.194 53.3112 100.412 53.9309 100.927 54.178C101.071 54.247 101.222 54.2796 101.372 54.2796C101.757 54.2796 102.128 54.0616 102.305 53.6886L103.38 51.4279C104.977 52.2803 106.476 53.336 107.837 54.5819C108.414 55.1098 108.959 55.6658 109.471 56.2458L107.515 57.8338C107.071 58.1942 107.002 58.8478 107.361 59.2937C107.565 59.5476 107.864 59.6794 108.165 59.6794C108.394 59.6794 108.623 59.6038 108.815 59.4486L110.77 57.8614C112.226 59.861 113.332 62.0905 114.041 64.4587L112.158 64.9101C111.602 65.0431 111.26 65.6031 111.392 66.1608C111.505 66.6376 111.929 66.9583 112.396 66.9583C112.476 66.9583 112.557 66.9491 112.637 66.9298L114.542 66.4733C114.681 67.1712 114.787 67.878 114.858 68.5922C114.883 68.8477 114.802 69.0936 114.63 69.2846V69.2846Z" fill="black"/>
<path d="M96.6952 69.4215C96.6952 67.4609 95.1072 65.8659 93.1553 65.8659C91.2035 65.8659 89.6155 67.4609 89.6155 69.4215C89.6155 71.382 91.2035 72.977 93.1553 72.977C95.1072 72.977 96.6952 71.382 96.6952 69.4215ZM91.6828 69.4215C91.6828 68.6058 92.3434 67.9422 93.1554 67.9422C93.9675 67.9422 94.6282 68.6058 94.6282 69.4215C94.6282 70.2371 93.9675 70.9007 93.1554 70.9007C92.3434 70.9007 91.6828 70.2371 91.6828 69.4215V69.4215Z" fill="black"/>
<path d="M115.537 85.174C115.537 84.6006 115.074 84.1358 114.503 84.1358H73.4967C72.9259 84.1358 72.4631 84.6006 72.4631 85.174C72.4631 85.7473 72.9259 86.2121 73.4967 86.2121H114.503C115.074 86.2121 115.537 85.7473 115.537 85.174Z" fill="black"/>
<path d="M110.428 92.1009C110.428 91.5275 109.965 91.0627 109.395 91.0627H78.6055C78.0347 91.0627 77.572 91.5275 77.572 92.1009C77.572 92.6742 78.0347 93.139 78.6055 93.139H109.395C109.965 93.139 110.428 92.6742 110.428 92.1009Z" fill="black"/>
<path d="M84.1273 97.3562C83.5565 97.3562 83.0937 97.8211 83.0937 98.3944C83.0937 98.9677 83.5565 99.4326 84.1273 99.4326H103.873C104.444 99.4326 104.906 98.9677 104.906 98.3944C104.906 97.8211 104.444 97.3562 103.873 97.3562H84.1273Z" fill="black"/>
<path d="M177.977 87L172.146 65.54H176.102L180.262 82.2393L185.154 65.6426H188.948L193.592 82.2979L197.84 65.54H201.795L195.789 87H191.673L187.088 71.2822L182.063 87H177.977ZM210.921 87.3076C208.333 87.3076 206.316 86.5654 204.871 85.0811C203.436 83.5869 202.718 81.5264 202.718 78.8994C202.718 76.3408 203.396 74.3047 204.754 72.791C206.111 71.2773 207.962 70.5156 210.306 70.5059C212.522 70.5059 214.241 71.1992 215.462 72.5859C216.692 73.9727 217.308 75.8135 217.308 78.1084C217.308 78.2744 217.303 78.543 217.293 78.9141C217.293 79.2852 217.293 79.5586 217.293 79.7344H206.585C206.624 81.2383 207.034 82.4053 207.815 83.2354C208.606 84.0557 209.69 84.4658 211.067 84.4658C212.825 84.4658 214.515 84.0068 216.136 83.0889L216.678 85.8135C215.066 86.8096 213.147 87.3076 210.921 87.3076ZM206.658 77.3174H213.689C213.689 76.0088 213.392 75.0029 212.796 74.2998C212.2 73.5967 211.375 73.2451 210.32 73.2451C209.334 73.2451 208.499 73.5869 207.815 74.2705C207.142 74.9541 206.756 75.9697 206.658 77.3174ZM220.53 87V70.9014H224.368V87H220.53ZM220.53 68.5576V65.2764H224.383V68.5576H220.53ZM231.604 94.207L231.385 91.1016H233.333C235.589 91.1016 237.166 90.7988 238.064 90.1934C238.963 89.5977 239.412 88.499 239.412 86.8975C239.412 86.2432 239.383 85.5352 239.324 84.7734C239.07 85.125 238.826 85.418 238.592 85.6523C238.367 85.877 238.079 86.1016 237.728 86.3262C237.386 86.5508 236.971 86.7217 236.482 86.8389C236.004 86.9463 235.457 87 234.842 87C232.713 87 230.96 86.2334 229.583 84.7002C228.216 83.167 227.532 81.1895 227.532 78.7676C227.532 77.4785 227.723 76.3066 228.104 75.252C228.484 74.1875 229.002 73.3135 229.656 72.6299C230.311 71.9463 231.062 71.4238 231.912 71.0625C232.771 70.6914 233.685 70.5059 234.651 70.5059C236.81 70.5059 238.416 71.292 239.471 72.8643L239.734 70.9014H243.162V85.8574C243.162 86.6582 243.123 87.376 243.045 88.0107C242.967 88.6553 242.83 89.2705 242.635 89.8564C242.439 90.4521 242.181 90.9697 241.858 91.4092C241.546 91.8486 241.15 92.249 240.672 92.6104C240.193 92.9717 239.627 93.2646 238.973 93.4893C238.328 93.7236 237.576 93.8994 236.717 94.0166C235.857 94.1436 234.891 94.207 233.816 94.207H231.604ZM235.457 84.3193C238.104 84.3193 239.441 82.5469 239.471 79.002V78.4453C239.451 76.8535 239.119 75.623 238.475 74.7539C237.83 73.8848 236.888 73.4453 235.647 73.4355C234.241 73.4355 233.177 73.9189 232.454 74.8857C231.731 75.8428 231.37 77.1367 231.37 78.7676C231.37 80.3398 231.731 81.6582 232.454 82.7227C233.187 83.7871 234.188 84.3193 235.457 84.3193ZM246.956 87V64.9688L250.794 64.7197V69.3633C250.794 69.5879 250.779 70.2129 250.75 71.2383C250.721 72.2539 250.706 72.7715 250.706 72.791C251.985 71.2676 253.704 70.5059 255.862 70.5059C257.659 70.5059 259.051 71.0234 260.037 72.0586C261.033 73.084 261.531 74.666 261.531 76.8047V87H257.693V77.2295C257.693 75.9111 257.483 74.9443 257.063 74.3291C256.644 73.7139 255.931 73.4062 254.925 73.4062C254.065 73.4062 253.304 73.626 252.64 74.0654C251.976 74.4951 251.478 75.0518 251.146 75.7354C250.911 76.6338 250.794 77.8057 250.794 79.251V87H246.956ZM271.756 87.2197C270.662 87.2197 269.749 87.0928 269.017 86.8389C268.294 86.5752 267.728 86.165 267.317 85.6084C266.907 85.0518 266.614 84.3975 266.438 83.6455C266.272 82.8838 266.189 81.9463 266.189 80.833V73.2305H263.553L263.699 71.1504L266.453 70.9014L267.684 66.5361L270.027 66.5215V70.9014H274.026V73.2305H270.027V80.9062C270.027 82.127 270.203 82.9961 270.555 83.5137C270.906 84.0312 271.556 84.29 272.503 84.29C273.06 84.29 273.655 84.2412 274.29 84.1436L274.393 86.8975C274.373 86.8975 274.251 86.9219 274.026 86.9707C273.812 87.0098 273.602 87.0439 273.396 87.0732C273.201 87.1123 272.947 87.1465 272.635 87.1758C272.322 87.2051 272.029 87.2197 271.756 87.2197Z" fill="#333333"/>
<defs>
<linearGradient id="paint0_linear" x1="225" y1="0" x2="225" y2="150" gradientUnits="userSpaceOnUse">
<stop stop-color="#6FCF97"/>
<stop offset="1" stop-color="#F8FFCF" stop-opacity="0.5"/>
</linearGradient>
</defs>
</svg>
