<svg width="450" height="150" viewBox="0 0 450 150" fill="none" xmlns="http://www.w3.org/2000/svg">
<rect x="1" y="1" width="448" height="148" rx="49" fill="url(#paint0_linear)" fill-opacity="0.85" stroke="#E0E0E0" stroke-width="2"/>
<path d="M152.207 79.0342C153.271 80.3916 154.844 81.0703 156.924 81.0703C159.004 81.0703 160.571 80.3965 161.626 79.0488C162.69 77.6914 163.223 75.7773 163.223 73.3066C163.223 70.8066 162.69 68.8682 161.626 67.4912C160.571 66.1143 159.009 65.4258 156.938 65.4258C154.858 65.4258 153.281 66.1191 152.207 67.5059C151.143 68.8828 150.61 70.8164 150.61 73.3066C150.61 75.7676 151.143 77.6768 152.207 79.0342ZM156.909 84.3076C153.677 84.3076 151.123 83.3311 149.248 81.3779C147.383 79.415 146.45 76.71 146.45 73.2627C146.45 69.7959 147.388 67.0908 149.263 65.1475C151.138 63.2041 153.691 62.2324 156.924 62.2324C160.156 62.2324 162.705 63.209 164.57 65.1621C166.436 67.1055 167.368 69.8105 167.368 73.2773C167.368 76.7051 166.431 79.4004 164.556 81.3633C162.681 83.3262 160.132 84.3076 156.909 84.3076ZM170.767 90.6943V67.9014H174.062L174.473 70.1572C175 69.3076 175.698 68.6533 176.567 68.1943C177.446 67.7256 178.423 67.4912 179.497 67.4912C180.815 67.4912 181.973 67.8574 182.969 68.5898C183.975 69.3223 184.736 70.3232 185.254 71.5928C185.771 72.8525 186.03 74.2783 186.03 75.8701C186.03 78.3604 185.425 80.3916 184.214 81.9639C183.013 83.5264 181.382 84.3076 179.321 84.3076C178.306 84.3076 177.383 84.1074 176.553 83.707C175.732 83.2969 175.044 82.7451 174.487 82.0518C174.565 83.458 174.604 84.249 174.604 84.4248V90.5039L170.767 90.6943ZM178.501 81.3779C179.644 81.3779 180.542 80.8994 181.196 79.9424C181.86 78.9854 182.192 77.6182 182.192 75.8408C182.192 74.0342 181.86 72.6768 181.196 71.7686C180.532 70.8604 179.609 70.4062 178.428 70.4062C175.889 70.4062 174.604 72.1348 174.575 75.5918C174.575 77.584 174.902 79.0488 175.557 79.9863C176.221 80.9141 177.202 81.3779 178.501 81.3779ZM196.606 84.3076C194.019 84.3076 192.002 83.5654 190.557 82.0811C189.121 80.5869 188.403 78.5264 188.403 75.8994C188.403 73.3408 189.082 71.3047 190.439 69.791C191.797 68.2773 193.647 67.5156 195.991 67.5059C198.208 67.5059 199.927 68.1992 201.147 69.5859C202.378 70.9727 202.993 72.8135 202.993 75.1084C202.993 75.2744 202.988 75.543 202.979 75.9141C202.979 76.2852 202.979 76.5586 202.979 76.7344H192.271C192.31 78.2383 192.72 79.4053 193.501 80.2354C194.292 81.0557 195.376 81.4658 196.753 81.4658C198.511 81.4658 200.2 81.0068 201.821 80.0889L202.363 82.8135C200.752 83.8096 198.833 84.3076 196.606 84.3076ZM192.344 74.3174H199.375C199.375 73.0088 199.077 72.0029 198.481 71.2998C197.886 70.5967 197.061 70.2451 196.006 70.2451C195.02 70.2451 194.185 70.5869 193.501 71.2705C192.827 71.9541 192.441 72.9697 192.344 74.3174ZM206.128 84V67.9014H209.219L209.644 69.9375C211.284 68.3164 213.105 67.5059 215.107 67.5059C216.982 67.5059 218.384 68.0479 219.312 69.1318C220.249 70.2061 220.718 71.7686 220.718 73.8193V84H216.865V74.2881C216.855 72.9893 216.646 72.0176 216.235 71.373C215.825 70.7285 215.088 70.4062 214.023 70.4062C213.193 70.4062 212.432 70.6211 211.738 71.0508C211.055 71.4707 210.557 72.0029 210.244 72.6475C210.059 73.4092 209.966 74.5811 209.966 76.1631V84H206.128ZM232.803 84V62.54H236.772V71.3145H246.47V62.54H250.439V84H246.47V74.4492H236.772V84H232.803ZM262.144 84.3076C259.556 84.3076 257.539 83.5654 256.094 82.0811C254.658 80.5869 253.94 78.5264 253.94 75.8994C253.94 73.3408 254.619 71.3047 255.977 69.791C257.334 68.2773 259.185 67.5156 261.528 67.5059C263.745 67.5059 265.464 68.1992 266.685 69.5859C267.915 70.9727 268.53 72.8135 268.53 75.1084C268.53 75.2744 268.525 75.543 268.516 75.9141C268.516 76.2852 268.516 76.5586 268.516 76.7344H257.808C257.847 78.2383 258.257 79.4053 259.038 80.2354C259.829 81.0557 260.913 81.4658 262.29 81.4658C264.048 81.4658 265.737 81.0068 267.358 80.0889L267.9 82.8135C266.289 83.8096 264.37 84.3076 262.144 84.3076ZM257.881 74.3174H264.912C264.912 73.0088 264.614 72.0029 264.019 71.2998C263.423 70.5967 262.598 70.2451 261.543 70.2451C260.557 70.2451 259.722 70.5869 259.038 71.2705C258.364 71.9541 257.979 72.9697 257.881 74.3174ZM275.854 84.3076C274.36 84.3076 273.149 83.8975 272.222 83.0771C271.304 82.2471 270.845 81.0557 270.845 79.5029C270.845 77.833 271.392 76.5977 272.485 75.7969C273.579 74.9863 275.229 74.4736 277.437 74.2588C277.739 74.2197 278.066 74.1807 278.418 74.1416C278.77 74.1025 279.165 74.0635 279.604 74.0244C280.044 73.9854 280.391 73.9512 280.645 73.9219V73.0723C280.645 72.0957 280.42 71.3877 279.971 70.9482C279.521 70.499 278.838 70.2744 277.92 70.2744C276.611 70.2744 274.995 70.6406 273.071 71.373C273.062 71.3438 272.9 70.8994 272.588 70.04C272.275 69.1807 272.114 68.7412 272.104 68.7217C273.999 67.9111 276.05 67.5059 278.257 67.5059C280.425 67.5059 282.002 67.9795 282.988 68.9268C283.975 69.8643 284.468 71.3877 284.468 73.4971V84H281.626C281.616 83.9609 281.509 83.6338 281.304 83.0186C281.099 82.4033 280.996 82.0762 280.996 82.0371C280.195 82.8184 279.409 83.3945 278.638 83.7656C277.876 84.127 276.948 84.3076 275.854 84.3076ZM276.895 81.583C277.783 81.583 278.555 81.373 279.209 80.9531C279.873 80.5234 280.347 80.0059 280.63 79.4004V76.2949C280.601 76.2949 280.342 76.3145 279.854 76.3535C279.375 76.3926 279.116 76.4121 279.077 76.4121C277.524 76.5488 276.387 76.8418 275.664 77.291C274.941 77.7402 274.58 78.4629 274.58 79.459C274.58 80.1426 274.78 80.6699 275.181 81.041C275.581 81.4023 276.152 81.583 276.895 81.583ZM293.975 84.2197C292.871 84.2197 291.953 84.0928 291.221 83.8389C290.498 83.5752 289.927 83.1602 289.507 82.5938C289.087 82.0273 288.794 81.3535 288.628 80.5723C288.462 79.791 288.379 78.8193 288.379 77.6572V61.9688L292.217 61.7197V77.584C292.217 79.0293 292.388 80.0107 292.729 80.5283C293.071 81.0361 293.735 81.29 294.722 81.29C295.21 81.29 295.83 81.2363 296.582 81.1289L296.685 83.8682C296.675 83.8682 296.553 83.8926 296.318 83.9414C296.094 83.9902 295.874 84.0293 295.659 84.0586C295.454 84.0977 295.19 84.1318 294.868 84.1611C294.546 84.2002 294.248 84.2197 293.975 84.2197ZM305.02 84.2197C303.926 84.2197 303.013 84.0928 302.28 83.8389C301.558 83.5752 300.991 83.165 300.581 82.6084C300.171 82.0518 299.878 81.3975 299.702 80.6455C299.536 79.8838 299.453 78.9463 299.453 77.833V70.2305H296.816L296.963 68.1504L299.717 67.9014L300.947 63.5361L303.291 63.5215V67.9014H307.29V70.2305H303.291V77.9062C303.291 79.127 303.467 79.9961 303.818 80.5137C304.17 81.0312 304.819 81.29 305.767 81.29C306.323 81.29 306.919 81.2412 307.554 81.1436L307.656 83.8975C307.637 83.8975 307.515 83.9219 307.29 83.9707C307.075 84.0098 306.865 84.0439 306.66 84.0732C306.465 84.1123 306.211 84.1465 305.898 84.1758C305.586 84.2051 305.293 84.2197 305.02 84.2197ZM310.366 84V61.9688L314.204 61.7197V66.3633C314.204 66.5879 314.189 67.2129 314.16 68.2383C314.131 69.2539 314.116 69.7715 314.116 69.791C315.396 68.2676 317.114 67.5059 319.272 67.5059C321.069 67.5059 322.461 68.0234 323.447 69.0586C324.443 70.084 324.941 71.666 324.941 73.8047V84H321.104V74.2295C321.104 72.9111 320.894 71.9443 320.474 71.3291C320.054 70.7139 319.341 70.4062 318.335 70.4062C317.476 70.4062 316.714 70.626 316.05 71.0654C315.386 71.4951 314.888 72.0518 314.556 72.7354C314.321 73.6338 314.204 74.8057 314.204 76.251V84H310.366ZM334.683 84L342.578 62.5254H346.899L354.678 84H350.605L348.481 77.9355H340.967L338.828 84H334.683ZM341.963 74.9766H347.471C345.713 69.3418 344.81 66.4316 344.761 66.2461L341.963 74.9766ZM356.597 90.6943V67.9014H359.893L360.303 70.1572C360.83 69.3076 361.528 68.6533 362.397 68.1943C363.276 67.7256 364.253 67.4912 365.327 67.4912C366.646 67.4912 367.803 67.8574 368.799 68.5898C369.805 69.3223 370.566 70.3232 371.084 71.5928C371.602 72.8525 371.86 74.2783 371.86 75.8701C371.86 78.3604 371.255 80.3916 370.044 81.9639C368.843 83.5264 367.212 84.3076 365.151 84.3076C364.136 84.3076 363.213 84.1074 362.383 83.707C361.562 83.2969 360.874 82.7451 360.317 82.0518C360.396 83.458 360.435 84.249 360.435 84.4248V90.5039L356.597 90.6943ZM364.331 81.3779C365.474 81.3779 366.372 80.8994 367.026 79.9424C367.69 78.9854 368.022 77.6182 368.022 75.8408C368.022 74.0342 367.69 72.6768 367.026 71.7686C366.362 70.8604 365.439 70.4062 364.258 70.4062C361.719 70.4062 360.435 72.1348 360.405 75.5918C360.405 77.584 360.732 79.0488 361.387 79.9863C362.051 80.9141 363.032 81.3779 364.331 81.3779ZM374.995 90.6943V67.9014H378.291L378.701 70.1572C379.229 69.3076 379.927 68.6533 380.796 68.1943C381.675 67.7256 382.651 67.4912 383.726 67.4912C385.044 67.4912 386.201 67.8574 387.197 68.5898C388.203 69.3223 388.965 70.3232 389.482 71.5928C390 72.8525 390.259 74.2783 390.259 75.8701C390.259 78.3604 389.653 80.3916 388.442 81.9639C387.241 83.5264 385.61 84.3076 383.55 84.3076C382.534 84.3076 381.611 84.1074 380.781 83.707C379.961 83.2969 379.272 82.7451 378.716 82.0518C378.794 83.458 378.833 84.249 378.833 84.4248V90.5039L374.995 90.6943ZM382.729 81.3779C383.872 81.3779 384.771 80.8994 385.425 79.9424C386.089 78.9854 386.421 77.6182 386.421 75.8408C386.421 74.0342 386.089 72.6768 385.425 71.7686C384.761 70.8604 383.838 70.4062 382.656 70.4062C380.117 70.4062 378.833 72.1348 378.804 75.5918C378.804 77.584 379.131 79.0488 379.785 79.9863C380.449 80.9141 381.431 81.3779 382.729 81.3779Z" fill="black"/>
<path d="M101.859 62.9046C102.07 53.9639 94.9695 46.3872 86.0267 46.29C80.0393 46.2249 74.8018 49.4479 71.9996 54.263C69.1969 49.4479 63.9599 46.2243 57.9725 46.29C49.0297 46.3872 41.9294 53.9639 42.1403 62.9046C42.6124 82.8832 66.5073 100.26 71.2033 103.486C71.6834 103.816 72.3158 103.816 72.7959 103.486C77.4919 100.26 101.387 82.8832 101.859 62.9046V62.9046Z" fill="#FF5555"/>
<path d="M101.867 62.307C101.867 82.5334 77.5448 100.224 72.7964 103.485C72.3158 103.815 71.6829 103.816 71.2017 103.486C70.0321 102.683 67.6711 101.002 64.7781 98.6215C69.5467 95.3445 93.8357 77.6644 93.8357 57.4503C93.8357 53.3444 92.2928 49.5985 89.7528 46.7675C96.7127 48.5101 101.867 54.804 101.867 62.307V62.307Z" fill="#F72B2B"/>
<path d="M71.8015 91.6322C70.9331 91.6322 70.187 91.0143 70.0257 90.1598L65.6133 66.7215L60.9184 77.8791C60.645 78.5291 60.019 78.9601 59.3146 78.9841C58.6091 79.0081 57.956 78.6199 57.6393 77.9902L56.3842 75.4956H38.8067C37.8091 75.4956 37 74.6865 37 73.6889C37 72.6907 37.8091 71.8822 38.8067 71.8822H57.4977C58.1771 71.8822 58.7987 72.2629 59.1069 72.8675L64.6125 59.7846C64.9217 59.0492 65.6769 58.6038 66.4689 58.6887C67.262 58.7731 67.9055 59.367 68.0534 60.151L71.6915 79.4781L73.197 70.4349C73.3417 69.5633 74.0953 68.9245 74.9786 68.9245H80.8751C81.4861 68.9245 82.0559 69.2332 82.3892 69.7449L85.1578 73.9944L86.3519 72.5417C86.6953 72.1241 87.2075 71.8822 87.748 71.8822H105.194C106.191 71.8822 107 72.6913 107 73.6889C107 74.6865 106.191 75.4956 105.194 75.4956H88.6019L86.3856 78.1921C86.0203 78.6364 85.4643 78.8805 84.8902 78.849C84.315 78.8175 83.79 78.5136 83.476 78.0313L79.8967 72.538H76.5097L73.5836 90.1219C73.44 90.986 72.6966 91.6226 71.8207 91.6317C71.8143 91.6317 71.8073 91.6322 71.8015 91.6322V91.6322Z" fill="#60DAFF"/>
<defs>
<linearGradient id="paint0_linear" x1="225" y1="0" x2="225" y2="150" gradientUnits="userSpaceOnUse">
<stop stop-color="#FE646F"/>
<stop offset="1" stop-color="#F2C94C" stop-opacity="0.07"/>
</linearGradient>
</defs>
</svg>
